#N canvas 915 335 425 496 10;
#X obj 220 141 receive fromGUI;
#X obj 220 162 list trim;
#X obj 59 282 line~;
#X msg 59 259 \$1 100;
#X obj 41 305 *~;
#X obj 285 310 sel 1;
#X obj 220 409 line~;
#X obj 31 426 *~;
#X msg 220 335 \$1 100;
#X obj 31 453 dac~ 1;
#X obj 220 183 route /switch /fade;
#X obj 41 398 rev2~ 90 80 3000 0;
#X obj 41 350 delwrite~ d1 50000;
#X obj 31 373 delread~ d1 50000;
#X msg 285 335 0 80000;
#X obj 31 109 adc~ 1;
#X obj 31 134 hip~ 150;
#X obj 31 157 hip~ 150;
#X obj 31 181 hip~ 150;
#X obj 31 204 hip~ 150;
#X obj 59 235 pipe 15000;
#X obj 41 329 *~ 0.2;
#X text 164 20 fade in;
#X text 164 40 fade out;
#X text 164 60 delay-time;
#X text 164 80 reverb-mix;
#X text 164 100 reverb-parameters;
#X connect 0 0 1 0;
#X connect 1 0 10 0;
#X connect 2 0 4 1;
#X connect 3 0 2 0;
#X connect 4 0 21 0;
#X connect 5 0 14 0;
#X connect 6 0 7 1;
#X connect 7 0 9 0;
#X connect 8 0 6 0;
#X connect 10 0 8 0;
#X connect 10 0 20 0;
#X connect 10 1 5 0;
#X connect 11 0 7 0;
#X connect 13 0 7 0;
#X connect 13 0 11 0;
#X connect 14 0 6 0;
#X connect 15 0 16 0;
#X connect 16 0 17 0;
#X connect 17 0 18 0;
#X connect 18 0 19 0;
#X connect 19 0 4 0;
#X connect 20 0 3 0;
#X connect 21 0 12 0;
