#N canvas 847 181 587 468 12;
#X obj 20 49 list trim;
#X obj 20 21 r fromGUI;
#X obj 70 107 - 1;
#X obj 121 107 - 1;
#X obj 172 107 - 1;
#X obj 223 107 - 1;
#X obj 274 107 - 1;
#X obj 324 107 - 1;
#X obj 375 107 - 1;
#X obj 426 107 - 1;
#X obj 477 107 - 1;
#X obj 20 107 - 1;
#X obj 20 138 * 1;
#X obj 70 138 * 2;
#X obj 121 138 * 3;
#X obj 172 138 * 4;
#X obj 223 138 * 5;
#X obj 274 138 * 6;
#X obj 324 138 * 7;
#X obj 375 138 * 8;
#X obj 426 138 * 9;
#X obj 477 138 * 10;
#X obj 20 257 change;
#X obj 77 787 phasor~ 1;
#X obj 20 882 tabread4~ eq0, f 14;
#X obj 77 847 +~ 1;
#X obj 77 819 *~ 44097;
#X obj 20 667 sel 0, f 16;
#X obj 113 700 moses 0;
#X msg 21 787 set \$1;
#X obj 20 700 symbol eq0;
#X obj 47 740 makefilename eq%i;
#X obj 189 741 makefilename eq+%i;
#X obj 20 286 t f b;
#N canvas 0 22 450 300 soundfiles 0;
#X obj 305 27 table eq0 44100;
#X obj 235 58 table eq-1 44100;
#X obj 235 89 table eq-2 44100;
#X obj 235 119 table eq-3 44100;
#X obj 235 150 table eq-4 44100;
#X obj 365 150 table eq+4 44100;
#X obj 365 89 table eq+2 44100;
#X obj 365 58 table eq+1 44100;
#X obj 365 119 table eq+3 44100;
#X obj 237 180 table eq-5 44100;
#X obj 237 211 table eq-6 44100;
#X obj 237 241 table eq-7 44100;
#X obj 237 272 table eq-8 44100;
#X obj 237 305 table eq-9 44100;
#X obj 237 336 table eq-10 44100;
#X obj 367 336 table eq+10 44100;
#X obj 367 305 table eq+9 44100;
#X obj 367 272 table eq+8 44100;
#X obj 367 241 table eq+7 44100;
#X obj 367 211 table eq+6 44100;
#X obj 367 180 table eq+5 44100;
#X obj 59 277 soundfiler;
#X obj 24 122 f -10;
#X obj 65 122 + 1;
#X msg 59 246 read \$1.wav \$1;
#X obj 59 185 makefilename eq+%i;
#X obj 24 153 moses 1;
#X obj 24 213 makefilename eq%i;
#X msg 24 58 21;
#X obj 24 89 until;
#X obj 24 27 loadbang;
#X connect 22 0 23 0;
#X connect 22 0 26 0;
#X connect 23 0 22 1;
#X connect 24 0 21 0;
#X connect 25 0 24 0;
#X connect 26 0 27 0;
#X connect 26 1 25 0;
#X connect 27 0 24 0;
#X connect 28 0 29 0;
#X connect 29 0 22 0;
#X connect 30 0 28 0;
#X restore 98 21 pd soundfiles;
#X obj 44 960 *~;
#X obj 129 1010 line~;
#X msg 129 981 \$1 100;
#X obj 36 1000 dac~;
#X obj 129 953 dbtorms;
#X obj 629 298 random 21;
#X obj 629 331 - 10;
#N canvas 0 22 450 300 reset-eq-vis 0;
#X obj 25 153 s toGUI;
#X msg 25 80 list /eq1 set 1 \, list /eq2 set 1 \, list /eq3 set 1 \, list /eq4 set 1 \, list /eq5 set 1 \, list /eq6 set 1 \, list /eq7 set 1 \, list /eq8 set 1 \, list /eq9 set 1 \, list /eq10 set 1, f 33;
#X obj 75 31 loadbang;
#X obj 25 31 inlet;
#X connect 1 0 0 0;
#X connect 2 0 1 0;
#X connect 3 0 1 0;
#X restore 31 406 pd reset-eq-vis;
#X msg 814 368 list /vis-random-label \$1;
#X obj 129 894 route /volume /mute;
#N canvas 0 22 450 300 map 0;
#X obj 17 22 inlet;
#X obj 17 55 select 0 1 2 3 4 5 6 7 8 9, f 66;
#X msg 17 86 0;
#X msg 413 86 100;
#X msg 369 86 99;
#X msg 325 86 98;
#X msg 281 86 97;
#X msg 237 86 94;
#X msg 193 86 90;
#X msg 149 86 80;
#X msg 105 86 60;
#X msg 61 86 40;
#X obj 499 27 inlet;
#X obj 17 176 f, f 5;
#X obj 499 128 sel 1;
#X obj 499 86 == 0;
#X obj 545 144 s toGUI;
#X msg 545 116 list /volume enable \$1;
#X obj 87 464 s toGUI;
#X obj 87 293 sel 0;
#X obj 118 391 makefilename %i\ dB;
#X obj 87 361 makefilename -inf;
#X msg 87 424 list /vis-volume \$1;
#X obj 17 423 outlet;
#X obj 17 252 t f f;
#X obj 118 324 - 100;
#X connect 0 0 1 0 32.................G.........vA.........3.....;
#X connect 1 0 2 0 32.................F....7++++uA....+++++y.....;
#X connect 1 1 11 0 32.................F....D....fA....A....v.....;
#X connect 1 2 10 0 32.................F....D....fA....A....v.....;
#X connect 1 3 9 0 32.................F....D....fA....A....v.....;
#X connect 1 4 8 0 32.................F....D....fA....A....v.....;
#X connect 1 5 7 0 32.................F....D....fA....A....v.....;
#X connect 1 6 6 0 32.................F....D....fA....A....v.....;
#X connect 1 7 5 0 32.................F....D....fA....A....v.....;
#X connect 1 8 4 0 32.................F....D....fA....A....v.....;
#X connect 1 9 3 0 32.................F....D....fA....A....v.....;
#X connect 2 0 13 0 32.................i....H....vH....B....XD....;
#X connect 3 0 13 0 32.................d....Tm+++uG....04+++aD....;
#X connect 4 0 13 0 32.................d....Dp+++uG....g5+++aD....;
#X connect 5 0 13 0 32.................d....zr+++uG....M6+++aD....;
#X connect 6 0 13 0 32.................d....ju+++uG....46+++aD....;
#X connect 7 0 13 0 32.................d....Tx+++uG....k7+++aD....;
#X connect 8 0 13 0 32.................d....D0+++uG....Q8+++aD....;
#X connect 9 0 13 0 32.................d....z2+++uG....88+++aD....;
#X connect 10 0 13 0 32.................d....j5+++uG....o9+++aD....;
#X connect 11 0 13 0 32.................d....T8+++uG....U++++aD....;
#X connect 12 0 15 0;
#X connect 13 0 24 0 32.................c.........PG.........jC....;
#X connect 14 0 13 0 32.................a....rf++++F....K3+++mB....;
#X connect 14 1 24 0 32.................PA...3e+++OT....92+++WG....;
#X connect 15 0 14 0;
#X connect 15 0 17 0 32.................F....3B...fA....t....r.....;
#X connect 17 0 16 0;
#X connect 19 0 21 0;
#X connect 19 1 25 0;
#X connect 20 0 22 0;
#X connect 21 0 22 0;
#X connect 22 0 18 0;
#X connect 24 0 23 0;
#X connect 24 1 19 0;
#X connect 25 0 20 0;
#X restore 129 923 pd map;
#X obj 527 107 sel 1;
#X obj 629 368 f;
#X obj 708 330 sel 1;
#X obj 155 830 r fromGUI;
#X obj 708 298 == 0;
#X obj 629 402 f;
#X msg 459 286 list /bypass set 0;
#X obj 823 287 sel 0 1;
#X obj 772 435 s toGUI;
#X obj 788 251 == 0;
#N canvas 0 22 450 300 eq-maps 0;
#X obj 23 16 inlet;
#X obj 23 47 sel -10 -9 -8 -7 -6 -5 -4 -3 -2 -1 0 1 2 3 4 5 6 7 8 9 10, f 137;
#X obj 1101 1924 s toGUI;
#X msg 468 908 list /eq1 set 1 \, list /eq2 set 1 \, list /eq3 set 1 \, list /eq4 set 1 \, list /eq5 set 1 \, list /eq6 set 1 \, list /eq7 set 1 \, list /eq8 set 1 \, list /eq9 set 1 \, list /eq10 set 1, f 33;
#X msg 914 81 list /eq1 set 1 \, list /eq2 set 1 \, list /eq3 set 1 \, list /eq4 set 1 \, list /eq5 set 1 \, list /eq6 set 1 \, list /eq7 set 1 \, list /eq8 set 1 \, list /eq9 set 1 \, list /eq10 set 2, f 33;
#X msg 869 166 list /eq1 set 1 \, list /eq2 set 1 \, list /eq3 set 1 \, list /eq4 set 1 \, list /eq5 set 1 \, list /eq6 set 1 \, list /eq7 set 1 \, list /eq8 set 1 \, list /eq9 set 2 \, list /eq10 set 1, f 33;
#X msg 825 249 list /eq1 set 1 \, list /eq2 set 1 \, list /eq3 set 1 \, list /eq4 set 1 \, list /eq5 set 1 \, list /eq6 set 1 \, list /eq7 set 1 \, list /eq8 set 2 \, list /eq9 set 1 \, list /eq10 set 1, f 33;
#X msg 780 333 list /eq1 set 1 \, list /eq2 set 1 \, list /eq3 set 1 \, list /eq4 set 1 \, list /eq5 set 1 \, list /eq6 set 1 \, list /eq7 set 2 \, list /eq8 set 1 \, list /eq9 set 1 \, list /eq10 set 1, f 33;
#X msg 736 418 list /eq1 set 1 \, list /eq2 set 1 \, list /eq3 set 1 \, list /eq4 set 1 \, list /eq5 set 1 \, list /eq6 set 2 \, list /eq7 set 1 \, list /eq8 set 1 \, list /eq9 set 1 \, list /eq10 set 1, f 33;
#X msg 691 503 list /eq1 set 1 \, list /eq2 set 1 \, list /eq3 set 1 \, list /eq4 set 1 \, list /eq5 set 2 \, list /eq6 set 1 \, list /eq7 set 1 \, list /eq8 set 1 \, list /eq9 set 1 \, list /eq10 set 1, f 33;
#X msg 647 585 list /eq1 set 1 \, list /eq2 set 1 \, list /eq3 set 1 \, list /eq4 set 2 \, list /eq5 set 1 \, list /eq6 set 1 \, list /eq7 set 1 \, list /eq8 set 1 \, list /eq9 set 1 \, list /eq10 set 1, f 33;
#X msg 602 668 list /eq1 set 1 \, list /eq2 set 1 \, list /eq3 set 2 \, list /eq4 set 1 \, list /eq5 set 1 \, list /eq6 set 1 \, list /eq7 set 1 \, list /eq8 set 1 \, list /eq9 set 1 \, list /eq10 set 1, f 33;
#X msg 557 748 list /eq1 set 1 \, list /eq2 set 2 \, list /eq3 set 1 \, list /eq4 set 1 \, list /eq5 set 1 \, list /eq6 set 1 \, list /eq7 set 1 \, list /eq8 set 1 \, list /eq9 set 1 \, list /eq10 set 1, f 33;
#X msg 513 828 list /eq1 set 2 \, list /eq2 set 1 \, list /eq3 set 1 \, list /eq4 set 1 \, list /eq5 set 1 \, list /eq6 set 1 \, list /eq7 set 1 \, list /eq8 set 1 \, list /eq9 set 1 \, list /eq10 set 1, f 33;
#X msg 424 988 list /eq1 set 0 \, list /eq2 set 1 \, list /eq3 set 1 \, list /eq4 set 1 \, list /eq5 set 1 \, list /eq6 set 1 \, list /eq7 set 1 \, list /eq8 set 1 \, list /eq9 set 1 \, list /eq10 set 1, f 33;
#X msg 379 1068 list /eq1 set 1 \, list /eq2 set 0 \, list /eq3 set 1 \, list /eq4 set 1 \, list /eq5 set 1 \, list /eq6 set 1 \, list /eq7 set 1 \, list /eq8 set 1 \, list /eq9 set 1 \, list /eq10 set 1, f 33;
#X msg 333 1150 list /eq1 set 1 \, list /eq2 set 1 \, list /eq3 set 0 \, list /eq4 set 1 \, list /eq5 set 1 \, list /eq6 set 1 \, list /eq7 set 1 \, list /eq8 set 1 \, list /eq9 set 1 \, list /eq10 set 1, f 33;
#X msg 286 1230 list /eq1 set 1 \, list /eq2 set 1 \, list /eq3 set 1 \, list /eq4 set 0 \, list /eq5 set 1 \, list /eq6 set 1 \, list /eq7 set 1 \, list /eq8 set 1 \, list /eq9 set 1 \, list /eq10 set 1, f 33;
#X msg 245 1311 list /eq1 set 1 \, list /eq2 set 1 \, list /eq3 set 1 \, list /eq4 set 1 \, list /eq5 set 0 \, list /eq6 set 1 \, list /eq7 set 1 \, list /eq8 set 1 \, list /eq9 set 1 \, list /eq10 set 1, f 33;
#X msg 201 1389 list /eq1 set 1 \, list /eq2 set 1 \, list /eq3 set 1 \, list /eq4 set 1 \, list /eq5 set 1 \, list /eq6 set 0 \, list /eq7 set 1 \, list /eq8 set 1 \, list /eq9 set 1 \, list /eq10 set 1, f 33;
#X msg 156 1469 list /eq1 set 1 \, list /eq2 set 1 \, list /eq3 set 1 \, list /eq4 set 1 \, list /eq5 set 1 \, list /eq6 set 1 \, list /eq7 set 0 \, list /eq8 set 1 \, list /eq9 set 1 \, list /eq10 set 1, f 33;
#X msg 112 1547 list /eq1 set 1 \, list /eq2 set 1 \, list /eq3 set 1 \, list /eq4 set 1 \, list /eq5 set 1 \, list /eq6 set 1 \, list /eq7 set 1 \, list /eq8 set 0 \, list /eq9 set 1 \, list /eq10 set 1, f 33;
#X msg 67 1629 list /eq1 set 1 \, list /eq2 set 1 \, list /eq3 set 1 \, list /eq4 set 1 \, list /eq5 set 1 \, list /eq6 set 1 \, list /eq7 set 1 \, list /eq8 set 1 \, list /eq9 set 0 \, list /eq10 set 1, f 33;
#X msg 23 1708 list /eq1 set 1 \, list /eq2 set 1 \, list /eq3 set 1 \, list /eq4 set 1 \, list /eq5 set 1 \, list /eq6 set 1 \, list /eq7 set 1 \, list /eq8 set 1 \, list /eq9 set 1 \, list /eq10 set 0, f 33;
#X connect 0 0 1 0;
#X connect 1 0 23 0;
#X connect 1 1 22 0;
#X connect 1 2 21 0;
#X connect 1 3 20 0;
#X connect 1 4 19 0;
#X connect 1 5 18 0;
#X connect 1 6 17 0;
#X connect 1 7 16 0;
#X connect 1 8 15 0;
#X connect 1 9 14 0;
#X connect 1 10 3 0;
#X connect 1 11 13 0;
#X connect 1 12 12 0;
#X connect 1 13 11 0;
#X connect 1 14 10 0;
#X connect 1 15 9 0;
#X connect 1 16 8 0;
#X connect 1 17 7 0;
#X connect 1 18 6 0;
#X connect 1 19 5 0;
#X connect 1 20 4 0;
#X connect 3 0 2 0;
#X connect 4 0 2 0;
#X connect 5 0 2 0;
#X connect 6 0 2 0;
#X connect 7 0 2 0;
#X connect 8 0 2 0;
#X connect 9 0 2 0;
#X connect 10 0 2 0;
#X connect 11 0 2 0;
#X connect 12 0 2 0;
#X connect 13 0 2 0;
#X connect 14 0 2 0;
#X connect 15 0 2 0;
#X connect 16 0 2 0;
#X connect 17 0 2 0;
#X connect 18 0 2 0;
#X connect 19 0 2 0;
#X connect 20 0 2 0;
#X connect 21 0 2 0;
#X connect 22 0 2 0;
#X connect 23 0 2 0;
#X restore 680 561 pd eq-maps;
#X obj 129 867 list trim;
#X obj 680 499 f;
#X obj 680 443 spigot;
#X obj 733 456 sel 1;
#X obj 704 416 t f f;
#X obj 680 535 f;
#X obj 578 499 s reset-count;
#X obj 44 190 r reset-count;
#X msg 915 331 symbol TRAIN;
#X msg 814 331 symbol PLAY;
#X obj 459 356 spigot;
#X obj 238 419 -;
#X floatatom 633 455 5 0 0 0 - - - 12;
#N canvas 0 22 450 300 reset-eq-vis 0;
#X obj 25 153 s toGUI;
#X msg 25 80 list /eq1 set 1 \, list /eq2 set 1 \, list /eq3 set 1 \, list /eq4 set 1 \, list /eq5 set 1 \, list /eq6 set 1 \, list /eq7 set 1 \, list /eq8 set 1 \, list /eq9 set 1 \, list /eq10 set 1, f 33;
#X obj 75 31 loadbang;
#X obj 25 31 inlet;
#X connect 1 0 0 0;
#X connect 2 0 1 0;
#X connect 3 0 1 0;
#X restore 437 257 pd reset-eq-vis;
#X msg 44 220 set -1;
#X obj 375 528 sel 0;
#X obj 377 684 + 0;
#X obj 437 684 f;
#X msg 874 501 0;
#X obj 377 757 t b;
#X obj 345 867 symbol;
#X obj 681 667 f;
#X obj 719 667 + 1;
#X msg 378 561 1;
#X obj 409 561 abs;
#X obj 409 589 * -1;
#X obj 520 610 t f f;
#X obj 679 107 sel 1;
#X msg 681 138 0;
#X obj 694 948 s toGUI;
#X msg 694 904 list /tryouts \$1;
#X msg 524 819 list /score \$1;
#X msg 522 867 list /answer \$1;
#X msg 943 443 list /tryouts highlight \$1 \, list /score highlight \$1 \, list /answer highlight \$1, f 22;
#X obj 20 76 route /eq1 /eq2 /eq3 /eq4 /eq5 /eq6 /eq7 /eq8 /eq9 /eq10 /new /bypass /vis-random /flat, f 105;
#X obj 520 773 makefilename %i;
#X obj 694 867 makefilename %i\ |;
#X connect 0 0 91 0;
#X connect 1 0 0 0;
#X connect 2 0 13 0;
#X connect 3 0 14 0;
#X connect 4 0 15 0;
#X connect 5 0 16 0;
#X connect 6 0 17 0;
#X connect 7 0 18 0;
#X connect 8 0 19 0;
#X connect 9 0 20 0;
#X connect 10 0 21 0;
#X connect 11 0 12 0;
#X connect 12 0 22 0;
#X connect 13 0 22 0 32.................U....77+++eE....O++++yC....;
#X connect 14 0 22 0 32.................T....v4+++OE....b9+++yC....;
#X connect 15 0 22 0 32.................T....j1+++OE....o8+++yC....;
#X connect 16 0 22 0 32.................T....Xy+++OE....17+++yC....;
#X connect 17 0 22 0 32.................T....Lv+++OE....C7+++yC....;
#X connect 18 0 22 0 32.................T....Ds+++OE....Q6+++yC....;
#X connect 19 0 22 0 32.................U....3o+++eE....d5+++yC....;
#X connect 20 0 22 0 32.................U....rl+++eE....q4+++yC....;
#X connect 21 0 22 0 32.................T....fi+++OE....33+++yC....;
#X connect 22 0 33 0;
#X connect 23 0 26 0;
#X connect 24 0 35 0;
#X connect 25 0 24 0;
#X connect 26 0 25 0;
#X connect 27 0 30 0;
#X connect 27 1 28 0;
#X connect 28 0 31 0;
#X connect 28 1 32 0;
#X connect 29 0 24 0;
#X connect 30 0 29 0;
#X connect 31 0 29 0;
#X connect 31 0 77 1;
#X connect 32 0 29 0;
#X connect 32 0 77 1;
#X connect 33 0 67 0;
#X connect 33 0 68 0;
#X connect 33 1 42 0;
#X connect 35 0 38 0;
#X connect 35 0 38 1;
#X connect 36 0 35 1 48.................M....f9+++eC....n++++O6++++s++++y9+++e6+++Ou++++;
#X connect 37 0 36 0;
#X connect 39 0 37 0;
#X connect 40 0 41 0;
#X connect 41 0 47 0;
#X connect 43 0 54 0;
#X connect 44 0 45 0;
#X connect 44 1 45 1;
#X connect 45 0 39 0;
#X connect 46 0 52 0;
#X connect 46 0 70 0;
#X connect 46 0 40 0;
#X connect 46 0 78 0;
#X connect 47 0 51 0;
#X connect 47 0 68 1;
#X connect 48 0 47 0;
#X connect 48 1 51 0;
#X connect 49 0 57 0;
#X connect 50 0 48 0;
#X connect 51 0 58 1;
#X connect 51 0 63 0;
#X connect 51 0 69 0;
#X connect 51 0 27 0;
#X connect 51 0 59 0;
#X connect 52 0 54 0;
#X connect 53 0 66 0;
#X connect 53 0 75 0;
#X connect 53 1 65 0;
#X connect 55 0 53 0;
#X connect 55 0 67 1;
#X connect 55 0 90 0;
#X connect 55 0 61 0;
#X connect 57 0 44 0;
#X connect 58 0 62 0;
#X connect 59 0 58 0;
#X connect 60 0 58 0;
#X connect 60 1 62 0;
#X connect 61 0 59 1;
#X connect 61 1 60 0;
#X connect 62 0 56 0;
#X connect 64 0 71 0;
#X connect 65 0 43 0;
#X connect 66 0 43 0;
#X connect 67 0 47 0;
#X connect 68 0 72 0;
#X connect 71 0 22 0;
#X connect 72 0 80 0;
#X connect 72 1 81 0;
#X connect 73 0 74 0;
#X connect 73 0 76 0;
#X connect 73 0 92 0;
#X connect 74 0 73 1;
#X connect 75 0 78 0;
#X connect 75 0 83 0;
#X connect 76 0 77 0;
#X connect 77 0 89 0;
#X connect 78 0 79 0;
#X connect 78 0 93 0;
#X connect 79 0 78 1;
#X connect 80 0 73 0;
#X connect 81 0 82 0;
#X connect 82 0 73 0;
#X connect 83 0 73 0;
#X connect 83 1 74 0;
#X connect 84 0 85 0;
#X connect 85 0 33 0;
#X connect 87 0 86 0;
#X connect 88 0 86 0;
#X connect 89 0 86 0;
#X connect 90 0 54 0;
#X connect 91 0 11 0;
#X connect 91 1 2 0;
#X connect 91 2 3 0;
#X connect 91 3 4 0;
#X connect 91 4 5 0;
#X connect 91 5 6 0;
#X connect 91 6 7 0;
#X connect 91 7 8 0;
#X connect 91 8 9 0;
#X connect 91 9 10 0;
#X connect 91 10 46 0;
#X connect 91 11 50 0;
#X connect 91 12 55 0;
#X connect 91 13 84 0;
#X connect 92 0 88 0;
#X connect 93 0 87 0;
