#N canvas 847 181 587 468 12;
#X obj 20 49 list trim;
#X obj 20 76 route /eq32 /eq64 /eq125 /eq250 /eq500 /eq1000 /eq2000 /eq4000 /eq8000 /eq16000, f 76;
#X obj 20 21 r fromGUI;
#X obj 70 107 - 1;
#X obj 121 107 - 1;
#X obj 172 107 - 1;
#X obj 223 107 - 1;
#X obj 274 107 - 1;
#X obj 324 107 - 1;
#X obj 375 107 - 1;
#X obj 426 107 - 1;
#X obj 477 107 - 1;
#X obj 20 107 - 1;
#X obj 714 59 table eq0 44100;
#X obj 644 90 table eq-1 44100;
#X obj 644 121 table eq-2 44100;
#X obj 644 151 table eq-3 44100;
#X obj 644 182 table eq-4 44100;
#X obj 774 182 table eq+4 44100;
#X obj 774 121 table eq+2 44100;
#X obj 774 90 table eq+1 44100;
#X obj 774 151 table eq+3 44100;
#X obj 20 138 * 1;
#X obj 70 138 * 2;
#X obj 121 138 * 3;
#X obj 172 138 * 4;
#X obj 223 138 * 5;
#X obj 274 138 * 6;
#X obj 324 138 * 7;
#X obj 375 138 * 8;
#X obj 426 138 * 9;
#X obj 477 138 * 10;
#X obj 646 212 table eq-5 44100;
#X obj 646 243 table eq-6 44100;
#X obj 646 273 table eq-7 44100;
#X obj 646 304 table eq-8 44100;
#X obj 646 337 table eq-9 44100;
#X obj 646 368 table eq-10 44100;
#X obj 776 368 table eq+10 44100;
#X obj 776 337 table eq+9 44100;
#X obj 776 304 table eq+8 44100;
#X obj 776 273 table eq+7 44100;
#X obj 776 243 table eq+6 44100;
#X obj 776 212 table eq+5 44100;
#X obj 20 232 change;
#X obj 77 383 phasor~ 1;
#X obj 20 478 tabread4~ eq0, f 14;
#X obj 77 443 +~ 1;
#X obj 77 415 *~ 44097;
#X obj 20 528 dac~;
#X obj 20 263 sel 0, f 16;
#X obj 113 296 moses 0;
#X msg 21 383 set \$1;
#X obj 20 296 symbol eq0;
#X obj 47 336 makefilename eq%i;
#X obj 189 337 makefilename eq+%i;
#X obj 492 536 soundfiler;
#X obj 486 337 f -10;
#X obj 527 337 + 1;
#X msg 492 495 read \$1.wav \$1;
#X obj 526 415 makefilename eq+%i;
#X obj 491 383 moses 1;
#X obj 491 455 makefilename eq%i;
#X msg 486 263 21;
#X obj 486 298 until;
#X msg 547 272 -10;
#X obj 506 234 loadbang;
#X connect 0 0 1 0;
#X connect 1 0 12 0;
#X connect 1 1 3 0;
#X connect 1 2 4 0;
#X connect 1 3 5 0;
#X connect 1 4 6 0;
#X connect 1 5 7 0;
#X connect 1 6 8 0;
#X connect 1 7 9 0;
#X connect 1 8 10 0;
#X connect 1 9 11 0;
#X connect 2 0 0 0;
#X connect 3 0 23 0;
#X connect 4 0 24 0;
#X connect 5 0 25 0;
#X connect 6 0 26 0;
#X connect 7 0 27 0;
#X connect 8 0 28 0;
#X connect 9 0 29 0;
#X connect 10 0 30 0;
#X connect 11 0 31 0;
#X connect 12 0 22 0;
#X connect 22 0 44 0;
#X connect 23 0 44 0;
#X connect 24 0 44 0;
#X connect 25 0 44 0;
#X connect 26 0 44 0;
#X connect 27 0 44 0;
#X connect 28 0 44 0;
#X connect 29 0 44 0;
#X connect 30 0 44 0;
#X connect 31 0 44 0;
#X connect 44 0 50 0;
#X connect 45 0 48 0;
#X connect 46 0 49 0;
#X connect 46 0 49 1;
#X connect 47 0 46 0;
#X connect 48 0 47 0;
#X connect 50 0 53 0;
#X connect 50 1 51 0;
#X connect 51 0 54 0;
#X connect 51 1 55 0;
#X connect 52 0 46 0;
#X connect 53 0 52 0;
#X connect 54 0 52 0;
#X connect 55 0 52 0;
#X connect 57 0 58 0;
#X connect 57 0 61 0;
#X connect 58 0 57 1;
#X connect 59 0 56 0;
#X connect 60 0 59 0;
#X connect 61 0 62 0;
#X connect 61 1 60 0;
#X connect 62 0 59 0;
#X connect 63 0 64 0;
#X connect 64 0 57 0;
#X connect 65 0 57 1;
#X connect 66 0 63 0;
