#N canvas 0 23 1712 1126 10;
#X obj 90 551 soundfiler;
#X obj 41 41 receive fromGUI;
#X obj 41 62 list trim;
#X obj 29 353 send toGUI;
#X obj 552 28 receive fromGUI;
#X obj 552 48 list trim;
#X obj 40 253 t f b, f 37;
#X obj 58 413 symbol sound1.wav;
#X obj 99 438 symbol sound2.wav;
#X obj 140 460 symbol sound3.wav;
#X obj 181 485 symbol sound4.wav;
#X obj 87 683 receive fromGUI;
#X obj 87 704 list trim;
#X obj 87 745 route range;
#X obj 87 765 unpack 0 0;
#X obj 123 806 swap;
#X obj 123 829 -, f 4;
#X obj 552 93 sel 1;
#X obj 117 617 s dur;
#X obj 123 855 s dur;
#X obj 73 829 s ssamp;
#X obj 171 806 s esamp;
#X obj 87 786 t f f;
#X obj 90 660 s ssamp;
#X msg 90 639 0;
#X obj 40 276 t b f b;
#X obj 90 593 t b f;
#X obj 90 572 t f f, f 11;
#X obj 153 594 s esamp;
#X obj 144 786 t f f;
#X msg 40 300 list /myTable refresh;
#X msg 91 528 read -resize \$1 /myTable;
#X obj 513 503 tabread4~ /myTable;
#X obj 142 41 table /myTable 44100;
#X msg 81 322 list /myTable clearSelection;
#X obj 87 725 route /myTable;
#X obj 40 81 route /file1 /file2 /file3 /file4;
#X msg 40 108 1;
#X msg 88 109 2;
#X msg 137 109 3;
#X msg 186 109 4;
#X obj 58 382 sel 1 2 3 4, f 28;
#X obj 552 70 route /trigger /loop, f 31;
#X obj 714 253 receive fromGUI;
#X obj 1103 1012 dac~, f 17;
#X obj 714 274 list trim;
#X obj 700 856 expr~ atan($v1);
#X obj 700 878 *~ 0.63662;
#X obj 715 449 pow 4;
#X obj 725 515 send toGUI;
#X obj 715 545 delread~ delay 0;
#X obj 700 788 +~;
#X obj 775 693 pow 0.5;
#X msg 730 722 \$1 100;
#X obj 730 744 line~;
#X obj 715 766 *~;
#X msg 783 718 list /vis-feedback \$1;
#X obj 725 403 loadbang;
#X obj 513 152 phasor~;
#X msg 552 132 0;
#X obj 513 430 *~ 4410;
#X obj 552 407 r dur;
#X obj 513 478 +~;
#X obj 528 454 r ssamp;
#X msg 353 58 44100 \$1;
#X obj 353 81 /;
#X obj 353 39 r dur;
#X msg 259 278 0, f 2;
#X obj 259 300 s reset-table;
#X obj 552 112 t b b;
#X obj 526 29 bng 15 250 50 0 empty empty empty 17 7 0 10 -262144 -1
-1;
#X floatatom 543 478 5 0 0 0 - - -;
#X obj 606 253 delay;
#X obj 642 208 / 44.1;
#X obj 642 187 r dur;
#X obj 607 232 f;
#X msg 573 302 0;
#X obj 528 384 line~;
#X obj 513 404 *~;
#X msg 579 178 1;
#X obj 529 339 f;
#X obj 611 276 r reset-table;
#X msg 528 361 \$1 2;
#X obj 627 166 spigot 0;
#X obj 672 124 - 1;
#X obj 672 146 abs;
#X obj 611 118 sel 0;
#X obj 642 93 t f f;
#X obj 694 42 tgl 15 0 empty empty empty 17 7 0 10 -262144 -1 -1 0
1;
#X msg 949 792 \$1 100;
#X obj 949 814 line~;
#X obj 700 835 *~, f 42;
#X obj 783 738 send toGUI;
#X obj 785 647 loadbang;
#X obj 774 583 receive fromGUI;
#X obj 774 604 list trim;
#X obj 775 625 route /feedback;
#X obj 715 295 route /delay;
#X obj 957 770 send toGUI;
#X obj 975 635 loadbang;
#X obj 957 569 receive fromGUI;
#X obj 957 590 list trim;
#X obj 949 725 + 1;
#X msg 970 662 0;
#X msg 957 750 list /vis-distortion \$1;
#X obj 715 380 f, f 11;
#X obj 715 335 t b f, f 11;
#X obj 715 315 change -782;
#X obj 715 357 delay 200, f 14;
#X msg 725 493 list /vis-delay \$1 ms.;
#X msg 725 425 0;
#X obj 713 811 delwrite~ delay 5000;
#X obj 715 470 * 5000;
#X obj 936 641 pow 2;
#X msg 785 670 0;
#X obj 1118 272 adc~, f 14;
#X obj 1274 31 receive fromGUI;
#X obj 1274 52 list trim;
#X obj 1273 71 route /rec;
#X msg 1429 228 0, f 2;
#X obj 1429 250 s reset-table;
#X obj 1106 306 tabwrite~ /myTable;
#X obj 1281 341 s /myTable;
#X obj 1251 135 timer;
#X obj 1377 203 t b b b;
#X obj 1273 93 sel 1 0;
#X obj 1251 161 * 44.1;
#X msg 1290 212 stop;
#X msg 1281 317 resize \$1;
#X msg 1341 278 441000;
#X obj 1390 392 send toGUI;
#X msg 1414 311 list /myTable clearSelection;
#X obj 1387 237 t b b;
#X msg 1115 351 list /myTable refresh;
#X obj 1251 185 t b f b;
#X obj 1007 350 s dur;
#X obj 980 393 s ssamp;
#X msg 980 372 0;
#X obj 980 326 t b f;
#X obj 980 305 t f f, f 11;
#X obj 1043 327 s esamp;
#X obj 1246 622 receive fromSystem;
#X obj 1246 644 list trim;
#X obj 1246 666 route /tilts;
#X obj 1244 728 unpack, f 12;
#X obj 1246 769 * 0.5;
#X obj 1246 791 + 0.5;
#X obj 1246 899 line~;
#X msg 1246 879 \$1 20;
#X obj 1246 818 *;
#X obj 1458 564 receive fromGUI;
#X obj 1458 585 list trim;
#X obj 958 611 route /distortion;
#X obj 1459 606 route /sensors;
#X obj 1246 697 spigot 0, f 36;
#X obj 1316 790 * 5;
#X obj 1316 811 - 2;
#X obj 1316 860 pow;
#X msg 1316 835 2 \$1;
#X obj 1323 891 s new-speed;
#X obj 375 114 r new-speed;
#X obj 375 137 t b f;
#X obj 369 162 * 1;
#X obj 1493 683 sel 0;
#X obj 1459 630 t f f;
#X obj 1505 812 s new-speed;
#X obj 1176 968 *~;
#X obj 1409 738 loadbang;
#X msg 1461 782 1;
#X msg 1503 777 1;
#X obj 949 702 * 100;
#X connect 0 0 27 0;
#X connect 1 0 2 0;
#X connect 2 0 36 0;
#X connect 4 0 5 0;
#X connect 5 0 42 0;
#X connect 6 0 25 0;
#X connect 6 1 67 0;
#X connect 7 0 31 0;
#X connect 8 0 31 0;
#X connect 9 0 31 0;
#X connect 10 0 31 0;
#X connect 11 0 12 0;
#X connect 12 0 35 0;
#X connect 13 0 14 0;
#X connect 14 0 22 0;
#X connect 14 1 29 0;
#X connect 15 0 16 0;
#X connect 15 1 16 1;
#X connect 16 0 19 0;
#X connect 17 0 69 0;
#X connect 22 0 20 0;
#X connect 22 1 15 0;
#X connect 24 0 23 0;
#X connect 25 0 30 0;
#X connect 25 1 41 0;
#X connect 25 2 34 0;
#X connect 26 0 24 0;
#X connect 26 1 18 0;
#X connect 27 0 26 0;
#X connect 27 1 28 0;
#X connect 29 0 15 1;
#X connect 29 1 21 0;
#X connect 30 0 3 0;
#X connect 31 0 0 0;
#X connect 32 0 51 0;
#X connect 34 0 3 0;
#X connect 35 0 13 0;
#X connect 36 0 37 0;
#X connect 36 1 38 0;
#X connect 36 2 39 0;
#X connect 36 3 40 0;
#X connect 37 0 6 0;
#X connect 38 0 6 0;
#X connect 39 0 6 0;
#X connect 40 0 6 0;
#X connect 41 0 7 0;
#X connect 41 1 8 0;
#X connect 41 2 9 0;
#X connect 41 3 10 0;
#X connect 42 0 17 0;
#X connect 42 1 87 0;
#X connect 43 0 45 0;
#X connect 45 0 97 0;
#X connect 46 0 47 0;
#X connect 47 0 166 0;
#X connect 48 0 112 0;
#X connect 50 0 55 0;
#X connect 51 0 91 0;
#X connect 51 0 111 0;
#X connect 52 0 53 0;
#X connect 52 0 56 0;
#X connect 53 0 54 0;
#X connect 54 0 55 1;
#X connect 55 0 51 1;
#X connect 56 0 92 0;
#X connect 57 0 110 0;
#X connect 58 0 78 0;
#X connect 59 0 58 1;
#X connect 60 0 62 0;
#X connect 61 0 60 1;
#X connect 62 0 32 0;
#X connect 63 0 62 1;
#X connect 63 0 71 0;
#X connect 64 0 65 0;
#X connect 65 0 162 0;
#X connect 66 0 64 0;
#X connect 67 0 68 0;
#X connect 69 0 59 0;
#X connect 69 1 79 0;
#X connect 69 1 83 0;
#X connect 70 0 69 0;
#X connect 72 0 76 0;
#X connect 73 0 75 1;
#X connect 74 0 73 0;
#X connect 75 0 72 0;
#X connect 76 0 80 0;
#X connect 77 0 78 1;
#X connect 78 0 60 0;
#X connect 79 0 80 0;
#X connect 80 0 82 0;
#X connect 81 0 76 0;
#X connect 82 0 77 0;
#X connect 83 0 75 0;
#X connect 84 0 85 0;
#X connect 85 0 83 1;
#X connect 86 0 76 0;
#X connect 87 0 86 0;
#X connect 87 1 84 0;
#X connect 88 0 87 0;
#X connect 89 0 90 0;
#X connect 90 0 91 1;
#X connect 91 0 46 0;
#X connect 93 0 114 0;
#X connect 94 0 95 0;
#X connect 95 0 96 0;
#X connect 96 0 52 0;
#X connect 97 0 107 0;
#X connect 99 0 103 0;
#X connect 100 0 101 0;
#X connect 101 0 152 0;
#X connect 102 0 89 0;
#X connect 102 0 104 0;
#X connect 103 0 170 0;
#X connect 104 0 98 0;
#X connect 105 0 48 0;
#X connect 106 0 108 0;
#X connect 106 1 105 1;
#X connect 107 0 106 0;
#X connect 108 0 105 0;
#X connect 109 0 49 0;
#X connect 110 0 48 0;
#X connect 112 0 109 0;
#X connect 112 0 50 0;
#X connect 113 0 170 0;
#X connect 114 0 52 0;
#X connect 115 0 121 0;
#X connect 116 0 117 0;
#X connect 117 0 118 0;
#X connect 118 0 125 0;
#X connect 119 0 120 0;
#X connect 123 0 126 0;
#X connect 124 0 121 0;
#X connect 124 1 132 0;
#X connect 124 2 119 0;
#X connect 125 0 124 0;
#X connect 125 0 123 0;
#X connect 125 1 123 1;
#X connect 126 0 134 0;
#X connect 127 0 121 0;
#X connect 128 0 122 0;
#X connect 129 0 128 0;
#X connect 131 0 130 0;
#X connect 132 0 129 0;
#X connect 132 1 131 0;
#X connect 133 0 130 0;
#X connect 134 0 133 0;
#X connect 134 1 128 0;
#X connect 134 1 139 0;
#X connect 134 2 127 0;
#X connect 137 0 136 0;
#X connect 138 0 137 0;
#X connect 138 1 135 0;
#X connect 139 0 138 0;
#X connect 139 1 140 0;
#X connect 141 0 142 0;
#X connect 142 0 143 0;
#X connect 143 0 154 0;
#X connect 144 0 145 0;
#X connect 144 1 155 0;
#X connect 145 0 146 0;
#X connect 146 0 149 1;
#X connect 146 0 149 0;
#X connect 147 0 166 1;
#X connect 148 0 147 0;
#X connect 149 0 148 0;
#X connect 150 0 151 0;
#X connect 151 0 153 0;
#X connect 152 0 113 0;
#X connect 153 0 164 0;
#X connect 154 0 144 0;
#X connect 155 0 156 0;
#X connect 156 0 158 0;
#X connect 157 0 159 0;
#X connect 158 0 157 0;
#X connect 160 0 161 0;
#X connect 161 0 162 0;
#X connect 161 1 162 1;
#X connect 162 0 58 0;
#X connect 163 0 169 0;
#X connect 163 0 168 0;
#X connect 164 0 163 0;
#X connect 164 1 154 1;
#X connect 166 0 44 1;
#X connect 166 0 44 0;
#X connect 167 0 168 0;
#X connect 168 0 148 0;
#X connect 169 0 165 0;
#X connect 170 0 102 0;
