#N canvas 904 25 789 923 12;
#X obj 14 611 *~;
#X obj 32 526 line~;
#X msg 32 499 \$1 30;
#X obj 229 12 receive fromGUI;
#X obj 229 33 list trim;
#X obj 229 83 s vol;
#X obj 75 251 send toGUI;
#X obj 32 315 r vol;
#X obj 7 750 dac~;
#X msg 35 426 0;
#X obj 522 83 s switch;
#X obj 32 636 r switch;
#X obj 32 695 line~;
#X msg 32 666 \$1 30;
#X obj 14 720 *~;
#X obj 326 83 s freq;
#X obj 13 12 r freq;
#X obj 272 377 /;
#X msg 272 350 1 \$1;
#X text 287 435 amplitude = 1/h;
#X text 286 400 SAWTOOTH;
#X text 287 417 even and odd harmonics;
#X obj 462 449 /;
#X msg 462 424 1 \$1;
#X text 511 416 SQUARE;
#X text 511 435 only odd harmonics;
#X obj 482 377 mod 2;
#X obj 462 350 t f f;
#X obj 462 400 *, f 5;
#X text 510 454 amplitude = odd(1/h);
#X text 704 587 TRIANGLE;
#N canvas 542 108 246 467 create-waveform 0;
#X obj 37 471 send waveform;
#X obj 84 100 t l;
#X obj 26 182 list length;
#X obj 26 253 list, f 13;
#X obj 26 159 t l l, f 13;
#X obj 26 206 ==, f 21;
#X obj 26 229 sel 1;
#X obj 26 370 list trim;
#X obj 26 130 list prepend;
#X obj 26 335 list append, f 16;
#X obj 26 277 t b l, f 16;
#X obj 26 24 inlet;
#X obj 138 50 t b f;
#X obj 138 23 receive nh;
#X msg 26 307 sinesum 256;
#X msg 26 437 normalize;
#X obj 26 402 t b a;
#X connect 1 0 8 1;
#X connect 2 0 5 0;
#X connect 3 0 10 0;
#X connect 4 0 2 0;
#X connect 4 1 3 1;
#X connect 5 0 6 0;
#X connect 6 0 3 0;
#X connect 7 0 16 0;
#X connect 8 0 1 0;
#X connect 8 0 4 0;
#X connect 9 0 7 0;
#X connect 10 0 14 0;
#X connect 10 1 9 1;
#X connect 11 0 8 0;
#X connect 12 0 8 1;
#X connect 12 1 5 1;
#X connect 13 0 12 0;
#X connect 14 0 9 0;
#X connect 15 0 0 0;
#X connect 16 0 15 0;
#X connect 16 1 0 0;
#X restore 272 632 pd create-waveform;
#X text 703 606 amplitude = odd(1/hn^2);
#X obj 654 504 /;
#X msg 654 479 1 \$1;
#X obj 674 374 mod 2;
#X obj 651 400 *, f 5;
#X obj 654 454 *;
#X obj 651 345 t f f;
#X obj 651 428 t f f f;
#X obj 703 454 mod 4;
#X obj 704 480 == 1;
#X obj 654 579 * -1;
#X obj 704 504 sel 1 0;
#X msg 700 529 -1;
#X msg 740 529 1;
#X text 703 625 only odd harmonics \, with phase shift;
#X obj 423 187 symbol;
#N canvas 0 23 279 304 number-of-harmonics 0;
#X obj 48 95 until;
#X msg 66 142 1;
#X obj 49 70 t f b f, f 18;
#X obj 48 168 f 1;
#X obj 89 167 + 1;
#X obj 49 13 inlet;
#X obj 48 200 outlet;
#X obj 172 200 send nh;
#X obj 49 43 f;
#X obj 174 12 inlet;
#X connect 0 0 3 0;
#X connect 1 0 3 1;
#X connect 2 0 0 0;
#X connect 2 1 1 0;
#X connect 2 2 7 0;
#X connect 3 0 4 0;
#X connect 3 0 6 0;
#X connect 4 0 3 1;
#X connect 5 0 8 0;
#X connect 8 0 2 0;
#X connect 9 0 8 0;
#X restore 272 244 pd number-of-harmonics;
#X floatatom 272 223 5 0 0 0 - - - 0;
#X obj 270 126 loadbang;
#X obj 272 268 pack f s, f 26;
#X msg 272 292 \$2 \$1;
#X obj 423 219 t b s;
#X msg 842 345 \; waveform sinesum 256 1 \; waveform normalize;
#X obj 272 658 table waveform 259;
#X obj 13 288 tabosc4~ waveform;
#X obj 229 56 route /volume /freq /shape /switch, f 59;
#X obj 424 83 sel 0 1 2 3;
#X obj 13 64 + 50;
#X obj 13 36 * 750;
#X obj 13 152 line~;
#X msg 13 122 \$1 20;
#X obj 75 96 int;
#X msg 270 197 13;
#X msg 75 126 list /vis_freq \$1 Hz.;
#X obj 474 244 send toGUI;
#X msg 473 217 list /vis_shape \$1;
#X msg 423 145 sine;
#X obj 270 153 t b b;
#X obj 138 639 send toGUI;
#X msg 137 612 list /vis_vol \$1;
#X obj 137 585 int;
#X obj 272 317 route saw square triang sine, f 112;
#X obj 137 559 * 100;
#X obj 32 576 *~;
#X msg 466 145 triang;
#X obj 33 400 moses 0.001;
#X obj 76 12 loadbang;
#X msg 516 145 square;
#X msg 574 145 saw;
#X msg 78 36 440;
#X obj 52 345 loadbang;
#X msg 54 369 0.5;
#X msg 97 182 list /freq 0.521 \, list /volume 0.5, f 16;
#X connect 0 0 14 0;
#X connect 1 0 75 1;
#X connect 1 0 75 0;
#X connect 2 0 1 0;
#X connect 3 0 4 0;
#X connect 4 0 57 0;
#X connect 7 0 77 0;
#X connect 9 0 2 0;
#X connect 9 0 74 0;
#X connect 11 0 13 0;
#X connect 12 0 14 1;
#X connect 13 0 12 0;
#X connect 14 0 8 0;
#X connect 14 0 8 1;
#X connect 16 0 60 0;
#X connect 17 0 31 0;
#X connect 18 0 17 0;
#X connect 22 0 31 0;
#X connect 23 0 22 0;
#X connect 26 0 28 1;
#X connect 27 0 28 0;
#X connect 27 1 26 0;
#X connect 28 0 23 0;
#X connect 33 0 42 0;
#X connect 34 0 33 0;
#X connect 35 0 36 1;
#X connect 36 0 39 0;
#X connect 37 0 34 0;
#X connect 38 0 36 0;
#X connect 38 1 35 0;
#X connect 39 0 37 0;
#X connect 39 1 37 1;
#X connect 39 2 40 0;
#X connect 40 0 41 0;
#X connect 41 0 43 0;
#X connect 42 0 31 0;
#X connect 43 0 44 0;
#X connect 43 1 45 0;
#X connect 44 0 42 1;
#X connect 45 0 42 1;
#X connect 47 0 53 0;
#X connect 47 0 67 0;
#X connect 48 0 51 0;
#X connect 49 0 48 0;
#X connect 50 0 69 0;
#X connect 51 0 52 0;
#X connect 52 0 73 0;
#X connect 53 0 48 1;
#X connect 53 1 51 1;
#X connect 56 0 0 0;
#X connect 57 0 5 0;
#X connect 57 1 15 0;
#X connect 57 2 58 0;
#X connect 57 3 10 0;
#X connect 58 0 68 0;
#X connect 58 1 76 0;
#X connect 58 2 79 0;
#X connect 58 3 80 0;
#X connect 59 0 62 0;
#X connect 59 0 63 0 32.................G....3C...vA....9....z.....;
#X connect 60 0 59 0;
#X connect 61 0 56 0;
#X connect 62 0 61 0;
#X connect 63 0 65 0;
#X connect 64 0 49 0;
#X connect 65 0 6 0;
#X connect 67 0 66 0;
#X connect 68 0 47 0;
#X connect 69 0 64 0;
#X connect 69 0 84 0;
#X connect 69 1 68 0;
#X connect 71 0 70 0;
#X connect 72 0 71 0;
#X connect 73 0 18 0;
#X connect 73 1 27 0;
#X connect 73 2 38 0;
#X connect 73 3 54 0;
#X connect 74 0 72 0;
#X connect 75 0 0 1;
#X connect 76 0 47 0;
#X connect 77 0 9 0;
#X connect 77 1 2 0 32.................EA...v6+++eQ....79+++CE....;
#X connect 77 1 74 0;
#X connect 78 0 81 0;
#X connect 79 0 47 0;
#X connect 80 0 47 0;
#X connect 81 0 63 0;
#X connect 81 0 61 0;
#X connect 82 0 83 0;
#X connect 83 0 77 0;
#X connect 84 0 6 0;
