#N canvas 817 155 182 374 10;
#X obj 28 22 receive fromSystem;
#X obj 28 44 list trim;
#X obj 28 66 route /tilts;
#X obj 28 88 unpack, f 12;
#X obj 28 109 * 0.5;
#X obj 28 131 + 0.5;
#X obj 97 110 * 0.5;
#X obj 97 131 + 0.5;
#X obj 97 152 - 1;
#X obj 97 173 abs;
#X obj 97 276 osc~;
#X obj 97 256 line~;
#X msg 97 236 \$1 20;
#X obj 97 194 * 900;
#X obj 97 215 + 100;
#X obj 28 298 *~, f 12;
#X obj 28 325 dac~, f 6;
#X obj 28 199 line~;
#X msg 28 179 \$1 20;
#X obj 28 158 *;
#X connect 0 0 1 0;
#X connect 1 0 2 0;
#X connect 2 0 3 0;
#X connect 3 0 4 0;
#X connect 3 1 6 0;
#X connect 4 0 5 0;
#X connect 5 0 19 1;
#X connect 5 0 19 0;
#X connect 6 0 7 0;
#X connect 7 0 8 0;
#X connect 8 0 9 0;
#X connect 9 0 13 0;
#X connect 10 0 15 1;
#X connect 11 0 10 0;
#X connect 12 0 11 0;
#X connect 13 0 14 0;
#X connect 14 0 12 0;
#X connect 15 0 16 1;
#X connect 15 0 16 0;
#X connect 17 0 15 0;
#X connect 18 0 17 0;
#X connect 19 0 18 0;
