#N canvas 1059 420 418 414 10;
#X obj 150 35 loadbang;
#X obj 276 116 delay;
#X obj 276 138 tgl 15 0 empty empty empty 17 7 0 10 -262144 -1 -1 1
1;
#X obj 322 116 t b;
#X obj 276 91 random 1000;
#X obj 43 129 random 1000;
#X obj 119 209 random 1000;
#X obj 118 233 +, f 14;
#X obj 118 255 delay;
#X obj 43 187 t f b f, f 26;
#X obj 276 182 s toSystem;
#X obj 43 309 s toSystem;
#X msg 43 287 list /vibrate \$1;
#X msg 276 159 list /flash \$1;
#X connect 0 0 4 0;
#X connect 0 0 5 0;
#X connect 1 0 3 0;
#X connect 1 0 2 0;
#X connect 2 0 13 0;
#X connect 3 0 4 0;
#X connect 4 0 1 0;
#X connect 5 0 9 0;
#X connect 6 0 7 0;
#X connect 7 0 8 0;
#X connect 8 0 5 0;
#X connect 9 0 12 0;
#X connect 9 1 6 0;
#X connect 9 2 7 1;
#X connect 12 0 11 0;
#X connect 13 0 10 0;
