#N canvas 281 48 1100 478 12;
#X obj 37 16 r fromGUI;
#X obj 37 44 list trim;
#X floatatom 38 101 5 0 0 0 - - -;
#X floatatom 118 100 5 0 0 0 - - -;
#X floatatom 198 101 5 0 0 0 - - -;
#X floatatom 278 101 5 0 0 0 - - -;
#X msg 38 128 0 \$1;
#X msg 118 127 1 \$1;
#X msg 198 127 2 \$1;
#X msg 278 127 3 \$1;
#X floatatom 358 100 5 0 0 0 - - -;
#X floatatom 438 101 5 0 0 0 - - -;
#X floatatom 518 102 5 0 0 0 - - -;
#X msg 358 127 4 \$1;
#X msg 438 127 5 \$1;
#X msg 518 128 6 \$1;
#X obj 36 334 tecla 1;
#X obj 36 364 tecla 2;
#X obj 36 394 tecla 3;
#X obj 36 424 tecla 4;
#X obj 37 275 pack f f f;
#X obj 37 300 s notes;
#X obj 37 249 poly 4, f 10;
#X obj 38 70 route /c /cs /d /ds /e /f /fs /g /gs /a /as /b /c', f
149;
#X floatatom 599 105 5 0 0 0 - - -;
#X floatatom 679 104 5 0 0 0 - - -;
#X floatatom 759 105 5 0 0 0 - - -;
#X floatatom 839 105 5 0 0 0 - - -;
#X floatatom 919 104 5 0 0 0 - - -;
#X floatatom 999 105 5 0 0 0 - - -;
#X msg 599 132 7 \$1;
#X msg 679 131 8 \$1;
#X msg 759 131 9 \$1;
#X msg 839 131 10 \$1;
#X msg 919 131 11 \$1;
#X msg 999 131 12 \$1;
#X connect 0 0 1 0;
#X connect 1 0 23 0;
#X connect 2 0 6 0;
#X connect 3 0 7 0;
#X connect 4 0 8 0;
#X connect 5 0 9 0;
#X connect 6 0 22 0;
#X connect 7 0 22 0;
#X connect 8 0 22 0;
#X connect 9 0 22 0;
#X connect 10 0 13 0;
#X connect 11 0 14 0;
#X connect 12 0 15 0;
#X connect 13 0 22 0;
#X connect 14 0 22 0;
#X connect 15 0 22 0;
#X connect 20 0 21 0;
#X connect 22 0 20 0;
#X connect 22 1 20 1;
#X connect 22 2 20 2;
#X connect 23 0 2 0;
#X connect 23 1 3 0;
#X connect 23 2 4 0;
#X connect 23 3 5 0;
#X connect 23 4 10 0;
#X connect 23 5 11 0;
#X connect 23 6 12 0;
#X connect 23 7 24 0;
#X connect 23 8 25 0;
#X connect 23 9 26 0;
#X connect 23 10 27 0;
#X connect 23 11 28 0;
#X connect 23 12 29 0;
#X connect 24 0 30 0;
#X connect 25 0 31 0;
#X connect 26 0 32 0;
#X connect 27 0 33 0;
#X connect 28 0 34 0;
#X connect 29 0 35 0;
#X connect 30 0 22 0;
#X connect 31 0 22 0;
#X connect 32 0 22 0;
#X connect 33 0 22 0;
#X connect 34 0 22 0;
#X connect 35 0 22 0;
