#N canvas 606 243 652 448 16;
#X obj 45 360 *~, f 13;
#X obj 33 397 dac~;
#X obj 46 149 mtof;
#X floatatom 287 266 5 0 0 0 - - -;
#X obj 46 211 *~ 100;
#X obj 46 241 clip~ -0.8 0.8;
#X obj 46 87 unpack, f 22;
#X obj 46 25 r notes;
#X obj 46 56 route \$1;
#X obj 46 180 osc~;
#X obj 46 119 + 48;
#X text 348 264 1/ancho de banda = Q;
#X text 95 118 nota más grave;
#X obj 172 329 adsr 100 10 50 300;
#X obj 284 191 + 300;
#X obj 284 128 * 0.1;
#X floatatom 331 94 5 0 0 0 - - -;
#X text 389 94 efecto del adsr filtro;
#X obj 284 161 * 4000;
#X obj 45 315 vcf~ 300 10;
#X text 350 191 min freq;
#X text 360 159 ~ max freq;
#X obj 284 221 adsr 1000 10 0 300;
#X connect 0 0 1 1;
#X connect 0 0 1 0;
#X connect 2 0 9 0;
#X connect 3 0 19 2;
#X connect 4 0 5 0;
#X connect 5 0 19 0;
#X connect 6 0 10 0;
#X connect 6 1 15 0;
#X connect 6 1 13 0;
#X connect 7 0 8 0;
#X connect 8 0 6 0;
#X connect 9 0 4 0;
#X connect 10 0 2 0;
#X connect 13 0 0 1;
#X connect 14 0 22 0;
#X connect 15 0 18 0;
#X connect 16 0 15 1;
#X connect 18 0 14 0;
#X connect 19 0 0 0;
#X connect 22 0 19 1;
