#N canvas 1105 51 924 764 10;
#X obj 613 331 cnv 15 300 350 empty empty SENSORS 0 12 0 14 #ffe3c6
#000000 0;
#X obj 9 7 cnv 15 600 750 empty empty FX_and_MASTER 0 12 0 14 #ffc7c6
#000000 0;
#X obj 281 31 receive fromGUI;
#X obj 47 729 dac~, f 26;
#X obj 281 52 list trim;
#X obj 200 644 expr~ atan($v1);
#X obj 200 666 *~ 0.63662;
#X obj 281 218 pow 4;
#X obj 300 283 send toGUI;
#X obj 200 563 +~, f 14;
#X obj 296 436 pow 0.5;
#X msg 296 497 \$1 100;
#X obj 296 519 line~;
#X obj 281 541 *~;
#X msg 304 457 list /vis-feedback \$1;
#X obj 291 177 loadbang;
#X msg 449 568 \$1 100;
#X obj 449 590 line~;
#X obj 200 623 *~, f 42;
#X obj 304 477 send toGUI;
#X obj 306 394 loadbang;
#X obj 296 331 receive fromGUI;
#X obj 296 352 list trim;
#X obj 282 73 route /delay;
#X obj 457 546 send toGUI;
#X obj 488 431 loadbang;
#X obj 449 501 + 1;
#X msg 488 452 0;
#X msg 457 526 list /vis-distortion \$1;
#X obj 282 158 f, f 11;
#X obj 282 113 t b f, f 11;
#X obj 282 93 change -782;
#X obj 282 135 delay 200, f 14;
#X msg 300 261 list /vis-delay \$1 ms.;
#X msg 291 197 0;
#X obj 281 239 * 5000;
#X obj 449 427 pow 2;
#X msg 306 415 0;
#X obj 624 395 receive fromSystem;
#X obj 624 417 list trim;
#X obj 624 439 route /tilts;
#X obj 624 481 unpack, f 9;
#X obj 624 552 * 0.5;
#X obj 624 574 + 0.5;
#X obj 749 645 line~;
#X msg 749 625 \$1 20;
#X obj 803 360 receive fromGUI;
#X obj 803 381 list trim;
#X obj 804 402 route /sensors;
#X obj 624 460 spigot 0, f 35;
#X obj 675 503 * 5;
#X obj 675 524 - 2;
#X obj 675 573 pow;
#X msg 675 548 2 \$1;
#X obj 804 506 sel 0;
#X obj 804 426 t f f;
#X obj 200 706 *~, f 65;
#X obj 749 487 loadbang;
#X msg 749 531 1;
#X msg 804 534 1;
#X obj 449 478 * 100;
#X obj 624 594 pow 2;
#X obj 47 706 *~, f 4;
#X obj 296 373 route /feedback /distortion;
#X obj 47 643 expr~ atan($v1);
#X obj 47 665 *~ 0.63662;
#X obj 47 563 +~, f 14;
#X obj 47 622 *~;
#X obj 47 541 catch~ sum-L;
#X obj 55 585 delwrite~ delay-L 5000;
#X obj 208 584 delwrite~ delay-R 5000;
#X obj 200 541 catch~ sum-R;
#X obj 128 308 delread~ delay-L 0;
#X obj 281 308 delread~ delay-R 0;
#X obj 128 535 *~;
#X obj 804 556 s NEW-SPEED;
#X obj 675 594 s NEW-SPEED;
#X obj 69 79 cnv 15 150 170 empty empty INPUT_and_MODULES 0 12 0 14
#c6ffc7 #404040 0;
#X obj 91 114 adc~ 1;
#X obj 91 135 s~ input;
#X obj 90 160 sampler-module 1;
#X obj 90 180 sampler-module 2;
#X obj 90 200 sampler-module 3;
#X obj 90 220 sampler-module 4;
#X connect 2 0 4 0;
#X connect 4 0 23 0;
#X connect 5 0 6 0;
#X connect 6 0 56 0;
#X connect 7 0 35 0;
#X connect 9 0 18 0;
#X connect 9 0 70 0;
#X connect 10 0 11 0;
#X connect 10 0 14 0;
#X connect 11 0 12 0;
#X connect 12 0 13 1;
#X connect 12 0 74 1;
#X connect 13 0 9 1;
#X connect 14 0 19 0;
#X connect 15 0 34 0;
#X connect 16 0 17 0;
#X connect 17 0 18 1;
#X connect 17 0 67 1;
#X connect 18 0 5 0;
#X connect 20 0 37 0;
#X connect 21 0 22 0;
#X connect 22 0 63 0;
#X connect 23 0 31 0;
#X connect 25 0 27 0;
#X connect 26 0 16 0;
#X connect 26 0 28 0;
#X connect 27 0 60 0;
#X connect 28 0 24 0;
#X connect 29 0 7 0;
#X connect 30 0 32 0;
#X connect 30 1 29 1;
#X connect 31 0 30 0;
#X connect 32 0 29 0;
#X connect 33 0 8 0;
#X connect 34 0 7 0;
#X connect 35 0 33 0;
#X connect 35 0 72 0;
#X connect 35 0 73 0;
#X connect 36 0 60 0;
#X connect 37 0 10 0;
#X connect 38 0 39 0;
#X connect 39 0 40 0;
#X connect 40 0 49 0;
#X connect 41 0 42 0;
#X connect 41 1 50 0;
#X connect 42 0 43 0;
#X connect 43 0 61 0;
#X connect 44 0 56 1;
#X connect 44 0 62 1;
#X connect 45 0 44 0;
#X connect 46 0 47 0;
#X connect 47 0 48 0;
#X connect 48 0 55 0;
#X connect 49 0 41 0;
#X connect 50 0 51 0;
#X connect 51 0 53 0;
#X connect 52 0 76 0;
#X connect 53 0 52 0;
#X connect 54 0 59 0;
#X connect 54 0 58 0;
#X connect 55 0 54 0;
#X connect 55 1 49 1;
#X connect 56 0 3 1;
#X connect 57 0 58 0;
#X connect 58 0 45 0;
#X connect 59 0 75 0;
#X connect 60 0 26 0;
#X connect 61 0 45 0;
#X connect 62 0 3 0;
#X connect 63 0 10 0;
#X connect 63 1 36 0;
#X connect 64 0 65 0;
#X connect 65 0 62 0;
#X connect 66 0 67 0;
#X connect 66 0 69 0;
#X connect 67 0 64 0;
#X connect 68 0 66 0;
#X connect 71 0 9 0;
#X connect 72 0 74 0;
#X connect 73 0 13 0;
#X connect 74 0 66 1;
#X connect 78 0 79 0;
