#N canvas 528 102 1357 785 10;
#X obj 38 526 soundfiler;
#X obj 20 33 receive fromGUI;
#X obj 20 54 list trim;
#X obj 20 285 send toGUI;
#X obj 471 24 receive fromGUI;
#X obj 471 44 list trim;
#X obj 20 170 t f b, f 26;
#X obj 39 338 symbol sound1.wav;
#X obj 80 363 symbol sound2.wav;
#X obj 121 385 symbol sound3.wav;
#X obj 163 410 symbol sound4.wav;
#X obj 649 94 route range;
#X obj 649 114 unpack 0 0;
#X obj 685 155 swap;
#X obj 685 178 -, f 4;
#X obj 471 94 sel 1;
#X obj 649 135 t f f, f 7;
#X msg 128 589 0;
#X obj 20 191 t b f b;
#X obj 38 547 t f f, f 26;
#X obj 706 135 t f f;
#X obj 432 153 phasor~;
#X msg 471 133 0;
#X obj 432 421 *~ 4410;
#X obj 432 467 +~;
#X msg 384 27 44100 \$1;
#X obj 384 47 /;
#X msg 173 191 0, f 2;
#X obj 471 113 t b b;
#X obj 545 254 delay;
#X obj 561 209 / 44.1;
#X obj 546 233 f;
#X msg 500 305 0;
#X obj 482 376 line~;
#X obj 432 396 *~;
#X msg 482 224 1;
#X obj 482 331 f;
#X msg 482 353 \$1 2;
#X obj 546 167 spigot 0;
#X obj 591 125 - 1;
#X obj 591 147 abs;
#X obj 530 119 sel 0;
#X obj 560 94 t f f;
#X msg 1095 388 0, f 2;
#X obj 753 297 timer;
#X obj 1038 318 t b b b, f 10;
#X obj 873 144 sel 1 0, f 19;
#X obj 753 319 * 44.1;
#X msg 888 362 stop;
#X msg 798 566 resize \$1;
#X msg 1066 518 441000;
#X obj 1066 431 t b b;
#X msg 843 443 0;
#X obj 843 422 t b f, f 9;
#X obj 843 401 t f f, f 11;
#X obj 390 92 t b f;
#X obj 384 114 * 1, f 6;
#X text 1070 542 POR AHORA EL MÁXIMO DE DURACIÓN PARA GRABAR SON
10 SEGUNDOS, f 20;
#X obj 753 705 send toGUI;
#X obj 1093 494 send toGUI;
#X obj 926 339 r~ input;
#X obj 753 341 t b f f b, f 23;
#X obj 369 731 throw~ sum-L;
#X obj 191 569 s \$0-esamp;
#X obj 173 589 s \$0-dur;
#X obj 128 610 s \$0-ssamp;
#X obj 733 155 s \$0-esamp;
#X obj 685 199 s \$0-dur;
#X obj 649 220 s \$0-ssamp;
#X obj 561 188 r \$0-dur;
#X obj 587 255 r \$0-reset-table;
#X obj 384 8 r \$0-dur;
#X obj 447 446 r \$0-ssamp;
#X obj 471 398 r \$0-dur;
#X obj 1095 410 s \$0-reset-table;
#X obj 906 422 s \$0-esamp;
#X obj 894 443 s \$0-dur;
#X obj 843 464 s \$0-ssamp;
#X obj 753 594 f \$1;
#X obj 1093 451 f \$1;
#X obj 20 213 f \$1;
#X obj 59 214 f \$1;
#X obj 173 212 s \$0-reset-table;
#X msg 20 236 list /myTable\$1 refresh;
#X msg 59 258 list /myTable\$1 clearSelection;
#X msg 39 503 read -resize \$1 /myTable\$2;
#X obj 21 12 table /myTable\$1 44100;
#X obj 432 488 tabread4~ /myTable\$1;
#X msg 753 614 list /myTable\$1 refresh;
#X obj 798 590 s /myTable\$1;
#X msg 1093 472 list /myTable\$1 clearSelection;
#X obj 926 393 tabwrite~ /myTable\$1;
#X obj 39 480 pack s \$1;
#X msg 369 209 \$1 10;
#X obj 369 231 line~;
#X obj 1122 388 send toGUI;
#X msg 1122 367 list /play\$1 0;
#X obj 1122 346 f \$1;
#X obj 1068 292 send toGUI;
#X obj 1068 250 f \$1;
#X msg 1068 271 list /play\$1 1;
#X obj 582 361 send toGUI;
#X msg 582 340 list /play\$1 0;
#X obj 582 319 f \$1;
#X obj 1068 228 spigot 1;
#X obj 767 639 loadbang;
#X obj 767 659 f \$1;
#X obj 449 509 receive fromGUI;
#X obj 449 529 list trim;
#X obj 449 549 route /pan\$1, f 13;
#X obj 384 690 line~;
#X msg 384 668 \$1 10;
#X obj 369 710 *~;
#X obj 482 690 line~;
#X msg 482 668 \$1 10;
#X obj 467 710 *~;
#X obj 467 731 throw~ sum-R;
#X obj 449 640 unpack;
#X obj 20 78 route /audiofiles\$1, f 20;
#X obj 449 598 stripnote, f 12;
#X obj 449 574 unpack f f f;
#X msg 767 679 list /autoplay\$1 1 \, list /loop\$1 1 \, list /pan\$1
1 0 1;
#X obj 20 127 stripnote, f 12;
#X obj 20 103 unpack f f f;
#N canvas 92 117 1165 597 manage-soundfiles 0;
#X msg 20 268 1;
#X msg 54 267 2;
#X msg 86 265 3;
#X msg 122 263 4;
#X obj 20 42 sel 0 1 2 3 4, f 134;
#X msg 157 261 5;
#X obj 955 445 send toGUI;
#X obj 299 359 f \$1;
#X obj 462 360 f \$1;
#X obj 625 362 f \$1;
#X msg 299 380 list /audiofiles\$1 0 0 0;
#X msg 462 381 list /audiofiles\$1 1 0 0;
#X msg 625 383 list /audiofiles\$1 2 0 0;
#X obj 785 363 f \$1;
#X obj 953 367 f \$1;
#X msg 785 384 list /audiofiles\$1 3 0 0;
#X msg 953 388 list /audiofiles\$1 4 0 0;
#X obj 20 21 inlet;
#X obj 20 320 outlet;
#X connect 0 0 18 0;
#X connect 1 0 18 0;
#X connect 2 0 18 0;
#X connect 3 0 18 0;
#X connect 4 0 0 0;
#X connect 4 0 8 0;
#X connect 4 0 9 0;
#X connect 4 0 13 0;
#X connect 4 0 14 0;
#X connect 4 1 1 0;
#X connect 4 1 7 0;
#X connect 4 1 9 0;
#X connect 4 1 13 0;
#X connect 4 1 14 0;
#X connect 4 2 2 0;
#X connect 4 2 7 0;
#X connect 4 2 8 0;
#X connect 4 2 13 0;
#X connect 4 2 14 0;
#X connect 4 3 3 0;
#X connect 4 3 7 0;
#X connect 4 3 8 0;
#X connect 4 3 9 0;
#X connect 4 3 14 0;
#X connect 4 4 5 0;
#X connect 4 4 7 0;
#X connect 4 4 8 0;
#X connect 4 4 9 0;
#X connect 4 4 13 0;
#X connect 5 0 18 0;
#X connect 7 0 10 0;
#X connect 8 0 11 0;
#X connect 9 0 12 0;
#X connect 10 0 6 0;
#X connect 11 0 6 0;
#X connect 12 0 6 0;
#X connect 13 0 15 0;
#X connect 14 0 16 0;
#X connect 15 0 6 0;
#X connect 16 0 6 0;
#X connect 17 0 4 0;
#X restore 20 147 pd manage-soundfiles;
#X obj 38 673 s \$0-vis-play;
#X obj 1068 203 r \$0-vis-play;
#X obj 39 316 sel 1 2 3 4 5, f 35;
#X obj 204 440 symbol sound5.wav;
#X obj 38 568 t b b b f, f 23;
#X obj 83 652 s /myTable\$1;
#X msg 83 632 normalize;
#X obj 390 69 r NEW-SPÈED;
#X obj 369 509 *~, f 11;
#N canvas 324 349 646 364 manage-pan 0;
#X obj 32 19 inlet;
#X obj 246 250 send toGUI;
#X msg 32 221 1 0;
#X obj 32 41 sel 0 2 1, f 45;
#X obj 246 185 f \$1;
#X msg 246 206 list /pan\$1 0 0 0;
#X obj 376 184 f \$1;
#X obj 501 191 f \$1;
#X msg 376 205 list /pan\$1 1 0 0;
#X msg 501 212 list /pan\$1 2 0 0;
#X obj 150 196 loadbang;
#X msg 69 221 0 1;
#X msg 106 222 0.707 0.707;
#X obj 32 252 outlet;
#X connect 0 0 3 0;
#X connect 2 0 13 0;
#X connect 3 0 2 0;
#X connect 3 0 6 0;
#X connect 3 0 7 0;
#X connect 3 1 11 0;
#X connect 3 1 4 0;
#X connect 3 1 6 0;
#X connect 3 2 12 0;
#X connect 3 2 4 0;
#X connect 3 2 7 0;
#X connect 4 0 5 0;
#X connect 5 0 1 0;
#X connect 6 0 8 0;
#X connect 7 0 9 0;
#X connect 8 0 1 0;
#X connect 9 0 1 0;
#X connect 10 0 12 0;
#X connect 11 0 13 0;
#X connect 12 0 13 0;
#X restore 449 619 pd manage-pan;
#X obj 873 121 route /rec\$1 /autoplay\$1, f 27;
#X obj 471 67 route /play\$1 /loop\$1 /myTable\$1, f 45;
#X obj 887 312 s /myTable\$1;
#X msg 887 282 normalize;
#X obj 928 164 t b b b;
#X connect 0 0 19 0;
#X connect 1 0 2 0;
#X connect 2 0 118 0;
#X connect 4 0 5 0;
#X connect 5 0 136 0;
#X connect 6 0 18 0;
#X connect 6 1 27 0;
#X connect 7 0 92 0;
#X connect 8 0 92 0;
#X connect 9 0 92 0;
#X connect 10 0 92 0;
#X connect 11 0 12 0;
#X connect 12 0 16 0;
#X connect 12 1 20 0;
#X connect 13 0 14 0;
#X connect 13 1 14 1;
#X connect 14 0 67 0;
#X connect 15 0 28 0;
#X connect 16 0 68 0;
#X connect 16 1 13 0;
#X connect 17 0 65 0;
#X connect 18 0 80 0;
#X connect 18 1 127 0;
#X connect 18 2 81 0;
#X connect 19 0 129 0;
#X connect 19 1 63 0;
#X connect 20 0 13 1;
#X connect 20 1 66 0;
#X connect 21 0 34 0;
#X connect 22 0 21 1;
#X connect 23 0 24 0;
#X connect 24 0 87 0;
#X connect 25 0 26 0;
#X connect 26 0 56 0;
#X connect 27 0 82 0;
#X connect 28 0 22 0;
#X connect 28 1 35 0;
#X connect 28 1 38 0;
#X connect 29 0 32 0;
#X connect 29 0 103 0;
#X connect 30 0 31 1;
#X connect 31 0 29 0;
#X connect 32 0 36 0;
#X connect 33 0 34 1;
#X connect 34 0 23 0;
#X connect 35 0 36 0;
#X connect 36 0 37 0;
#X connect 37 0 33 0;
#X connect 38 0 31 0;
#X connect 39 0 40 0;
#X connect 40 0 38 1;
#X connect 41 0 32 0;
#X connect 41 0 103 0;
#X connect 42 0 41 0;
#X connect 42 1 39 0;
#X connect 43 0 74 0;
#X connect 44 0 47 0;
#X connect 45 0 91 0;
#X connect 45 1 51 0;
#X connect 45 2 43 0;
#X connect 45 2 97 0;
#X connect 46 0 45 0;
#X connect 46 0 44 0;
#X connect 46 1 139 0;
#X connect 47 0 61 0;
#X connect 48 0 91 0;
#X connect 49 0 89 0;
#X connect 50 0 49 0;
#X connect 51 0 50 0;
#X connect 51 1 79 0;
#X connect 52 0 77 0;
#X connect 53 0 52 0;
#X connect 53 1 76 0;
#X connect 54 0 53 0;
#X connect 54 1 75 0;
#X connect 55 0 56 0;
#X connect 55 1 56 1;
#X connect 56 0 21 0;
#X connect 60 0 91 0;
#X connect 61 0 78 0;
#X connect 61 1 49 0;
#X connect 61 2 54 0;
#X connect 61 3 48 0;
#X connect 69 0 30 0;
#X connect 70 0 32 0;
#X connect 71 0 25 0;
#X connect 72 0 24 1;
#X connect 73 0 23 1;
#X connect 78 0 88 0;
#X connect 79 0 90 0;
#X connect 80 0 83 0;
#X connect 81 0 84 0;
#X connect 83 0 3 0;
#X connect 84 0 3 0;
#X connect 85 0 0 0;
#X connect 87 0 133 1;
#X connect 88 0 58 0;
#X connect 90 0 59 0;
#X connect 92 0 85 0;
#X connect 93 0 94 0;
#X connect 94 0 133 0;
#X connect 96 0 95 0;
#X connect 97 0 96 0;
#X connect 99 0 100 0;
#X connect 100 0 98 0;
#X connect 102 0 101 0;
#X connect 103 0 102 0;
#X connect 104 0 99 0;
#X connect 105 0 106 0;
#X connect 106 0 121 0;
#X connect 107 0 108 0;
#X connect 108 0 109 0;
#X connect 109 0 120 0;
#X connect 110 0 112 1;
#X connect 111 0 110 0;
#X connect 112 0 62 0;
#X connect 113 0 115 1;
#X connect 114 0 113 0;
#X connect 115 0 116 0;
#X connect 117 0 111 0;
#X connect 117 1 114 0;
#X connect 118 0 123 0;
#X connect 119 0 134 0;
#X connect 120 0 119 0;
#X connect 120 2 119 1;
#X connect 121 0 58 0;
#X connect 122 0 124 0;
#X connect 123 0 122 0;
#X connect 123 2 122 1;
#X connect 124 0 6 0;
#X connect 126 0 104 0;
#X connect 127 0 7 0;
#X connect 127 1 8 0;
#X connect 127 2 9 0;
#X connect 127 3 10 0;
#X connect 127 4 128 0;
#X connect 128 0 92 0;
#X connect 129 0 125 0;
#X connect 129 2 17 0;
#X connect 129 3 64 0;
#X connect 131 0 130 0;
#X connect 132 0 55 0;
#X connect 133 0 112 0;
#X connect 133 0 115 0;
#X connect 134 0 117 0;
#X connect 135 0 46 0;
#X connect 136 0 15 0;
#X connect 136 0 93 0;
#X connect 136 1 42 0;
#X connect 136 2 11 0;
#X connect 136 3 135 0;
#X connect 139 0 104 0;
#X connect 139 1 138 0;
#X connect 139 2 44 1;
