#N canvas 122 132 1177 874 12;
#X obj 244 80 inlet;
#X text 240 55 trigger;
#X obj 244 158 sel 0;
#X obj 134 385 t b;
#X obj 291 417 f \$1;
#X obj 291 442 pack 0 \$2;
#X obj 418 134 inlet;
#X obj 390 285 del \$2;
#X obj 365 532 line~;
#X obj 390 311 f \$4, f 21;
#X obj 365 442 pack 0 \$3;
#X obj 480 134 inlet;
#X obj 542 134 inlet;
#X obj 615 133 inlet;
#X msg 298 207 stop;
#X obj 443 444 pack 0 \$5;
#X obj 365 418 * \$1;
#X obj 365 557 outlet~;
#X obj 390 336 * 0.01;
#X text 414 112 attack;
#X text 481 111 decay;
#X text 535 112 sustain;
#X text 612 112 release;
#X obj 134 330 moses;
#X obj 134 356 t b b, f 18;
#X msg 255 441 0;
#X text 208 1 Arguments: level \, attack time \, decay time \, sustain
level \, release time. A \, D \, and R are in msec and S is in percent.
This patch is used as an abstraction in various examples.;
#X obj 244 107 t f f, f 17;
#X connect 0 0 27 0;
#X connect 2 0 14 0;
#X connect 2 0 15 0;
#X connect 2 1 23 0;
#X connect 3 0 4 0;
#X connect 3 0 7 0;
#X connect 4 0 5 0;
#X connect 5 0 8 0;
#X connect 6 0 5 1;
#X connect 6 0 7 1;
#X connect 7 0 9 0;
#X connect 8 0 17 0;
#X connect 9 0 18 0;
#X connect 10 0 8 0;
#X connect 11 0 10 1;
#X connect 12 0 9 1;
#X connect 13 0 15 1;
#X connect 14 0 7 0;
#X connect 15 0 8 0;
#X connect 16 0 10 0;
#X connect 18 0 16 0;
#X connect 23 0 24 0;
#X connect 23 1 3 0;
#X connect 24 0 3 0;
#X connect 24 1 25 0;
#X connect 25 0 8 0;
#X connect 27 0 2 0;
#X connect 27 1 16 1;
#X connect 27 1 4 1;
