#N canvas 11 28 1131 642 10;
#X obj 41 428 catch~ sumOut;
#X obj 29 479 dac~;
#X obj 38 50 voz-fm 1;
#X obj 40 170 r fromGUI;
#X obj 183 379 s sustain;
#X obj 40 190 list trim;
#X obj 326 379 s fm-index;
#X obj 326 357 + 1;
#X obj 611 391 s toGUI;
#X obj 873 30 loadbang;
#X obj 873 146 delay 1000;
#X obj 610 22 r fm-index;
#X obj 618 68 r fm-ratio;
#X obj 412 312 s fm-ratio;
#X msg 883 50 0 0.111 0.125 0.2 0.25 0.333 0.4 0.5 0.6 0.666 0.75 0.8
0.875 0.889, f 20;
#X obj 882 124 array define fine-ratio 14;
#X obj 883 104 array set fine-ratio;
#X obj 469 233 tabread fine-ratio;
#X obj 412 291 +, f 14;
#X obj 469 255 t b f;
#X obj 183 337 * 100;
#X obj 183 358 int;
#X obj 649 214 r sustain;
#X obj 659 264 r release;
#X obj 629 115 r attack;
#X obj 639 165 r decay;
#X obj 111 321 *;
#X obj 111 298 t f f;
#X obj 111 341 * 1000;
#X obj 111 360 int;
#X obj 111 380 s decay;
#X obj 254 320 *;
#X obj 254 297 t f f;
#X obj 254 359 int;
#X obj 254 379 s release;
#X obj 254 340 * 4000;
#X obj 40 255 *;
#X obj 40 232 t f f, f 8;
#X obj 40 359 int;
#X obj 40 379 s attack;
#X obj 40 320 * 2990;
#X obj 40 340 + 10;
#X obj 40 278 *, f 4;
#X obj 40 298 *, f 6;
#X msg 873 169 bang \; fm-index 10 \; fm-ratio 2 \; attack 15 \; decay
100 \; sustain 60 \; release 250;
#X msg 610 47 list /label-index \$1;
#X msg 618 91 list /label-ratio \$1;
#X msg 639 188 list /label-decay \$1ms;
#X msg 649 237 list /label-sustain \$1%;
#X msg 659 287 list /label-release \$1ms;
#X msg 629 138 list /label-attack \$1ms;
#X obj 98 50 voz-fm 2;
#X obj 158 50 voz-fm 3;
#X obj 218 50 voz-fm 4;
#X obj 39 71 voz-fm 5;
#X msg 874 258 list /fm-index set 10 \, list /fm-ratio set 2 \, list
/fm-fine set 0 \, list /attack set 0.202 \, list /decay set 0.316 \,
list /sustain set 0.6 \, list /release set 0.25 \, list /vel set 0.755
, f 33;
#X obj 98 70 voz-fm 6;
#X obj 158 70 voz-fm 7;
#X obj 218 70 voz-fm 8;
#X obj 41 449 softclip~;
#X obj 284 121 pack f f f;
#X obj 284 143 s mmp-piano;
#X obj 284 51 notein, f 16;
#X obj 284 74 pack f f;
#X obj 284 96 poly 8 1;
#X obj 40 210 route /attack /decay /sustain /release /fm-index /fm-ratio
/fm-fine, f 84;
#X connect 0 0 59 0;
#X connect 3 0 5 0;
#X connect 5 0 65 0;
#X connect 7 0 6 0;
#X connect 9 0 10 0;
#X connect 9 0 14 0;
#X connect 10 0 44 0;
#X connect 11 0 45 0;
#X connect 12 0 46 0;
#X connect 14 0 16 0;
#X connect 17 0 19 0;
#X connect 18 0 13 0;
#X connect 19 0 18 0;
#X connect 19 1 18 1;
#X connect 20 0 21 0;
#X connect 21 0 4 0;
#X connect 22 0 48 0;
#X connect 23 0 49 0;
#X connect 24 0 50 0;
#X connect 25 0 47 0;
#X connect 26 0 28 0;
#X connect 27 0 26 0;
#X connect 27 1 26 1;
#X connect 28 0 29 0;
#X connect 29 0 30 0;
#X connect 31 0 35 0;
#X connect 32 0 31 0;
#X connect 32 1 31 1;
#X connect 33 0 34 0;
#X connect 35 0 33 0;
#X connect 36 0 42 0;
#X connect 37 0 36 0;
#X connect 37 1 36 1;
#X connect 37 1 42 1;
#X connect 37 1 43 1;
#X connect 38 0 39 0;
#X connect 40 0 41 0;
#X connect 41 0 38 0;
#X connect 42 0 43 0;
#X connect 43 0 40 0;
#X connect 44 0 55 0;
#X connect 45 0 8 0;
#X connect 46 0 8 0;
#X connect 47 0 8 0;
#X connect 48 0 8 0;
#X connect 49 0 8 0;
#X connect 50 0 8 0;
#X connect 55 0 8 0;
#X connect 59 0 1 0;
#X connect 59 0 1 1;
#X connect 60 0 61 0;
#X connect 62 0 63 0;
#X connect 62 1 63 1;
#X connect 63 0 64 0;
#X connect 64 0 60 0;
#X connect 64 1 60 1;
#X connect 64 2 60 2;
#X connect 65 0 37 0;
#X connect 65 1 27 0;
#X connect 65 2 20 0;
#X connect 65 3 32 0;
#X connect 65 4 7 0;
#X connect 65 5 18 0;
#X connect 65 6 17 0;
