#N canvas 439 48 759 517 10;
#X obj 33 319 osc~;
#X obj 51 272 *~;
#X obj 69 251 line~;
#X msg 69 229 \$1 20;
#X obj 51 184 osc~;
#X obj 33 297 +~;
#X obj 51 162 * 2;
#X obj 58 131 t b f;
#X obj 33 446 throw~ sumOut;
#X obj 33 87 mtof;
#X obj 33 43 route \$1;
#X obj 33 65 unpack, f 19;
#X obj 33 424 *~, f 20;
#X obj 20 184 sig~;
#X obj 33 23 r mmp-piano;
#X obj 150 297 *, f 5;
#X obj 150 274 t f f;
#X obj 59 109 r fm-ratio;
#X obj 179 320 r attack;
#X obj 208 340 r decay;
#X obj 237 360 r sustain;
#X obj 267 380 r release;
#X obj 69 208 r fm-index;
#X obj 150 401 adsr 1 15 100 60 250;
#X obj 150 252 / 127;
#X connect 0 0 12 0;
#X connect 1 0 5 1;
#X connect 2 0 1 1;
#X connect 3 0 2 0;
#X connect 4 0 1 0;
#X connect 5 0 0 0;
#X connect 6 0 4 0;
#X connect 7 0 6 0;
#X connect 7 1 6 1;
#X connect 9 0 6 0;
#X connect 9 0 13 0;
#X connect 10 0 11 0;
#X connect 11 0 9 0;
#X connect 11 1 24 0;
#X connect 12 0 8 0;
#X connect 13 0 5 0;
#X connect 14 0 10 0;
#X connect 15 0 23 0;
#X connect 16 0 15 0;
#X connect 16 1 15 1;
#X connect 17 0 7 0;
#X connect 18 0 23 1;
#X connect 19 0 23 2;
#X connect 20 0 23 3;
#X connect 21 0 23 4;
#X connect 22 0 3 0;
#X connect 23 0 12 1;
#X connect 24 0 16 0;
