#N canvas 968 195 1211 868 12;
#X obj 103 822 noteout, f 40;
#X obj 29 376 textfile;
#X msg 47 344 read data_\$1.txt cr \, rewind;
#X obj 29 28 receive fromGUI;
#X obj 29 52 list trim;
#X obj 937 29 loadbang;
#X obj 47 292 loadbang;
#X obj 94 167 * 500;
#X obj 94 218 max 1;
#X obj 94 192 int;
#X obj 94 142 pow;
#X msg 94 115 \$1 4;
#X obj 29 248 metro 500, f 10;
#X msg 39 401 \; toGUI list /generated \$1;
#X msg 111 249 \; toGUI list /visPeriod \$1 ms.;
#X obj 160 117 s kick;
#X obj 356 117 s fm;
#X obj 291 117 s hihat;
#X obj 225 117 s snare;
#X obj 29 610 spigot 0;
#X obj 82 585 r kick;
#X obj 138 612 spigot 0;
#X obj 254 613 spigot 0;
#X obj 370 613 spigot 0;
#X obj 191 587 r snare;
#X obj 307 588 r hihat;
#X obj 423 589 r fm;
#X obj 29 470 moses 2, f 16;
#X obj 138 498 moses 6, f 17;
#X obj 254 527 moses 10, f 17;
#X obj 104 795 makenote 100 100 100;
#X obj 936 259 metro 1000;
#X obj 1010 362 mod 60;
#X obj 936 307 f 0;
#X obj 976 307 + 1;
#X obj 936 335 t f f, f 11;
#X obj 936 361 div 60;
#X obj 936 385 moses 10;
#X obj 1010 386 moses 10;
#X obj 989 480 makefilename %d:;
#X obj 936 452 makefilename 0%d:;
#X obj 1010 412 makefilename 0%d;
#X obj 1063 444 makefilename %d;
#X obj 989 511 pack s s;
#X msg 989 537 symbol \$1\$2;
#X msg 1016 259 0;
#X obj 422 146 s reset;
#X obj 29 75 route /switch /period /tgl_kick /tgl_snare /tgl_hihat
/tgl_fm /reset_timer, f 66;
#X obj 1016 182 r reset;
#X msg 989 561 \; toGUI list /timer \$1;
#X msg 981 225 1;
#X obj 422 118 sel 1;
#X msg 938 53 bang \; toGUI list /period 1 \; toGUI list /visPeriod
500 ms. \; toGUI list /generated 0 \; toGUI list /tgl_kick 0 \; toGUI
list /tgl_snare 0 \; toGUI list /tgl_hihat 0 \; toGUI list /tgl_fm
0 \;;
#X obj 495 638 spigot 0;
#X obj 548 613 r kick;
#X obj 604 640 spigot 0;
#X obj 720 641 spigot 0;
#X obj 836 641 spigot 0;
#X obj 657 615 r snare;
#X obj 773 616 r hihat;
#X obj 889 617 r fm;
#X obj 495 498 moses 2, f 16;
#X obj 604 526 moses 6, f 17;
#X obj 720 555 moses 10, f 17;
#X obj 836 581 moses 12;
#X obj 29 442 moses 12, f 67;
#X obj 495 471 - 12;
#X msg 104 710 \$1 127;
#X msg 495 732 \$1 72;
#X obj 47 318 random 10;
#X connect 1 0 13 0;
#X connect 1 0 65 0;
#X connect 2 0 1 0;
#X connect 3 0 4 0;
#X connect 4 0 47 0;
#X connect 5 0 52 0;
#X connect 6 0 69 0;
#X connect 7 0 9 0;
#X connect 8 0 12 1;
#X connect 8 0 14 0;
#X connect 9 0 8 0;
#X connect 10 0 7 0;
#X connect 11 0 10 0;
#X connect 12 0 1 0;
#X connect 19 0 67 0;
#X connect 20 0 19 1;
#X connect 21 0 67 0;
#X connect 22 0 67 0;
#X connect 23 0 67 0;
#X connect 24 0 21 1;
#X connect 25 0 22 1;
#X connect 26 0 23 1;
#X connect 27 0 19 0;
#X connect 27 1 28 0;
#X connect 28 0 21 0;
#X connect 28 1 29 0;
#X connect 29 0 22 0;
#X connect 29 1 23 0;
#X connect 30 0 0 0;
#X connect 30 1 0 1;
#X connect 31 0 33 0;
#X connect 32 0 38 0;
#X connect 33 0 34 0;
#X connect 33 0 35 0;
#X connect 34 0 33 1;
#X connect 35 0 36 0;
#X connect 35 1 32 0;
#X connect 36 0 37 0;
#X connect 37 0 40 0;
#X connect 37 1 39 0;
#X connect 38 0 41 0;
#X connect 38 1 42 0;
#X connect 39 0 43 0;
#X connect 40 0 43 0;
#X connect 41 0 43 1;
#X connect 42 0 43 1;
#X connect 43 0 44 0;
#X connect 44 0 49 0;
#X connect 45 0 33 1;
#X connect 47 0 12 0;
#X connect 47 1 11 0;
#X connect 47 2 15 0;
#X connect 47 3 18 0;
#X connect 47 4 17 0;
#X connect 47 5 16 0;
#X connect 47 6 51 0;
#X connect 48 0 45 0;
#X connect 48 0 50 0;
#X connect 50 0 31 0;
#X connect 51 0 46 0;
#X connect 52 0 31 0;
#X connect 53 0 68 0;
#X connect 54 0 53 1;
#X connect 55 0 68 0;
#X connect 56 0 68 0;
#X connect 57 0 68 0;
#X connect 58 0 55 1;
#X connect 59 0 56 1;
#X connect 60 0 57 1;
#X connect 61 0 53 0;
#X connect 61 1 62 0;
#X connect 62 0 55 0;
#X connect 62 1 63 0;
#X connect 63 0 56 0;
#X connect 63 1 64 0;
#X connect 64 0 57 0;
#X connect 65 0 27 0;
#X connect 65 1 66 0;
#X connect 66 0 61 0;
#X connect 67 0 30 0;
#X connect 68 0 30 0;
#X connect 69 0 2 0;
