#N canvas 2389 360 1372 878 12;
#X obj 199 581 s toGUI;
#X msg 198 555 list /meter \$1;
#X obj 198 528 makefilename %.1f;
#X obj 279 379 receive fromGUI;
#X obj 279 404 list trim;
#X obj 279 434 route /calibration;
#X obj 199 36 adc~ 1;
#X obj 208 388 f;
#X obj 91 335 metro 800;
#X obj 91 303 loadbang;
#X obj 630 295 table tab_\$0 \$1;
#X obj 517 234 s tab_\$0;
#X msg 517 209 const 0;
#X obj 459 159 route float clear;
#X obj 630 266 v i_\$0;
#X obj 598 143 v s_\$0;
#X obj 459 265 expr avg("tab_\$0") \; i_\$0 = (i_\$0 + 1) % s_\$0 \; tab_\$0[i_\$0] = $f1;
#X obj 630 206 array size tab_\$0;
#X obj 598 178 t b f;
#X obj 598 39 loadbang;
#X obj 598 67 t b b;
#X obj 623 104 f 4;
#X obj 199 126 env~ 8192 4096;
#X obj 213 470 + 2.6;
#X obj 199 75 hip~ 5;
#X connect 1 0 0 0;
#X connect 2 0 1 0;
#X connect 3 0 4 0;
#X connect 4 0 5 0;
#X connect 5 0 23 1;
#X connect 6 0 24 0;
#X connect 7 0 23 0;
#X connect 8 0 7 0;
#X connect 9 0 8 0;
#X connect 12 0 11 0;
#X connect 13 0 16 0;
#X connect 13 1 12 0;
#X connect 15 0 18 0;
#X connect 16 0 7 1;
#X connect 18 0 12 0;
#X connect 18 1 17 0;
#X connect 19 0 20 0;
#X connect 20 0 15 0;
#X connect 20 1 21 0;
#X connect 21 0 15 0;
#X connect 22 0 13 0;
#X connect 23 0 2 0;
#X connect 24 0 22 0;
