#N canvas 389 25 902 1173 10;
#X obj 275 256 send toGUI;
#X msg 275 232 list /readout \$1;
#X obj 39 276 timer;
#X obj 39 252 t b b;
#N canvas 0 0 450 250 (subpatch) 0;
#X array time-window 173 float 0;
#X coords 0 100 172 0 200 140 1 0 0;
#X restore 278 317 graph;
#X obj 26 873 list append;
#N canvas 0 0 450 250 (subpatch) 0;
#X array log-weighting 173 float 0;
#X coords 0 1 172 0 200 140 1 0 0;
#X restore 275 482 graph;
#X obj 26 931 array set time-window;
#X obj 100 901 list split 86;
#X obj 39 391 /;
#X obj 39 443 int;
#X msg 85 690 0;
#X obj 39 690 until;
#X obj 39 714 f 0, f 7;
#X obj 107 715 + 1;
#X obj 39 830 tabwrite log-weighting, f 24;
#X obj 39 739 t f f;
#X obj 39 756 /;
#X obj 39 606 pipe 1;
#X obj 39 630 t f f b f;
#X msg 39 780 1 \$1;
#N canvas 657 247 639 526 weighting 0;
#X obj 81 75 tabreceive~ time-window;
#X obj 99 102 tabreceive~ log-weighting;
#X obj 81 166 tabsend~ weighting;
#N canvas 0 0 450 250 (subpatch) 0;
#X array weighting 173 float 0;
#X coords 0 100 172 0 200 140 1 0 0;
#X restore 374 69 graph;
#X obj 82 201 bang~;
#X obj 376 474 block~ 1024;
#X obj 82 230 array sum weighting;
#X obj 82 318 /;
#X obj 376 237 r window-ms;
#X obj 376 262 t f b;
#X obj 408 287 samplerate~;
#X obj 376 316 *;
#X obj 376 341 * 0.001;
#X msg 376 450 set \$1;
#X obj 100 264 r window-ps;
#X obj 82 343 s averaged-db-meter;
#X obj 81 137 *~;
#X obj 100 291 * 0.5;
#X obj 386 370 r weight-time;
#X obj 387 394 t b f;
#X obj 375 424 * 1;
#X connect 0 0 16 0;
#X connect 1 0 16 1;
#X connect 4 0 6 0;
#X connect 6 0 7 0;
#X connect 7 0 15 0;
#X connect 8 0 9 0;
#X connect 9 0 11 0;
#X connect 9 1 10 0;
#X connect 10 0 11 1;
#X connect 11 0 12 0;
#X connect 12 0 20 0;
#X connect 13 0 5 0;
#X connect 14 0 17 0;
#X connect 16 0 2 0;
#X connect 17 0 7 1;
#X connect 18 0 19 0;
#X connect 19 0 20 0;
#X connect 19 1 20 1;
#X connect 20 0 13 0;
#X restore 277 635 pd weighting;
#X obj 56 330 s window-ms;
#X obj 50 508 s window-ps;
#X obj 150 867 r window-ps;
#X obj 56 307 change;
#X msg 39 534 \$1 \; weighting resize \$1 \; time-window resize \$1 \; log-weighting resize \$1;
#X obj 276 181 r averaged-db-meter;
#X obj 39 482 change -1;
#X obj 39 804 -;
#X obj 39 418 + 1;
#X obj 39 664 + 1;
#X obj 72 411 unpack;
#X obj 72 434 * 0.001;
#X obj 72 458 s weight-time;
#X obj 72 387 change;
#X msg 39 355 2000 \$1;
#X obj 25 27 adc~ 1;
#X obj 276 208 makefilename %.1f;
#X obj 25 195 biquad~;
#X msg 125 141 1.99121 -0.991261 0.995618 -1.99124 0.995618;
#X obj 25 157 biquad~;
#X msg 110 114 1.66765 -0.695794 0.830301 -1.35771 0.555554;
#X obj 25 121 biquad~;
#X msg 96 85 -0.322443 -0.220298 0.385685 0.77137 0.385685;
#X obj 96 27 loadbang;
#X obj 96 53 t b b b;
#X obj 25 226 env~ 4096 512;
#X connect 1 0 0 0;
#X connect 2 0 25 0;
#X connect 2 0 36 0;
#X connect 3 0 2 0;
#X connect 3 1 2 1;
#X connect 5 0 7 0;
#X connect 5 0 8 0;
#X connect 8 0 5 1;
#X connect 8 2 5 1;
#X connect 9 0 30 0;
#X connect 10 0 28 0;
#X connect 11 0 13 1;
#X connect 12 0 13 0;
#X connect 13 0 14 0;
#X connect 13 0 16 0;
#X connect 14 0 13 1;
#X connect 16 0 17 0;
#X connect 16 1 15 1;
#X connect 17 0 20 0;
#X connect 18 0 19 0;
#X connect 19 0 31 0;
#X connect 19 1 17 1;
#X connect 19 2 11 0;
#X connect 20 0 29 0;
#X connect 24 0 8 1;
#X connect 25 0 22 0;
#X connect 26 0 18 0;
#X connect 27 0 38 0;
#X connect 28 0 26 0;
#X connect 28 0 23 0;
#X connect 29 0 15 0;
#X connect 30 0 10 0;
#X connect 31 0 12 0;
#X connect 32 0 33 0;
#X connect 33 0 34 0;
#X connect 35 0 32 0;
#X connect 36 0 9 0;
#X connect 36 0 35 0;
#X connect 37 0 43 0;
#X connect 38 0 1 0;
#X connect 39 0 47 0;
#X connect 40 0 39 0;
#X connect 41 0 39 0;
#X connect 42 0 41 0;
#X connect 43 0 41 0;
#X connect 44 0 43 0;
#X connect 45 0 46 0;
#X connect 46 0 44 0;
#X connect 46 1 42 0;
#X connect 46 2 40 0;
#X connect 47 0 3 0;
#X connect 47 0 5 0;
