#N canvas 398 603 576 440 12;
#X obj 37 19 loadbang;
#X obj 37 69 soundfiler;
#X msg 37 44 read -resize Piano_A0.wav Piano_A0;
#X obj 117 69 table Piano_A0;
#X obj 201 145 catch~ out;
#X obj 190 277 dac~;
#X obj 201 227 expr~ atan($v1);
#X obj 201 249 *~ 0.63662;
#X obj 37 185 piano_instance 0;
#X obj 37 121 / 44.1;
#X obj 37 148 s sample-duration;
#X obj 46 95 s samples;
#X obj 409 270 s hit;
#X obj 37 215 piano_instance 1;
#X obj 37 245 piano_instance 2;
#X obj 37 275 piano_instance 3;
#X obj 37 305 piano_instance 4;
#X obj 37 335 piano_instance 5;
#X obj 37 365 piano_instance 6;
#X obj 37 395 piano_instance 7;
#X obj 409 217 f 0;
#X obj 448 218 + 1;
#X obj 409 244 mod 8;
#X obj 359 95 bonk~;
#X obj 359 22 adc~ 1;
#X obj 368 46 loadbang;
#X obj 391 119 spigot 1;
#X obj 409 148 t b b;
#X msg 524 174 0, f 1;
#X msg 524 218 1, f 1;
#X obj 391 336 s toGUI;
#X msg 391 307 list /bonk \$1 \$2 \$3;
#X obj 218 179 rev2~ 100 80 3000 20;
#X obj 201 203 +~;
#X msg 367 69 minvel 140;
#X obj 441 186 del 2500;
#X connect 0 0 2 0;
#X connect 1 0 9 0;
#X connect 1 0 11 0;
#X connect 2 0 1 0;
#X connect 4 0 32 0;
#X connect 4 0 33 0;
#X connect 6 0 7 0;
#X connect 7 0 5 1;
#X connect 7 0 5 0;
#X connect 9 0 10 0;
#X connect 20 0 21 0;
#X connect 20 0 22 0;
#X connect 21 0 20 1;
#X connect 22 0 12 0;
#X connect 23 1 26 0;
#X connect 24 0 23 0;
#X connect 25 0 34 0;
#X connect 26 0 27 0;
#X connect 26 0 31 0;
#X connect 27 0 20 0;
#X connect 27 1 28 0;
#X connect 27 1 35 0;
#X connect 28 0 26 1;
#X connect 29 0 26 1;
#X connect 31 0 30 0;
#X connect 32 0 33 1;
#X connect 33 0 6 0;
#X connect 34 0 23 0;
#X connect 35 0 29 0;
