#N canvas 790 312 646 656 10;
#X obj 53 12 receive fromGUI;
#X obj 53 35 list trim;
#X msg 23 440 1;
#X msg 53 462 0;
#X obj 53 294 mod 3, f 31;
#X obj 53 273 f 0;
#X obj 83 273 + 1;
#X obj 53 392 moses 1, f 32;
#X msg 53 494 \; toGUI list /downBeat \$1;
#X obj 53 414 bang;
#X msg 212 440 1;
#X msg 242 462 0;
#X obj 242 414 bang;
#X msg 242 494 \; toGUI list /upBeat \$1;
#X msg 63 359 \; toGUI list /beatNumber \$1;
#X obj 63 315 + 1;
#X obj 63 337 int;
#X obj 53 81 t f f;
#X obj 80 104 sel 1;
#X msg 81 124 0;
#X obj 136 79 * 168;
#X obj 136 99 int;
#X obj 136 140 + 40;
#X obj 279 194 + 1;
#X msg 134 209 60000 \$1;
#X obj 134 231 /;
#X obj 53 251 metro 1500, f 14;
#X obj 360 291 loadbang;
#X obj 54 440 del 150;
#X obj 242 440 del 150;
#X obj 136 120 change;
#X obj 284 163 send toSystem;
#X obj 53 58 route /switch /tempo /beats /settings /settings2, f 57
;
#X obj 276 92 sel 1;
#X obj 344 92 sel 1;
#X msg 284 140 list /setPage \$1;
#X msg 276 115 1;
#X msg 344 113 0;
#X msg 144 162 \; toGUI list /visTempo \$1 bpm, f 17;
#X msg 291 227 \; toGUI list /visBeats \$1 beats, f 20;
#X msg 361 315 \; toGUI list /tempo 0 \; toGUI list /visTempo 40 bmp
\; toGUI list /beats 3 \; toGUI list /visBeats 4 beats \;;
#X connect 0 0 1 0;
#X connect 1 0 32 0;
#X connect 2 0 8 0;
#X connect 3 0 8 0;
#X connect 4 0 15 0;
#X connect 4 0 7 0;
#X connect 5 0 4 0;
#X connect 5 0 6 0;
#X connect 6 0 5 1;
#X connect 7 0 9 0;
#X connect 7 1 12 0;
#X connect 9 0 2 0;
#X connect 9 0 28 0;
#X connect 10 0 13 0;
#X connect 11 0 13 0;
#X connect 12 0 10 0;
#X connect 12 0 29 0;
#X connect 15 0 16 0;
#X connect 16 0 14 0;
#X connect 17 0 26 0;
#X connect 17 1 18 0;
#X connect 18 0 19 0;
#X connect 19 0 5 1;
#X connect 20 0 21 0;
#X connect 21 0 30 0;
#X connect 22 0 38 0;
#X connect 22 0 24 0;
#X connect 23 0 4 1;
#X connect 23 0 39 0;
#X connect 24 0 25 0;
#X connect 25 0 26 1;
#X connect 26 0 5 0;
#X connect 27 0 40 0;
#X connect 28 0 3 0;
#X connect 29 0 11 0;
#X connect 30 0 22 0;
#X connect 32 0 17 0;
#X connect 32 1 20 0;
#X connect 32 2 23 0;
#X connect 32 3 33 0;
#X connect 32 4 34 0;
#X connect 33 0 36 0;
#X connect 34 0 37 0;
#X connect 35 0 31 0;
#X connect 36 0 35 0;
#X connect 37 0 35 0;
