#N canvas 542 369 1197 637 12;
#X obj 29 581 send toNetwork;
#X obj 29 20 receive fromGUI;
#X obj 29 58 list trim;
#X text 153 19 hay un problema con este objeto \, que contradice la documentación. si lo conecto \, no funcioan, f 30;
#X text 142 579 set reaper to listen to port 54321;
#X obj 320 405 sel 1;
#X obj 391 405 sel 1;
#X obj 463 405 sel 1;
#X obj 535 405 sel 1;
#X obj 607 405 sel 1;
#X obj 679 405 sel 1;
#X obj 750 405 sel 1;
#X obj 822 405 sel 1;
#X obj 894 405 sel 1;
#X obj 966 407 sel 1;
#X obj 320 381 route /m1 /m2 /m3 /m4 /m5 /m6 /m7 /m8 /m9 /m10, f 103;
#X msg 320 432 1;
#X msg 391 432 2;
#X msg 463 432 3;
#X msg 534 432 4;
#X msg 966 432 10;
#X msg 894 432 9;
#X msg 822 432 8;
#X msg 750 432 7;
#X msg 679 432 6;
#X msg 607 432 5;
#X msg 320 525 list /marker \$1;
#X obj 29 88 route /play /stop, f 28;
#X obj 125 118 sel 1;
#X obj 29 118 sel 1;
#X msg 29 380 list /play 1, f 8;
#X msg 122 380 list /stop 1, f 8;
#X obj 29 317 delay 100;
#X msg 206 378 list /pause 1;
#X obj 29 350 t b b;
#X connect 1 0 2 0;
#X connect 2 0 27 0;
#X connect 5 0 16 0;
#X connect 6 0 17 0;
#X connect 7 0 18 0;
#X connect 8 0 19 0;
#X connect 9 0 25 0;
#X connect 10 0 24 0;
#X connect 11 0 23 0;
#X connect 12 0 22 0;
#X connect 13 0 21 0;
#X connect 14 0 20 0;
#X connect 15 0 5 0;
#X connect 15 1 6 0;
#X connect 15 2 7 0;
#X connect 15 3 8 0;
#X connect 15 4 9 0;
#X connect 15 5 10 0;
#X connect 15 6 11 0;
#X connect 15 7 12 0;
#X connect 15 8 13 0;
#X connect 15 9 14 0;
#X connect 16 0 26 0;
#X connect 17 0 26 0;
#X connect 18 0 26 0;
#X connect 19 0 26 0;
#X connect 20 0 26 0;
#X connect 21 0 26 0;
#X connect 22 0 26 0;
#X connect 23 0 26 0;
#X connect 24 0 26 0;
#X connect 25 0 26 0;
#X connect 26 0 0 0;
#X connect 27 0 29 0;
#X connect 27 1 28 0;
#X connect 27 2 15 0;
#X connect 28 0 31 0;
#X connect 29 0 32 0;
#X connect 29 0 33 0;
#X connect 30 0 0 0;
#X connect 31 0 0 0;
#X connect 32 0 34 0;
#X connect 33 0 0 0;
#X connect 34 0 30 0;
#X connect 34 1 30 0;
