#N canvas 12 629 1361 764 10;
#X msg 31 38 listen 0;
#X msg 18 5 listen 54321;
#X obj 18 64 netreceive -u -b 54321;
#X obj 18 87 oscparse;
#X text 103 4 MobMuPlat default Output port is 54321;
#X obj 18 109 list trim;
#X text 96 25 If you want to communicate via OSC with your computer \, simply change the broadcast address to your computer's IP;
#X text 165 58 through this object we should see everything that has been connected to [send toNetwork] inside the smartphone patch.;
#X obj 616 174 route shake tilts accel gyro motion accelFrequency gyroFrequency motionFrequency location distanceFilter compass, f 124;
#X floatatom 1212 243 6 0 0 1 GPS - - 12;
#X text 1212 268 GPS location update filter \, in meters (default 1.0). Val <= 0 sends all updates. Sent on request. Currently iOS only., f 53;
#X text 1142 384 device location info. See MMPExamples-GPS.pd for full explanation., f 67;
#X obj 1146 330 unpack 0 0 0 0 0 0 0 0 0, f 54;
#X floatatom 1146 360 5 0 0 0 - - - 0;
#X floatatom 1186 360 5 0 0 0 - - - 0;
#X floatatom 1226 360 5 0 0 0 - - - 0;
#X floatatom 1266 360 5 0 0 0 - - - 0;
#X floatatom 1306 360 5 0 0 0 - - - 0;
#X floatatom 1346 360 5 0 0 0 - - - 0;
#X floatatom 1386 360 5 0 0 0 - - - 0;
#X floatatom 1426 360 5 0 0 0 - - - 0;
#X floatatom 1467 360 5 0 0 0 - - - 0;
#X text 1131 414 device motion frequency \, in hertz (default 10). Sent on request. Currently iOS only.;
#X floatatom 1081 415 6 0 0 0 - - - 12;
#X floatatom 1013 462 6 0 0 0 - - - 12;
#X floatatom 952 510 6 0 0 0 - - - 12;
#X text 1065 461 gyro data frequency \, in hertz (default 10). Sent on request. Currently iOS only.;
#X text 1009 509 accelerometer and tilt data frequency \, in hertz (default 10). Sent on request. Currently iOS only.;
#X obj 748 670 unpack f f f;
#X floatatom 817 692 5 0 0 0 - - - 0;
#X floatatom 782 692 5 0 0 0 - - - 0;
#X floatatom 748 692 5 0 0 0 - - - 0;
#X obj 881 552 unpack f f f;
#X floatatom 950 574 5 0 0 0 - - - 0;
#X floatatom 915 574 5 0 0 0 - - - 0;
#X floatatom 881 574 5 0 0 0 - - - 0;
#X obj 814 615 unpack f f f;
#X floatatom 883 637 5 0 0 0 - - - 0;
#X floatatom 848 637 5 0 0 0 - - - 0;
#X floatatom 814 637 5 0 0 0 - - - 0;
#X floatatom 730 749 5 0 0 0 - - - 0;
#X floatatom 682 749 5 0 0 0 - - - 0;
#X obj 682 727 unpack f f;
#X floatatom 618 810 5 0 0 0 - - - 0;
#X text 652 809 a shake gesture occured (value is always 1). Currently iOS only., f 67;
#X text 779 748 "cooked" XY tilt values -1 to 1;
#X text 855 694 raw accelerometer data \, x \, y \, z \, range -1 to 1;
#X text 918 636 gyro data \, in radians per second \, around roll \, pitch \, yaw \, range -pi to +pi, f 77;
#X text 987 575 device attitude in space \, at roll \, pitch \, yaw \, range -pi to pi, f 63;
#X obj 18 216 unpack;
#X obj 18 133 route myXYSlider mySlider0 mySlider1 myToggle0 myToggle1 myToggle2 myToggle3 myButton0 myButton1 myButton2 myButton3, f 102;
#X text 117 111 RECEIVE GUI ELEMENTS HERE;
#X text 654 147 RECEIVE SENSOR DATA HERE;
#X text 18 757 anxefaraldo@gmail.com \, 2022-2016;
#X floatatom 72 180 6 0 0 0 - - - 12;
#X floatatom 126 180 6 0 0 0 - - - 12;
#X floatatom 180 180 6 0 0 0 - - - 12;
#X floatatom 234 180 6 0 0 0 - - - 12;
#X floatatom 289 180 6 0 0 0 - - - 12;
#X floatatom 343 180 6 0 0 0 - - - 12;
#X floatatom 397 180 6 0 0 0 - - - 12;
#X floatatom 451 180 6 0 0 0 - - - 12;
#X floatatom 506 180 6 0 0 0 - - - 12;
#X floatatom 560 180 6 0 0 0 - - - 12;
#X floatatom 18 258 6 0 0 0 - - - 12;
#X floatatom 72 258 6 0 0 0 - - - 12;
#X floatatom 1278 205 6 0 0 1 compass\ (degrees) - - 12;
#X connect 0 0 2 0;
#X connect 1 0 2 0;
#X connect 2 0 3 0;
#X connect 3 0 5 0;
#X connect 5 0 50 0;
#X connect 8 0 43 0;
#X connect 8 1 42 0;
#X connect 8 2 28 0;
#X connect 8 3 36 0;
#X connect 8 4 32 0;
#X connect 8 5 25 0;
#X connect 8 6 24 0;
#X connect 8 7 23 0;
#X connect 8 8 12 0;
#X connect 8 9 9 0;
#X connect 8 10 66 0;
#X connect 12 0 13 0;
#X connect 12 1 14 0;
#X connect 12 2 15 0;
#X connect 12 3 16 0;
#X connect 12 4 17 0;
#X connect 12 5 18 0;
#X connect 12 6 19 0;
#X connect 12 7 20 0;
#X connect 12 8 21 0;
#X connect 28 0 31 0;
#X connect 28 1 30 0;
#X connect 28 2 29 0;
#X connect 32 0 35 0;
#X connect 32 1 34 0;
#X connect 32 2 33 0;
#X connect 36 0 39 0;
#X connect 36 1 38 0;
#X connect 36 2 37 0;
#X connect 42 0 41 0;
#X connect 42 1 40 0;
#X connect 49 0 64 0;
#X connect 49 1 65 0;
#X connect 50 0 49 0;
#X connect 50 1 54 0;
#X connect 50 2 55 0;
#X connect 50 3 56 0;
#X connect 50 4 57 0;
#X connect 50 5 58 0;
#X connect 50 6 59 0;
#X connect 50 7 60 0;
#X connect 50 8 61 0;
#X connect 50 9 62 0;
#X connect 50 10 63 0;
#X connect 50 11 8 0;
