#N canvas 524 25 1029 471 10;
#X msg 16 10 listen 54321;
#X obj 16 45 netreceive -u -b 54321;
#X obj 16 67 oscparse;
#X text 112 9 MobMuPlat default Output port is 54321;
#X obj 16 89 list trim;
#X text 170 44 through this object we should see everything that has been connected to [send toNetwork] inside the smartphone patch.;
#X obj 16 313 unpack f f;
#X msg 58 622 connect localhost 54322;
#X obj 31 717 netsend -u -b;
#X obj 31 533 list prepend send;
#X obj 31 558 list trim;
#X msg 58 593 connect 192.168.1.141 54322;
#X msg 87 657 disconnect;
#X text 246 594 IP address of smartphone;
#X text 228 621 MMP listens on port 54322;
#X text 31 743 this way we can send messages to the smartphone patch \, routed via [receive fromNetwork], f 92;
#X obj 16 111 route tilts compass location distanceFilter, f 62;
#X obj 283 141 print DF;
#X obj 31 475 oscformat enableLocation;
#X obj 389 475 oscformat getDistanceFilter;
#X obj 207 475 oscformat setDistanceFilter;
#X obj 194 141 unpack f f f f;
#X obj 31 440 tgl 25 0 empty empty empty 0 -10 0 10 #e4e4e4 #4d4d4d #373737 0 1;
#X obj 207 440 tgl 25 0 empty empty empty 0 -10 0 10 #e4e4e4 #4d4d4d #373737 0 1;
#X obj 389 440 tgl 25 0 empty empty empty 0 -10 0 10 #e4e4e4 #4d4d4d #373737 0 1;
#X floatatom 194 267 7 0 0 1 latitude\ (degrees) - - 16;
#X floatatom 214 233 7 0 0 1 longitude\ (degrees) - - 16;
#X floatatom 105 313 7 0 0 1 orientation\ (degrees) - - 16;
#X floatatom 16 381 7 0 0 1 orientation\ (degrees) - - 16;
#X floatatom 62 348 7 0 0 1 orientation\ (degrees) - - 16;
#X floatatom 236 201 7 0 0 1 altitude\ (degrees) - - 16;
#X floatatom 256 167 7 0 0 1 position\ accuracy\ (meters) - - 16;
#X connect 0 0 1 0;
#X connect 1 0 2 0;
#X connect 2 0 4 0;
#X connect 4 0 16 0;
#X connect 6 0 28 0;
#X connect 6 1 29 0;
#X connect 7 0 8 0;
#X connect 9 0 10 0;
#X connect 10 0 8 0;
#X connect 11 0 8 0;
#X connect 12 0 8 0;
#X connect 16 0 6 0;
#X connect 16 1 27 0;
#X connect 16 2 21 0;
#X connect 16 3 17 0;
#X connect 18 0 9 0;
#X connect 19 0 9 0;
#X connect 20 0 9 0;
#X connect 21 0 25 0;
#X connect 21 1 26 0;
#X connect 21 2 30 0;
#X connect 21 3 31 0;
#X connect 22 0 18 0;
#X connect 23 0 20 0;
#X connect 24 0 19 0;
