#N canvas 73 603 600 441 10;
#X msg 38 58 listen 0;
#X msg 17 16 listen 54321;
#X obj 17 104 netreceive -u -b 54321;
#X obj 17 135 oscparse;
#X text 108 15 MobMuPlat default Output port is 54321;
#X obj 17 164 list trim;
#X obj 17 236 print fromMMP;
#X obj 87 198 unpack s f;
#X floatatom 136 234 5 0 0 0 - - - 0;
#X msg 307 295 connect localhost 54322;
#X obj 136 395 netsend -u -b;
#X obj 136 278 list prepend send;
#X obj 136 303 list trim;
#X obj 136 254 oscformat receiveSlider;
#X msg 328 330 disconnect;
#X text 487 253 IP address of smartphone;
#X text 473 294 MMP listens on port 54322;
#X text 230 391 this way we can send messages to the smartphone patch \, routed via [receive fromNetwork];
#X text 108 43 If you want to communicate via OSC with your computer \, simply change the broadcast address to your computer's IP;
#X text 164 98 through this object we should see everything that has been connected to [send toNetwork] inside the smartphone patch.;
#X msg 301 254 connect 192.168.1.144 54322;
#X connect 0 0 2 0;
#X connect 1 0 2 0;
#X connect 2 0 3 0;
#X connect 3 0 5 0;
#X connect 5 0 7 0;
#X connect 5 0 6 0;
#X connect 7 1 8 0;
#X connect 8 0 13 0;
#X connect 9 0 10 0;
#X connect 11 0 12 0;
#X connect 12 0 10 0;
#X connect 13 0 11 0;
#X connect 14 0 10 0;
#X connect 20 0 10 0;
