#N canvas 904 25 789 923 12;
#X obj 29 728 *~;
#X obj 47 703 line~;
#X msg 47 676 \$1 30;
#X obj 29 92 * 27.5;
#X obj 320 76 receive fromGUI;
#X obj 320 97 list trim;
#X obj 320 147 s vol;
#X obj 156 280 send toGUI;
#X obj 47 503 r vol;
#X obj 47 581 *, f 5;
#X obj 29 41 r harm;
#X obj 401 147 s harm;
#X obj 29 65 + 1;
#X obj 47 555 t f f;
#X obj 29 865 expr~ atan($v1);
#X obj 29 888 *~ 0.63662;
#X obj 19 918 dac~;
#X obj 47 530 * 1.414;
#X msg 48 633 0;
#X obj 48 607 moses 0.0001;
#X obj 29 448 *~;
#X obj 29 473 +~, f 13;
#X obj 117 447 *~, f 9;
#X obj 177 423 line~;
#X obj 47 424 line~;
#X obj 177 328 r square;
#X obj 492 144 s square;
#X msg 155 253 list /vis_freq \$1;
#X obj 155 217 / 32;
#X obj 574 145 s lfo;
#X obj 85 68 r lfo;
#X obj 89 189 route 0 1;
#X msg 29 162 \$2 \$1;
#X obj 85 93 t b f;
#X obj 29 324 cos~;
#X obj 47 376 == 0;
#X msg 177 399 \$1 100;
#X msg 47 400 \$1 100;
#X obj 320 120 route /volume /harmonic /square /lfo /switch, f 59
;
#X obj 655 149 s switch;
#X obj 47 753 r switch;
#X obj 47 812 line~;
#X msg 47 783 \$1 30;
#X obj 29 837 *~;
#X obj 29 253 phasor~ 27.5;
#X obj 29 138 pack f 0;
#X obj 227 165 loadbang;
#X msg 227 193 0;
#X obj 117 365 expr~ if ($v1 > 0.5 \, 1 \, -1);
#X connect 0 0 43 0;
#X connect 1 0 0 1;
#X connect 2 0 1 0;
#X connect 3 0 45 0;
#X connect 4 0 5 0;
#X connect 5 0 38 0;
#X connect 8 0 17 0;
#X connect 9 0 19 0;
#X connect 10 0 12 0;
#X connect 12 0 3 0;
#X connect 13 0 9 0;
#X connect 13 1 9 1;
#X connect 14 0 15 0;
#X connect 15 0 16 1;
#X connect 15 0 16 0;
#X connect 17 0 13 0;
#X connect 18 0 2 0;
#X connect 19 0 18 0;
#X connect 19 1 2 0;
#X connect 20 0 21 0;
#X connect 21 0 0 0;
#X connect 22 0 21 1;
#X connect 23 0 22 1;
#X connect 24 0 20 1;
#X connect 25 0 36 0;
#X connect 25 0 35 0;
#X connect 27 0 7 0;
#X connect 28 0 27 0;
#X connect 28 0 44 0;
#X connect 30 0 33 0;
#X connect 31 0 27 0;
#X connect 31 0 44 0;
#X connect 31 1 28 0;
#X connect 32 0 31 0;
#X connect 33 0 45 0;
#X connect 33 1 45 1;
#X connect 34 0 20 0;
#X connect 35 0 37 0;
#X connect 36 0 23 0;
#X connect 37 0 24 0;
#X connect 38 0 6 0;
#X connect 38 1 11 0;
#X connect 38 2 26 0;
#X connect 38 3 29 0;
#X connect 38 4 39 0;
#X connect 40 0 42 0;
#X connect 41 0 43 1;
#X connect 42 0 41 0;
#X connect 43 0 14 0;
#X connect 44 0 34 0;
#X connect 44 0 48 0;
#X connect 45 0 32 0;
#X connect 46 0 47 0;
#X connect 47 0 36 0;
#X connect 47 0 35 0;
#X connect 48 0 22 0;
