#N canvas 479 25 813 1173 12;
#X obj 34 879 *~;
#X obj 52 854 line~;
#X msg 52 827 \$1 30;
#X obj 94 126 * 27.5;
#X obj 161 414 send toGUI;
#X obj 94 99 + 1;
#X obj 34 936 expr~ atan($v1);
#X obj 34 959 *~ 0.63662;
#X msg 52 794 0;
#X obj 52 768 moses 0.0001;
#X obj 34 591 *~;
#X obj 34 617 +~, f 13;
#X obj 122 591 *~, f 9;
#X obj 182 567 line~;
#X obj 52 567 line~;
#X obj 160 252 / 32;
#X obj 94 223 route 0 1;
#X msg 94 196 \$2 \$1;
#X obj 165 127 t b f;
#X obj 34 458 cos~;
#X obj 52 519 == 0;
#X msg 182 543 \$1 100;
#X msg 52 543 \$1 100;
#X obj 150 768 line~;
#X msg 150 742 \$1 30;
#X obj 34 908 *~, f 17;
#X obj 34 287 phasor~ 27.5;
#X obj 94 172 pack f 0;
#X obj 245 425 loadbang;
#X obj 122 511 expr~ if ($v1 > 0.5 \, 1 \, -1);
#X msg 160 387 list /vis_freq1 \$1;
#X obj 34 1016 dac~ 1;
#X obj 52 742 pow 4;
#X obj 52 646 receive fromGUI;
#X obj 52 670 list trim;
#X obj 94 32 receive fromGUI;
#X obj 94 56 list trim;
#X obj 94 78 route /harmonic1 /lfo1 /square1;
#X obj 236 453 f 0;
#X obj 52 717 * 1.4143;
#X obj 409 865 *~;
#X obj 427 840 line~;
#X msg 427 813 \$1 30;
#X obj 469 112 * 27.5;
#X obj 535 400 send toGUI;
#X obj 469 85 + 1;
#X obj 409 922 expr~ atan($v1);
#X obj 409 945 *~ 0.63662;
#X msg 427 780 0;
#X obj 427 754 moses 0.0001;
#X obj 409 568 *~;
#X obj 409 603 +~, f 13;
#X obj 497 577 *~, f 9;
#X obj 557 553 line~;
#X obj 427 544 line~;
#X obj 535 238 / 32;
#X obj 469 209 route 0 1;
#X msg 469 182 \$2 \$1;
#X obj 540 113 t b f;
#X obj 409 444 cos~;
#X obj 427 496 == 0;
#X msg 557 529 \$1 100;
#X msg 427 520 \$1 100;
#X obj 525 754 line~;
#X msg 525 728 \$1 30;
#X obj 409 894 *~, f 17;
#X obj 409 273 phasor~ 27.5;
#X obj 469 158 pack f 0;
#X obj 620 411 loadbang;
#X obj 497 492 expr~ if ($v1 > 0.5 \, 1 \, -1);
#X obj 427 728 pow 4;
#X obj 427 632 receive fromGUI;
#X obj 427 656 list trim;
#X obj 469 18 receive fromGUI;
#X obj 469 42 list trim;
#X obj 611 439 f 0;
#X obj 427 703 * 1.4143;
#X obj 469 64 route /harmonic2 /lfo2 /square2;
#X msg 535 373 list /vis_freq2 \$1;
#X obj 427 678 route /volume2 /switch2;
#X obj 192 1077 dac~ 2;
#X obj 535 313 int;
#X obj 160 325 int;
#X obj 535 337 / 10;
#X obj 535 289 * 10;
#X obj 160 301 * 10;
#X obj 160 349 / 10;
#X obj 52 692 route /volume1 /switch1 /link, f 32;
#X obj 192 1017 *~;
#X obj 192 1052 +~, f 13;
#X obj 280 1026 *~, f 9;
#X obj 210 993 line~;
#X msg 210 969 \$1 100;
#X obj 280 912 f 0;
#X obj 280 992 line~;
#X msg 280 968 \$1 100;
#X floatatom 246 752 5 0 0 0 - - - 0;
#X obj 289 882 loadbang;
#X obj 280 943 == 0;
#X connect 0 0 25 0;
#X connect 1 0 0 1;
#X connect 2 0 1 0;
#X connect 3 0 27 0;
#X connect 5 0 3 0;
#X connect 6 0 7 0;
#X connect 7 0 31 0;
#X connect 7 0 88 0;
#X connect 8 0 2 0;
#X connect 9 0 8 0;
#X connect 9 1 2 0;
#X connect 10 0 11 0;
#X connect 11 0 0 0;
#X connect 12 0 11 1;
#X connect 13 0 12 1;
#X connect 14 0 10 1;
#X connect 15 0 26 0;
#X connect 15 0 85 0;
#X connect 16 0 26 0;
#X connect 16 0 85 0;
#X connect 16 1 15 0;
#X connect 17 0 16 0;
#X connect 18 0 27 0;
#X connect 18 1 27 1;
#X connect 19 0 10 0;
#X connect 20 0 22 0;
#X connect 21 0 13 0;
#X connect 22 0 14 0;
#X connect 23 0 25 1;
#X connect 24 0 23 0;
#X connect 25 0 6 0;
#X connect 26 0 19 0;
#X connect 26 0 29 0;
#X connect 27 0 17 0;
#X connect 28 0 38 0;
#X connect 29 0 12 0;
#X connect 30 0 4 0;
#X connect 32 0 9 0;
#X connect 33 0 34 0;
#X connect 34 0 87 0;
#X connect 35 0 36 0;
#X connect 36 0 37 0;
#X connect 37 0 5 0;
#X connect 37 1 18 0;
#X connect 37 2 38 0;
#X connect 38 0 21 0;
#X connect 38 0 20 0;
#X connect 39 0 32 0;
#X connect 40 0 65 0;
#X connect 41 0 40 1;
#X connect 42 0 41 0;
#X connect 43 0 67 0;
#X connect 45 0 43 0;
#X connect 46 0 47 0;
#X connect 47 0 90 1;
#X connect 48 0 42 0;
#X connect 49 0 48 0;
#X connect 49 1 42 0;
#X connect 50 0 51 0;
#X connect 51 0 40 0;
#X connect 52 0 51 1;
#X connect 53 0 52 1;
#X connect 54 0 50 1;
#X connect 55 0 66 0;
#X connect 55 0 84 0;
#X connect 56 0 66 0;
#X connect 56 0 84 0;
#X connect 56 1 55 0;
#X connect 57 0 56 0;
#X connect 58 0 67 0;
#X connect 58 1 67 1;
#X connect 59 0 50 0;
#X connect 60 0 62 0;
#X connect 61 0 53 0;
#X connect 62 0 54 0;
#X connect 63 0 65 1;
#X connect 64 0 63 0;
#X connect 65 0 46 0;
#X connect 66 0 59 0;
#X connect 66 0 69 0;
#X connect 67 0 57 0;
#X connect 68 0 75 0;
#X connect 69 0 52 0;
#X connect 70 0 49 0;
#X connect 71 0 72 0;
#X connect 72 0 79 0;
#X connect 73 0 74 0;
#X connect 74 0 77 0;
#X connect 75 0 61 0;
#X connect 75 0 60 0;
#X connect 76 0 70 0;
#X connect 77 0 45 0;
#X connect 77 1 58 0;
#X connect 77 2 75 0;
#X connect 78 0 44 0;
#X connect 79 0 76 0;
#X connect 79 1 64 0;
#X connect 81 0 83 0;
#X connect 82 0 86 0;
#X connect 83 0 78 0;
#X connect 84 0 81 0;
#X connect 85 0 82 0;
#X connect 86 0 30 0;
#X connect 87 0 39 0;
#X connect 87 1 24 0;
#X connect 87 2 93 0;
#X connect 88 0 89 0;
#X connect 89 0 80 0;
#X connect 90 0 89 1;
#X connect 91 0 88 1;
#X connect 92 0 91 0;
#X connect 93 0 92 0;
#X connect 93 0 98 0;
#X connect 94 0 90 0;
#X connect 95 0 94 0;
#X connect 97 0 93 0;
#X connect 98 0 95 0;
