#N canvas 112 341 1691 887 12;
#X obj 24 32 receive fromGUI;
#X obj 24 56 list trim;
#X obj 251 241 f 0;
#X obj 78 311 noise~;
#X obj 24 252 cos~;
#X obj 78 227 expr~ if ($v1 > 0.5 \, 1 \, -1), f 14;
#X obj 24 197 phasor~ 32;
#N canvas 92 117 450 300 switch-signal 0;
#X obj 87 182 *~;
#X obj 87 208 +~, f 13;
#X obj 105 158 line~;
#X obj 105 110 == 0;
#X msg 105 134 \$1 100;
#X obj 175 180 *~, f 9;
#X obj 235 156 line~;
#X msg 235 132 \$1 100;
#X obj 87 35 inlet~;
#X obj 175 36 inlet~;
#X obj 87 234 outlet~;
#X obj 235 36 inlet;
#X connect 0 0 1 0;
#X connect 1 0 10 0;
#X connect 2 0 0 1;
#X connect 3 0 4 0;
#X connect 4 0 2 0;
#X connect 5 0 1 1;
#X connect 6 0 5 1;
#X connect 7 0 6 0;
#X connect 8 0 0 0;
#X connect 9 0 5 0;
#X connect 11 0 7 0;
#X connect 11 0 3 0;
#X restore 24 337 pd switch-signal;
#N canvas 92 117 450 300 switch-signal 0;
#X obj 87 182 *~;
#X obj 87 208 +~, f 13;
#X obj 105 158 line~;
#X obj 105 110 == 0;
#X msg 105 134 \$1 100;
#X obj 175 180 *~, f 9;
#X obj 235 156 line~;
#X msg 235 132 \$1 100;
#X obj 87 35 inlet~;
#X obj 175 36 inlet~;
#X obj 87 234 outlet~;
#X obj 235 36 inlet;
#X connect 0 0 1 0;
#X connect 1 0 10 0;
#X connect 2 0 0 1;
#X connect 3 0 4 0;
#X connect 4 0 2 0;
#X connect 5 0 1 1;
#X connect 6 0 5 1;
#X connect 7 0 6 0;
#X connect 8 0 0 0;
#X connect 9 0 5 0;
#X connect 11 0 7 0;
#X connect 11 0 3 0;
#X restore 24 280 pd switch-signal;
#X obj 201 240 f 0;
#X obj 86 136 t f f;
#X obj 24 717 *~;
#X obj 42 692 line~;
#X msg 42 665 \$1 30;
#X obj 24 774 expr~ atan($v1);
#X obj 24 797 *~ 0.63662;
#X msg 42 622 0;
#X obj 42 596 moses 0.0001;
#X obj 140 623 line~;
#X msg 140 597 \$1 30;
#X obj 24 746 *~, f 17;
#X obj 42 570 pow 4;
#X obj 42 441 receive fromGUI;
#X obj 42 465 list trim;
#X obj 42 545 * 1.4143;
#X obj 363 246 pow;
#X msg 363 222 2 \$1;
#X obj 363 196 - 3;
#X obj 81 377 *~, f 40;
#N canvas 92 117 450 300 switch-signal 0;
#X obj 87 182 *~;
#X obj 87 208 +~, f 13;
#X obj 105 158 line~;
#X obj 105 110 == 0;
#X msg 105 134 \$1 100;
#X obj 175 180 *~, f 9;
#X obj 235 156 line~;
#X msg 235 132 \$1 100;
#X obj 87 35 inlet~;
#X obj 175 36 inlet~;
#X obj 87 234 outlet~;
#X obj 235 36 inlet;
#X connect 0 0 1 0;
#X connect 1 0 10 0;
#X connect 2 0 0 1;
#X connect 3 0 4 0;
#X connect 4 0 2 0;
#X connect 5 0 1 1;
#X connect 6 0 5 1;
#X connect 7 0 6 0;
#X connect 8 0 0 0;
#X connect 9 0 5 0;
#X connect 11 0 7 0;
#X connect 11 0 3 0;
#X restore 27 406 pd switch-signal;
#X obj 291 195 loadbang;
#X obj 291 241 f 0;
#N canvas 121 146 450 483 mapp-f 0;
#X obj 34 22 inlet;
#X obj 89 22 inlet;
#X obj 34 253 pow;
#X msg 34 229 2 \$1;
#X obj 34 178 * 9;
#X obj 34 203 + 4, f 6;
#X obj 100 102 t b b;
#X msg 100 127 9, f 1;
#X obj 160 102 t b b;
#X obj 89 48 t b f;
#X obj 34 109 f;
#X msg 192 127 -3, f 2;
#X msg 160 127 8, f 1;
#X msg 132 127 5, f 1;
#X obj 121 73 sel 0 1;
#X obj 34 277 outlet;
#X connect 0 0 10 0;
#X connect 1 0 9 0;
#X connect 2 0 15 0;
#X connect 3 0 2 0;
#X connect 4 0 5 0;
#X connect 5 0 3 0;
#X connect 6 0 7 0;
#X connect 6 1 13 0;
#X connect 7 0 4 1;
#X connect 8 0 12 0;
#X connect 8 1 11 0;
#X connect 9 0 10 0;
#X connect 9 1 14 0;
#X connect 10 0 4 0;
#X connect 11 0 5 1;
#X connect 12 0 4 1;
#X connect 13 0 5 1;
#X connect 14 0 6 0;
#X connect 14 1 8 0;
#X restore 24 169 pd mapp-f;
#N canvas 208 233 822 658 shape 0;
#X obj 15 13 inlet;
#X obj 17 416 outlet;
#X msg 15 66 symbol sine;
#X msg 25 96 symbol saw;
#X msg 35 126 symbol sawi;
#X msg 45 156 symbol square0;
#X msg 55 186 symbol square1;
#X msg 65 216 symbol square2;
#X msg 75 246 symbol square3;
#X msg 85 276 symbol square4;
#X obj 15 38 select 0 1 2 3 4 5 6 7;
#X connect 0 0 10 0;
#X connect 2 0 1 0;
#X connect 3 0 1 0;
#X connect 4 0 1 0;
#X connect 5 0 1 0;
#X connect 6 0 1 0;
#X connect 7 0 1 0;
#X connect 8 0 1 0;
#X connect 9 0 1 0;
#X connect 10 0 2 0;
#X connect 10 1 3 0;
#X connect 10 2 4 0;
#X connect 10 3 5 0;
#X connect 10 4 6 0;
#X connect 10 5 7 0;
#X connect 10 6 8 0;
#X connect 10 7 9 0;
#X restore 411 180 pd shape;
#X obj 24 78 route /freq1 /lfo1 /noise1 /mod1 /modfreq1 /modshape1 /moddepth1, f 64;
#N canvas 0 22 450 278 (subpatch) 0;
#X array sine 259 float 3;
#A 0 0.5 0.512271 0.524534 0.536782 0.549009 0.561205 0.573365 0.585481 0.597545 0.609551 0.62149 0.633356 0.645142 0.656841 0.668445 0.679947 0.691342 0.702621 0.713778 0.724806 0.735698 0.746449 0.757051 0.767499 0.777785 0.787904 0.79785 0.807616 0.817197 0.826586 0.835779 0.84477 0.853553 0.862124 0.870476 0.878604 0.886505 0.894173 0.901604 0.908792 0.915735 0.922427 0.928864 0.935043 0.940961 0.946612 0.951995 0.957105 0.96194 0.966496 0.970772 0.974764 0.97847 0.981888 0.985016 0.987851 0.990393 0.992639 0.994588 0.99624 0.997592 0.998645 0.999398 0.999849 1 0.999849 0.999398 0.998645 0.997592 0.99624 0.994588 0.992639 0.990393 0.987851 0.985016 0.981888 0.97847 0.974764 0.970772 0.966496 0.96194 0.957105 0.951995 0.946612 0.940961 0.935043 0.928864 0.922427 0.915735 0.908792 0.901604 0.894173 0.886505 0.878604 0.870476 0.862124 0.853553 0.84477 0.835779 0.826586 0.817197 0.807616 0.79785 0.787904 0.777785 0.767499 0.757051 0.746449 0.735698 0.724806 0.713778 0.702621 0.691342 0.679947 0.668445 0.656841 0.645142 0.633356 0.62149 0.609551 0.597545 0.585481 0.573365 0.561205 0.549009 0.536782 0.524534 0.512271 0.5 0.487729 0.475466 0.463218 0.450991 0.438795 0.426635 0.414519 0.402455 0.390449 0.37851 0.366644 0.354858 0.343159 0.331555 0.320052 0.308658 0.297379 0.286222 0.275194 0.264302 0.253551 0.242949 0.232501 0.222215 0.212096 0.20215 0.192384 0.182803 0.173414 0.164221 0.15523 0.146447 0.137876 0.129524 0.121396 0.113495 0.105827 0.0983962 0.0912076 0.0842652 0.0775732 0.0711357 0.0649565 0.0590394 0.0533879 0.0480053 0.0428951 0.0380602 0.0335036 0.029228 0.0252359 0.0215298 0.018112 0.0149844 0.0121489 0.00960737 0.00736117 0.00541174 0.00376022 0.00240764 0.00135478 0.000602275 0.000150591 0 0.000150591 0.000602275 0.00135478 0.00240764 0.00376022 0.00541174 0.00736117 0.00960737 0.0121489 0.0149844 0.018112 0.0215298 0.0252359 0.029228 0.0335036 0.0380602 0.0428951 0.0480053 0.0533879 0.0590394 0.0649565 0.0711357 0.0775732 0.0842652 0.0912076 0.0983962 0.105827 0.113495 0.121396 0.129524 0.137876 0.146447 0.15523 0.164221 0.173414 0.182803 0.192384 0.20215 0.212096 0.222215 0.232501 0.242949 0.253551 0.264302 0.275194 0.286222 0.297379 0.308658 0.320052 0.331555 0.343159 0.354858 0.366644 0.37851 0.390449 0.402455 0.414519 0.426635 0.438795 0.450991 0.463218 0.475466 0.487729 0.5 0.512271 0.524534;
#X coords 0 1 259 -1 200 140 1;
#X restore 612 40 graph;
#N canvas 0 22 450 278 (subpatch) 0;
#X array saw 259 float 3;
#A 0 0 0.00390625 0.0078125 0.0117188 0.015625 0.0195312 0.0234375 0.0273438 0.03125 0.0351562 0.0390625 0.0429688 0.046875 0.0507812 0.0546875 0.0585938 0.0625 0.0664062 0.0703125 0.0742188 0.078125 0.0820312 0.0859375 0.0898438 0.09375 0.0976562 0.101562 0.105469 0.109375 0.113281 0.117188 0.121094 0.125 0.128906 0.132812 0.136719 0.140625 0.144531 0.148438 0.152344 0.15625 0.160156 0.164062 0.167969 0.171875 0.175781 0.179688 0.183594 0.1875 0.191406 0.195312 0.199219 0.203125 0.207031 0.210938 0.214844 0.21875 0.222656 0.226562 0.230469 0.234375 0.238281 0.242188 0.246094 0.25 0.253906 0.257812 0.261719 0.265625 0.269531 0.273438 0.277344 0.28125 0.285156 0.289062 0.292969 0.296875 0.300781 0.304688 0.308594 0.3125 0.316406 0.320312 0.324219 0.328125 0.332031 0.335938 0.339844 0.34375 0.347656 0.351562 0.355469 0.359375 0.363281 0.367188 0.371094 0.375 0.378906 0.382812 0.386719 0.390625 0.394531 0.398438 0.402344 0.40625 0.410156 0.414062 0.417969 0.421875 0.425781 0.429688 0.433594 0.4375 0.441406 0.445312 0.449219 0.453125 0.457031 0.460938 0.464844 0.46875 0.472656 0.476562 0.480469 0.484375 0.488281 0.492188 0.496094 0.5 0.503906 0.507812 0.511719 0.515625 0.519531 0.523438 0.527344 0.53125 0.535156 0.539062 0.542969 0.546875 0.550781 0.554688 0.558594 0.5625 0.566406 0.570312 0.574219 0.578125 0.582031 0.585938 0.589844 0.59375 0.597656 0.601562 0.605469 0.609375 0.613281 0.617188 0.621094 0.625 0.628906 0.632812 0.636719 0.640625 0.644531 0.648438 0.652344 0.65625 0.660156 0.664062 0.667969 0.671875 0.675781 0.679688 0.683594 0.6875 0.691406 0.695312 0.699219 0.703125 0.707031 0.710938 0.714844 0.71875 0.722656 0.726562 0.730469 0.734375 0.738281 0.742188 0.746094 0.75 0.753906 0.757812 0.761719 0.765625 0.769531 0.773438 0.777344 0.78125 0.785156 0.789062 0.792969 0.796875 0.800781 0.804688 0.808594 0.8125 0.816406 0.820312 0.824219 0.828125 0.832031 0.835938 0.839844 0.84375 0.847656 0.851562 0.855469 0.859375 0.863281 0.867188 0.871094 0.875 0.878906 0.882812 0.886719 0.890625 0.894531 0.898438 0.902344 0.90625 0.910156 0.914062 0.917969 0.921875 0.925781 0.929688 0.933594 0.9375 0.941406 0.945312 0.949219 0.953125 0.957031 0.960938 0.964844 0.96875 0.972656 0.976562 0.980469 0.984375 0.988281 0.992188 0.996094 0 0.00390625 0.0078125;
#X coords 0 1 259 -1 200 140 1 0 0;
#X restore 612 200 graph;
#N canvas 0 22 450 278 (subpatch) 0;
#X array sawi 259 float 3;
#A 0 0 0.996094 0.992188 0.988281 0.984375 0.980469 0.976562 0.972656 0.96875 0.964844 0.960938 0.957031 0.953125 0.949219 0.945312 0.941406 0.9375 0.933594 0.929688 0.925781 0.921875 0.917969 0.914062 0.910156 0.90625 0.902344 0.898438 0.894531 0.890625 0.886719 0.882812 0.878906 0.875 0.871094 0.867188 0.863281 0.859375 0.855469 0.851562 0.847656 0.84375 0.839844 0.835938 0.832031 0.828125 0.824219 0.820312 0.816406 0.8125 0.808594 0.804688 0.800781 0.796875 0.792969 0.789062 0.785156 0.78125 0.777344 0.773438 0.769531 0.765625 0.761719 0.757812 0.753906 0.75 0.746094 0.742188 0.738281 0.734375 0.730469 0.726562 0.722656 0.71875 0.714844 0.710938 0.707031 0.703125 0.699219 0.695312 0.691406 0.6875 0.683594 0.679688 0.675781 0.671875 0.667969 0.664062 0.660156 0.65625 0.652344 0.648438 0.644531 0.640625 0.636719 0.632812 0.628906 0.625 0.621094 0.617188 0.613281 0.609375 0.605469 0.601562 0.597656 0.59375 0.589844 0.585938 0.582031 0.578125 0.574219 0.570312 0.566406 0.5625 0.558594 0.554688 0.550781 0.546875 0.542969 0.539062 0.535156 0.53125 0.527344 0.523438 0.519531 0.515625 0.511719 0.507812 0.503906 0.5 0.496094 0.492188 0.488281 0.484375 0.480469 0.476562 0.472656 0.46875 0.464844 0.460938 0.457031 0.453125 0.449219 0.445312 0.441406 0.4375 0.433594 0.429688 0.425781 0.421875 0.417969 0.414062 0.410156 0.40625 0.402344 0.398438 0.394531 0.390625 0.386719 0.382812 0.378906 0.375 0.371094 0.367188 0.363281 0.359375 0.355469 0.351562 0.347656 0.34375 0.339844 0.335938 0.332031 0.328125 0.324219 0.320312 0.316406 0.3125 0.308594 0.304688 0.300781 0.296875 0.292969 0.289062 0.285156 0.28125 0.277344 0.273438 0.269531 0.265625 0.261719 0.257812 0.253906 0.25 0.246094 0.242188 0.238281 0.234375 0.230469 0.226562 0.222656 0.21875 0.214844 0.210938 0.207031 0.203125 0.199219 0.195312 0.191406 0.1875 0.183594 0.179688 0.175781 0.171875 0.167969 0.164062 0.160156 0.15625 0.152344 0.148438 0.144531 0.140625 0.136719 0.132812 0.128906 0.125 0.121094 0.117188 0.113281 0.109375 0.105469 0.101562 0.0976562 0.09375 0.0898438 0.0859375 0.0820312 0.078125 0.0742188 0.0703125 0.0664062 0.0625 0.0585938 0.0546875 0.0507812 0.046875 0.0429688 0.0390625 0.0351562 0.03125 0.0273438 0.0234375 0.0195312 0.015625 0.0117188 0.0078125 0.00390625 0 0.996094 0.992188;
#X coords 0 1 259 -1 200 140 1 0 0;
#X restore 612 370 graph;
#X obj 699 530 bng 19 250 50 0 empty empty empty 0 -10 0 12 #fcfcfc #000000 #000000;
#X obj 699 554 t b b;
#X obj 636 609 phasor~ -187.5;
#X msg 411 248 set \$1;
#N canvas 0 22 450 278 (subpatch) 0;
#X array square0 259 float 3;
#A 0 1 0 0 0 0 0 0 0 0 0 0 0 0 0 0 0 0 0 0 0 0 0 0 0 0 0 0 0 0 0 0 0 0 0 0 0 0 0 0 0 0 0 0 0 0 0 0 0 0 0 0 0 0 0 0 0 0 0 0 0 0 0 0 0 0 0 0 0 0 0 0 0 0 0 0 0 0 0 0 0 0 0 0 0 0 0 0 0 0 0 0 0 0 0 0 0 0 0 0 0 0 0 0 0 0 0 0 0 0 0 0 0 0 0 0 0 0 0 0 0 0 0 0 0 0 0 0 0 0 0 0 0 0 0 0 0 0 0 0 0 0 0 0 0 0 0 0 0 0 0 0 0 0 0 0 0 0 0 0 0 0 0 0 0 0 0 0 0 0 0 0 0 0 0 0 0 0 0 0 0 0 0 0 0 0 0 0 0 0 0 0 0 0 0 0 0 0 0 0 0 0 0 0 0 0 0 0 0 0 0 0 0 0 0 0 0 0 0 0 0 0 0 0 0 1 1 1 1 1 1 1 1 1 1 1 1 1 1 1 1 1 1 1 1 1 1 1 1 1 1 1 1 1 1 1 1 1 0 0;
#X coords 0 1 259 -1 200 140 1 0 0;
#X restore 842 40 graph;
#N canvas 0 22 450 278 (subpatch) 0;
#X array square1 259 float 3;
#A 0 1 0 0 0 0 0 0 0 0 0 0 0 0 0 0 0 0 0 0 0 0 0 0 0 0 0 0 0 0 0 0 0 0 0 0 0 0 0 0 0 0 0 0 0 0 0 0 0 0 0 0 0 0 0 0 0 0 0 0 0 0 0 0 0 0 0 0 0 0 0 0 0 0 0 0 0 0 0 0 0 0 0 0 0 0 0 0 0 0 0 0 0 0 0 0 0 0 0 0 0 0 0 0 0 0 0 0 0 0 0 0 0 0 0 0 0 0 0 0 0 0 0 0 0 0 0 0 0 0 0 0 0 0 0 0 0 0 0 0 0 0 0 0 0 0 0 0 0 0 0 0 0 0 0 0 0 0 0 0 0 0 0 0 0 0 0 0 0 0 0 0 0 0 0 0 0 0 0 0 0 0 0 0 0 0 0 0 0 0 0 0 0 1 1 1 1 1 1 1 1 1 1 1 1 1 1 1 1 1 1 1 1 1 1 1 1 1 1 1 1 1 1 1 1 1 1 1 1 1 1 1 1 1 1 1 1 1 1 1 1 1 1 1 1 1 1 1 1 1 1 1 1 1 1 1 1 1 0 0;
#X coords 0 1 259 -1 200 140 1 0 0;
#X restore 842 200 graph;
#N canvas 0 22 450 278 (subpatch) 0;
#X array square2 259 float 3;
#A 0 0 1 1 1 1 1 1 1 1 1 1 1 1 1 1 1 1 1 1 1 1 1 1 1 1 1 1 1 1 1 1 1 1 1 1 1 1 1 1 1 1 1 1 1 1 1 1 1 1 1 1 1 1 1 1 1 1 1 1 1 1 1 1 1 1 1 1 1 1 1 1 1 1 1 1 1 1 1 1 1 1 1 1 1 1 1 1 1 1 1 1 1 1 1 1 1 1 1 1 1 1 1 1 1 1 1 1 1 1 1 1 1 1 1 1 1 1 1 1 1 1 1 1 1 1 1 1 1 0 0 0 0 0 0 0 0 0 0 0 0 0 0 0 0 0 0 0 0 0 0 0 0 0 0 0 0 0 0 0 0 0 0 0 0 0 0 0 0 0 0 0 0 0 0 0 0 0 0 0 0 0 0 0 0 0 0 0 0 0 0 0 0 0 0 0 0 0 0 0 0 0 0 0 0 0 0 0 0 0 0 0 0 0 0 0 0 0 0 0 0 0 0 0 0 0 0 0 0 0 0 0 0 0 0 0 0 0 0 0 0 0 0 0 0 0 0 0 0 0 0 0 0 0 0 0 0 0 1 1;
#X coords 0 1 259 -1 200 140 1 0 0;
#X restore 842 370 graph;
#N canvas 0 22 450 278 (subpatch) 0;
#X array square3 259 float 3;
#A 0 0 1 1 1 1 1 1 1 1 1 1 1 1 1 1 1 1 1 1 1 1 1 1 1 1 1 1 1 1 1 1 1 1 1 1 1 1 1 1 1 1 1 1 1 1 1 1 1 1 1 1 1 1 1 1 1 1 1 1 1 1 1 1 1 1 1 1 1 1 1 1 1 1 1 1 1 1 1 1 1 1 1 1 1 1 1 1 1 1 1 1 1 1 1 1 1 1 1 1 1 1 1 1 1 1 1 1 1 1 1 1 1 1 1 1 1 1 1 1 1 1 1 1 1 1 1 1 1 1 1 1 1 1 1 1 1 1 1 1 1 1 1 1 1 1 1 1 1 1 1 1 1 1 1 1 1 1 1 1 1 1 1 1 1 1 1 1 1 1 1 1 1 1 1 1 1 1 1 1 1 1 1 1 1 1 1 1 1 1 1 1 1 0 0 0 0 0 0 0 0 0 0 0 0 0 0 0 0 0 0 0 0 0 0 0 0 0 0 0 0 0 0 0 0 0 0 0 0 0 0 0 0 0 0 0 0 0 0 0 0 0 0 0 0 0 0 0 0 0 0 0 0 0 0 0 0 0 1 1;
#X coords 0 1 259 -1 200 140 1 0 0;
#X restore 842 530 graph;
#N canvas 0 22 450 278 (subpatch) 0;
#X array square4 259 float 3;
#A 0 0 1 1 1 1 1 1 1 1 1 1 1 1 1 1 1 1 1 1 1 1 1 1 1 1 1 1 1 1 1 1 1 1 1 1 1 1 1 1 1 1 1 1 1 1 1 1 1 1 1 1 1 1 1 1 1 1 1 1 1 1 1 1 1 1 1 1 1 1 1 1 1 1 1 1 1 1 1 1 1 1 1 1 1 1 1 1 1 1 1 1 1 1 1 1 1 1 1 1 1 1 1 1 1 1 1 1 1 1 1 1 1 1 1 1 1 1 1 1 1 1 1 1 1 1 1 1 1 1 1 1 1 1 1 1 1 1 1 1 1 1 1 1 1 1 1 1 1 1 1 1 1 1 1 1 1 1 1 1 1 1 1 1 1 1 1 1 1 1 1 1 1 1 1 1 1 1 1 1 1 1 1 1 1 1 1 1 1 1 1 1 1 1 1 1 1 1 1 1 1 1 1 1 1 1 1 1 1 1 1 1 1 1 1 1 1 1 1 1 1 1 1 1 1 0 0 0 0 0 0 0 0 0 0 0 0 0 0 0 0 0 0 0 0 0 0 0 0 0 0 0 0 0 0 0 0 0 1 1;
#X coords 0 1 259 -1 200 140 1 0 0;
#X restore 842 710 graph;
#X msg 731 581 0;
#X obj 636 645 tabwrite~ square2;
#X obj 363 319 *~ 1, f 17;
#X obj 363 345 +~ 0, f 20;
#X obj 511 243 -;
#X obj 479 180 t f f;
#X msg 511 216 1 \$1;
#X obj 363 292 tabosc4~ sine;
#X obj 363 170 * 7;
#X obj 42 487 route /vol1 /switch1 /rec1 /play1, f 46;
#X obj 201 515 s rec1;
#X obj 281 514 s play1;
#N canvas 206 1006 1864 293 play_memories 0;
#X obj 77 21 r r_freq1;
#N canvas 643 668 450 300 uanz 0;
#X obj 46 114 outlet;
#X msg 91 35 1;
#X msg 19 54 0;
#X obj 19 33 t b a;
#X obj 19 13 inlet;
#X obj 91 15 inlet;
#X text 219 187 angel Faraldo \, 2007;
#X obj 46 93 spigot 1;
#X text 5 137 uanz: outputs only its first incoming data \, whatever a bang \, a symbol \, a number or a list. Must be reset on its right inlet.;
#X connect 1 0 7 1;
#X connect 2 0 7 1;
#X connect 3 0 2 0;
#X connect 3 1 7 0;
#X connect 4 0 3 0;
#X connect 5 0 1 0;
#X connect 7 0 0 0;
#X restore 93 85 pd uanz;
#X obj 77 174 spigot 1;
#X obj 174 21 r play1;
#X msg 130 145 0;
#X msg 174 145 1;
#X obj 174 47 sel 1;
#X obj 93 111 t b;
#X obj 27 205 outlet;
#X obj 27 50 inlet;
#N canvas 643 668 450 300 uanz 0;
#X obj 46 114 outlet;
#X msg 91 35 1;
#X msg 19 54 0;
#X obj 19 33 t b a;
#X obj 19 13 inlet;
#X obj 91 15 inlet;
#X text 219 187 angel Faraldo \, 2007;
#X obj 46 93 spigot 1;
#X text 5 137 uanz: outputs only its first incoming data \, whatever a bang \, a symbol \, a number or a list. Must be reset on its right inlet.;
#X connect 1 0 7 1;
#X connect 2 0 7 1;
#X connect 3 0 2 0;
#X connect 3 1 7 0;
#X connect 4 0 3 0;
#X connect 5 0 1 0;
#X connect 7 0 0 0;
#X restore 313 85 pd uanz;
#X obj 297 174 spigot 1;
#X obj 394 21 r play1;
#X msg 350 145 0;
#X msg 394 145 1;
#X obj 394 47 sel 1;
#X obj 313 111 t b;
#X obj 247 205 outlet;
#X obj 247 50 inlet;
#N canvas 643 668 450 300 uanz 0;
#X obj 46 114 outlet;
#X msg 91 35 1;
#X msg 19 54 0;
#X obj 19 33 t b a;
#X obj 19 13 inlet;
#X obj 91 15 inlet;
#X text 219 187 angel Faraldo \, 2007;
#X obj 46 93 spigot 1;
#X text 5 137 uanz: outputs only its first incoming data \, whatever a bang \, a symbol \, a number or a list. Must be reset on its right inlet.;
#X connect 1 0 7 1;
#X connect 2 0 7 1;
#X connect 3 0 2 0;
#X connect 3 1 7 0;
#X connect 4 0 3 0;
#X connect 5 0 1 0;
#X connect 7 0 0 0;
#X restore 553 85 pd uanz;
#X obj 537 174 spigot 1;
#X obj 634 21 r play1;
#X msg 590 145 0;
#X msg 634 145 1;
#X obj 634 47 sel 1;
#X obj 553 111 t b;
#X obj 487 205 outlet;
#X obj 487 50 inlet;
#N canvas 643 668 450 300 uanz 0;
#X obj 46 114 outlet;
#X msg 91 35 1;
#X msg 19 54 0;
#X obj 19 33 t b a;
#X obj 19 13 inlet;
#X obj 91 15 inlet;
#X text 219 187 angel Faraldo \, 2007;
#X obj 46 93 spigot 1;
#X text 5 137 uanz: outputs only its first incoming data \, whatever a bang \, a symbol \, a number or a list. Must be reset on its right inlet.;
#X connect 1 0 7 1;
#X connect 2 0 7 1;
#X connect 3 0 2 0;
#X connect 3 1 7 0;
#X connect 4 0 3 0;
#X connect 5 0 1 0;
#X connect 7 0 0 0;
#X restore 803 85 pd uanz;
#X obj 787 174 spigot 1;
#X obj 884 21 r play1;
#X msg 840 145 0;
#X msg 884 145 1;
#X obj 884 47 sel 1;
#X obj 803 111 t b;
#X obj 737 205 outlet;
#X obj 737 50 inlet;
#N canvas 643 668 450 300 uanz 0;
#X obj 46 114 outlet;
#X msg 91 35 1;
#X msg 19 54 0;
#X obj 19 33 t b a;
#X obj 19 13 inlet;
#X obj 91 15 inlet;
#X text 219 187 angel Faraldo \, 2007;
#X obj 46 93 spigot 1;
#X text 5 137 uanz: outputs only its first incoming data \, whatever a bang \, a symbol \, a number or a list. Must be reset on its right inlet.;
#X connect 1 0 7 1;
#X connect 2 0 7 1;
#X connect 3 0 2 0;
#X connect 3 1 7 0;
#X connect 4 0 3 0;
#X connect 5 0 1 0;
#X connect 7 0 0 0;
#X restore 1053 85 pd uanz;
#X obj 1037 174 spigot 1;
#X obj 1141 21 r play1;
#X msg 1090 145 0;
#X msg 1141 145 1;
#X obj 1141 47 sel 1;
#X obj 1053 111 t b;
#X obj 987 205 outlet;
#X obj 987 50 inlet;
#N canvas 643 668 450 300 uanz 0;
#X obj 46 114 outlet;
#X msg 91 35 1;
#X msg 19 54 0;
#X obj 19 33 t b a;
#X obj 19 13 inlet;
#X obj 91 15 inlet;
#X text 219 187 angel Faraldo \, 2007;
#X obj 46 93 spigot 1;
#X text 5 137 uanz: outputs only its first incoming data \, whatever a bang \, a symbol \, a number or a list. Must be reset on its right inlet.;
#X connect 1 0 7 1;
#X connect 2 0 7 1;
#X connect 3 0 2 0;
#X connect 3 1 7 0;
#X connect 4 0 3 0;
#X connect 5 0 1 0;
#X connect 7 0 0 0;
#X restore 1323 85 pd uanz;
#X obj 1307 174 spigot 1;
#X obj 1414 21 r play1;
#X msg 1360 145 0;
#X msg 1414 145 1;
#X obj 1414 47 sel 1;
#X obj 1323 111 t b;
#X obj 1257 205 outlet;
#X obj 1257 50 inlet;
#N canvas 643 668 450 300 uanz 0;
#X obj 46 114 outlet;
#X msg 91 35 1;
#X msg 19 54 0;
#X obj 19 33 t b a;
#X obj 19 13 inlet;
#X obj 91 15 inlet;
#X text 219 187 angel Faraldo \, 2007;
#X obj 46 93 spigot 1;
#X text 5 137 uanz: outputs only its first incoming data \, whatever a bang \, a symbol \, a number or a list. Must be reset on its right inlet.;
#X connect 1 0 7 1;
#X connect 2 0 7 1;
#X connect 3 0 2 0;
#X connect 3 1 7 0;
#X connect 4 0 3 0;
#X connect 5 0 1 0;
#X connect 7 0 0 0;
#X restore 1573 85 pd uanz;
#X obj 1557 174 spigot 1;
#X obj 1664 21 r play1;
#X msg 1610 145 0;
#X msg 1664 145 1;
#X obj 1664 47 sel 1;
#X obj 1573 111 t b;
#X obj 1507 205 outlet;
#X obj 1507 50 inlet;
#X obj 297 21 r r_lfo1;
#X obj 537 21 r r_noise1;
#X obj 787 21 r r_mod1;
#X obj 1037 21 r r_modfreq1;
#X obj 1307 21 r r_modshape1;
#X obj 1557 21 r r_moddepth1;
#X connect 0 0 2 0;
#X connect 1 0 7 0;
#X connect 2 0 8 0;
#X connect 3 0 6 0;
#X connect 4 0 2 1;
#X connect 5 0 2 1;
#X connect 6 0 1 1;
#X connect 6 0 5 0;
#X connect 7 0 4 0;
#X connect 9 0 1 0;
#X connect 9 0 8 0;
#X connect 10 0 16 0;
#X connect 11 0 17 0;
#X connect 12 0 15 0;
#X connect 13 0 11 1;
#X connect 14 0 11 1;
#X connect 15 0 10 1;
#X connect 15 0 14 0;
#X connect 16 0 13 0;
#X connect 18 0 10 0;
#X connect 18 0 17 0;
#X connect 19 0 25 0;
#X connect 20 0 26 0;
#X connect 21 0 24 0;
#X connect 22 0 20 1;
#X connect 23 0 20 1;
#X connect 24 0 19 1;
#X connect 24 0 23 0;
#X connect 25 0 22 0;
#X connect 27 0 19 0;
#X connect 27 0 26 0;
#X connect 28 0 34 0;
#X connect 29 0 35 0;
#X connect 30 0 33 0;
#X connect 31 0 29 1;
#X connect 32 0 29 1;
#X connect 33 0 28 1;
#X connect 33 0 32 0;
#X connect 34 0 31 0;
#X connect 36 0 28 0;
#X connect 36 0 35 0;
#X connect 37 0 43 0;
#X connect 38 0 44 0;
#X connect 39 0 42 0;
#X connect 40 0 38 1;
#X connect 41 0 38 1;
#X connect 42 0 37 1;
#X connect 42 0 41 0;
#X connect 43 0 40 0;
#X connect 45 0 37 0;
#X connect 45 0 44 0;
#X connect 46 0 52 0;
#X connect 47 0 53 0;
#X connect 48 0 51 0;
#X connect 49 0 47 1;
#X connect 50 0 47 1;
#X connect 51 0 46 1;
#X connect 51 0 50 0;
#X connect 52 0 49 0;
#X connect 54 0 46 0;
#X connect 54 0 53 0;
#X connect 55 0 61 0;
#X connect 56 0 62 0;
#X connect 57 0 60 0;
#X connect 58 0 56 1;
#X connect 59 0 56 1;
#X connect 60 0 55 1;
#X connect 60 0 59 0;
#X connect 61 0 58 0;
#X connect 63 0 55 0;
#X connect 63 0 62 0;
#X connect 64 0 11 0;
#X connect 65 0 20 0;
#X connect 66 0 29 0;
#X connect 67 0 38 0;
#X connect 68 0 47 0;
#X connect 69 0 56 0;
#X restore 24 107 pd play_memories;
#X f 55;
#N canvas 206 1006 1864 293 play_mems 0;
#N canvas 643 668 450 300 uanz 0;
#X obj 46 114 outlet;
#X msg 91 35 1;
#X msg 19 54 0;
#X obj 19 33 t b a;
#X obj 19 13 inlet;
#X obj 91 15 inlet;
#X text 219 187 angel Faraldo \, 2007;
#X obj 46 93 spigot 1;
#X text 5 137 uanz: outputs only its first incoming data \, whatever a bang \, a symbol \, a number or a list. Must be reset on its right inlet.;
#X connect 1 0 7 1;
#X connect 2 0 7 1;
#X connect 3 0 2 0;
#X connect 3 1 7 0;
#X connect 4 0 3 0;
#X connect 5 0 1 0;
#X connect 7 0 0 0;
#X restore 93 85 pd uanz;
#X obj 77 174 spigot 1;
#X obj 174 21 r play1;
#X msg 130 145 0;
#X msg 174 145 1;
#X obj 174 47 sel 1;
#X obj 93 111 t b;
#X obj 27 205 outlet;
#X obj 27 50 inlet;
#N canvas 643 668 450 300 uanz 0;
#X obj 46 114 outlet;
#X msg 91 35 1;
#X msg 19 54 0;
#X obj 19 33 t b a;
#X obj 19 13 inlet;
#X obj 91 15 inlet;
#X text 219 187 angel Faraldo \, 2007;
#X obj 46 93 spigot 1;
#X text 5 137 uanz: outputs only its first incoming data \, whatever a bang \, a symbol \, a number or a list. Must be reset on its right inlet.;
#X connect 1 0 7 1;
#X connect 2 0 7 1;
#X connect 3 0 2 0;
#X connect 3 1 7 0;
#X connect 4 0 3 0;
#X connect 5 0 1 0;
#X connect 7 0 0 0;
#X restore 313 85 pd uanz;
#X obj 297 174 spigot 1;
#X obj 394 21 r play1;
#X msg 350 145 0;
#X msg 394 145 1;
#X obj 394 47 sel 1;
#X obj 313 111 t b;
#X obj 247 205 outlet;
#X obj 247 50 inlet;
#X obj 77 21 r r_vol1;
#X obj 297 21 r r_switch1;
#X connect 0 0 6 0;
#X connect 1 0 7 0;
#X connect 2 0 5 0;
#X connect 3 0 1 1;
#X connect 4 0 1 1;
#X connect 5 0 0 1;
#X connect 5 0 4 0;
#X connect 6 0 3 0;
#X connect 8 0 0 0;
#X connect 8 0 7 0;
#X connect 9 0 15 0;
#X connect 10 0 16 0;
#X connect 11 0 14 0;
#X connect 12 0 10 1;
#X connect 13 0 10 1;
#X connect 14 0 9 1;
#X connect 14 0 13 0;
#X connect 15 0 12 0;
#X connect 17 0 9 0;
#X connect 17 0 16 0;
#X connect 18 0 1 0;
#X connect 19 0 10 0;
#X restore 42 515 pd play_mems;
#N canvas -60 121 1610 886 record_memories_1 0;
#X obj 14 27 receive fromGUI;
#X obj 14 51 list trim;
#X obj 14 73 route /freq1 /lfo1 /noise1 /mod1 /modfreq1 /modshape1 /moddepth1 /vol1 /switch1, f 190;
#X obj 1371 241 table m_freq1 1000;
#X obj 1371 271 table m_lfo1 1000;
#X obj 1371 301 table m_noise1 1000;
#X obj 1371 331 table m_mod1 1000;
#X obj 1371 361 table m_modfreq1 1000;
#X obj 1371 391 table m_modshape1 1000;
#X obj 1371 421 table m_moddepth1 1000;
#X obj 1371 451 table m_vol1 1000;
#X obj 1371 481 table m_switch1 1000;
#X obj 1369 71 r rec1;
#X obj 1419 71 r play1;
#X obj 1369 126 ||, f 7;
#X obj 1419 97 t b f;
#X obj 1369 152 change 0;
#X obj 1369 204 s m_clock1;
#X obj 26 100 r m_clock1;
#X obj 239 174 f 0;
#X obj 272 174 + 1;
#X obj 14 422 tabwrite m_freq1;
#X obj 14 399 f;
#X obj 26 254 t b b, f 12;
#X obj 1369 178 metro 100;
#X obj 107 100 r rec1;
#X obj 26 150 spigot 0, f 12;
#X obj 107 125 t f b, f 22;
#X msg 257 149 0;
#X obj 239 265 s m_length1;
#X obj 19 780 tabread m_freq1;
#X obj 659 687 mod;
#X obj 677 661 r m_length1;
#X obj 659 458 r m_clock1;
#X obj 659 590 spigot 0;
#X obj 712 564 t f b;
#X msg 744 589 0;
#X obj 659 635 f 0;
#X obj 692 635 + 1;
#X obj 712 484 r rec1;
#X obj 762 484 r play1;
#X obj 762 510 t b f;
#X obj 712 539 <, f 7;
#X obj 19 807 s r_freq1;
#X obj 179 807 s r_lfo1;
#X obj 339 807 s r_noise1;
#X obj 499 807 s r_mod1;
#X obj 659 807 s r_modfreq1;
#X obj 819 807 s r_modshape1;
#X obj 979 807 s r_moddepth1;
#X obj 1139 807 s r_vol1;
#X obj 1299 807 s r_switch1;
#X obj 1299 780 tabread m_switch1;
#X obj 1139 780 tabread m_vol1;
#X obj 979 780 tabread m_moddepth1;
#X obj 819 780 tabread m_modshape1;
#X obj 659 780 tabread m_modfreq1;
#X obj 499 780 tabread m_mod1;
#X obj 339 780 tabread m_noise1;
#X obj 179 780 tabread m_lfo1;
#X obj 224 400 f;
#X obj 224 423 tabwrite m_lfo1;
#X obj 344 400 f;
#X obj 344 423 tabwrite m_noise1;
#X obj 474 400 f;
#X obj 594 400 f;
#X obj 474 423 tabwrite m_mod1;
#X obj 594 423 tabwrite m_modfreq1;
#X obj 744 400 f;
#X obj 744 423 tabwrite m_modshape1;
#X obj 904 400 f;
#X obj 904 423 tabwrite m_moddepth1;
#X obj 1064 400 f;
#X obj 1064 423 tabwrite m_vol1;
#X obj 1184 400 f;
#X obj 1184 423 tabwrite m_switch1;
#X connect 0 0 1 0;
#X connect 1 0 2 0;
#X connect 2 0 22 0;
#X connect 2 1 60 0;
#X connect 2 2 62 0;
#X connect 2 3 64 0;
#X connect 2 4 65 0;
#X connect 2 5 68 0;
#X connect 2 6 70 0;
#X connect 2 7 72 0;
#X connect 2 8 74 0;
#X connect 12 0 14 0;
#X connect 13 0 15 0;
#X connect 14 0 16 0;
#X connect 15 0 14 0;
#X connect 15 1 14 1;
#X connect 16 0 24 0;
#X connect 18 0 26 0;
#X connect 19 0 20 0;
#X connect 19 0 21 1;
#X connect 19 0 29 0;
#X connect 19 0 61 1;
#X connect 19 0 63 1;
#X connect 19 0 66 1;
#X connect 19 0 67 1;
#X connect 19 0 69 1;
#X connect 19 0 71 1;
#X connect 19 0 73 1;
#X connect 19 0 75 1;
#X connect 20 0 19 1;
#X connect 22 0 21 0;
#X connect 23 0 22 0;
#X connect 23 0 60 0;
#X connect 23 0 62 0;
#X connect 23 0 64 0;
#X connect 23 0 65 0;
#X connect 23 0 68 0;
#X connect 23 0 70 0;
#X connect 23 0 72 0;
#X connect 23 0 74 0;
#X connect 23 1 19 0;
#X connect 24 0 17 0;
#X connect 25 0 27 0;
#X connect 26 0 23 0;
#X connect 27 0 26 1;
#X connect 27 1 28 0;
#X connect 28 0 19 1;
#X connect 30 0 43 0;
#X connect 31 0 30 0;
#X connect 31 0 59 0;
#X connect 31 0 58 0;
#X connect 31 0 57 0;
#X connect 31 0 56 0;
#X connect 31 0 55 0;
#X connect 31 0 54 0;
#X connect 31 0 53 0;
#X connect 31 0 52 0;
#X connect 32 0 31 1;
#X connect 33 0 34 0;
#X connect 34 0 37 0;
#X connect 35 0 34 1;
#X connect 35 1 36 0;
#X connect 36 0 37 1;
#X connect 37 0 38 0;
#X connect 37 0 31 0;
#X connect 38 0 37 1;
#X connect 39 0 42 0;
#X connect 40 0 41 0;
#X connect 41 0 42 0;
#X connect 41 1 42 1;
#X connect 42 0 35 0;
#X connect 52 0 51 0;
#X connect 53 0 50 0;
#X connect 54 0 49 0;
#X connect 55 0 48 0;
#X connect 56 0 47 0;
#X connect 57 0 46 0;
#X connect 58 0 45 0;
#X connect 59 0 44 0;
#X connect 60 0 61 0;
#X connect 62 0 63 0;
#X connect 64 0 66 0;
#X connect 65 0 67 0;
#X connect 68 0 69 0;
#X connect 70 0 71 0;
#X connect 72 0 73 0;
#X connect 74 0 75 0;
#X restore 144 32 pd record_memories_1;
#X obj 1105 35 receive fromGUI;
#X obj 1105 59 list trim;
#X obj 1332 244 f 0;
#X obj 1159 314 noise~;
#X obj 1105 255 cos~;
#X obj 1159 230 expr~ if ($v1 > 0.5 \, 1 \, -1), f 14;
#X obj 1105 200 phasor~ 32;
#N canvas 92 117 450 300 switch-signal 0;
#X obj 87 182 *~;
#X obj 87 208 +~, f 13;
#X obj 105 158 line~;
#X obj 105 110 == 0;
#X msg 105 134 \$1 100;
#X obj 175 180 *~, f 9;
#X obj 235 156 line~;
#X msg 235 132 \$1 100;
#X obj 87 35 inlet~;
#X obj 175 36 inlet~;
#X obj 87 234 outlet~;
#X obj 235 36 inlet;
#X connect 0 0 1 0;
#X connect 1 0 10 0;
#X connect 2 0 0 1;
#X connect 3 0 4 0;
#X connect 4 0 2 0;
#X connect 5 0 1 1;
#X connect 6 0 5 1;
#X connect 7 0 6 0;
#X connect 8 0 0 0;
#X connect 9 0 5 0;
#X connect 11 0 7 0;
#X connect 11 0 3 0;
#X restore 1105 340 pd switch-signal;
#N canvas 92 117 450 300 switch-signal 0;
#X obj 87 182 *~;
#X obj 87 208 +~, f 13;
#X obj 105 158 line~;
#X obj 105 110 == 0;
#X msg 105 134 \$1 100;
#X obj 175 180 *~, f 9;
#X obj 235 156 line~;
#X msg 235 132 \$1 100;
#X obj 87 35 inlet~;
#X obj 175 36 inlet~;
#X obj 87 234 outlet~;
#X obj 235 36 inlet;
#X connect 0 0 1 0;
#X connect 1 0 10 0;
#X connect 2 0 0 1;
#X connect 3 0 4 0;
#X connect 4 0 2 0;
#X connect 5 0 1 1;
#X connect 6 0 5 1;
#X connect 7 0 6 0;
#X connect 8 0 0 0;
#X connect 9 0 5 0;
#X connect 11 0 7 0;
#X connect 11 0 3 0;
#X restore 1105 283 pd switch-signal;
#X obj 1282 243 f 0;
#X obj 1167 139 t f f;
#X obj 1105 720 *~;
#X obj 1123 695 line~;
#X msg 1123 668 \$1 30;
#X obj 1105 777 expr~ atan($v1);
#X obj 1105 800 *~ 0.63662;
#X msg 1123 625 0;
#X obj 1123 599 moses 0.0001;
#X obj 1221 626 line~;
#X msg 1221 600 \$1 30;
#X obj 1105 749 *~, f 17;
#X obj 1123 573 pow 4;
#X obj 1123 444 receive fromGUI;
#X obj 1123 468 list trim;
#X obj 1123 548 * 1.4143;
#X obj 1444 249 pow;
#X msg 1444 225 2 \$1;
#X obj 1444 199 - 3;
#X obj 1162 380 *~, f 40;
#N canvas 92 117 450 300 switch-signal 0;
#X obj 87 182 *~;
#X obj 87 208 +~, f 13;
#X obj 105 158 line~;
#X obj 105 110 == 0;
#X msg 105 134 \$1 100;
#X obj 175 180 *~, f 9;
#X obj 235 156 line~;
#X msg 235 132 \$1 100;
#X obj 87 35 inlet~;
#X obj 175 36 inlet~;
#X obj 87 234 outlet~;
#X obj 235 36 inlet;
#X connect 0 0 1 0;
#X connect 1 0 10 0;
#X connect 2 0 0 1;
#X connect 3 0 4 0;
#X connect 4 0 2 0;
#X connect 5 0 1 1;
#X connect 6 0 5 1;
#X connect 7 0 6 0;
#X connect 8 0 0 0;
#X connect 9 0 5 0;
#X connect 11 0 7 0;
#X connect 11 0 3 0;
#X restore 1108 409 pd switch-signal;
#X obj 1372 198 loadbang;
#X obj 1372 244 f 0;
#N canvas 121 146 450 483 mapp-f 0;
#X obj 34 22 inlet;
#X obj 89 22 inlet;
#X obj 34 253 pow;
#X msg 34 229 2 \$1;
#X obj 34 178 * 9;
#X obj 34 203 + 4, f 6;
#X obj 100 102 t b b;
#X msg 100 127 9, f 1;
#X obj 160 102 t b b;
#X obj 89 48 t b f;
#X obj 34 109 f;
#X msg 192 127 -3, f 2;
#X msg 160 127 8, f 1;
#X msg 132 127 5, f 1;
#X obj 121 73 sel 0 1;
#X obj 34 277 outlet;
#X connect 0 0 10 0;
#X connect 1 0 9 0;
#X connect 2 0 15 0;
#X connect 3 0 2 0;
#X connect 4 0 5 0;
#X connect 5 0 3 0;
#X connect 6 0 7 0;
#X connect 6 1 13 0;
#X connect 7 0 4 1;
#X connect 8 0 12 0;
#X connect 8 1 11 0;
#X connect 9 0 10 0;
#X connect 9 1 14 0;
#X connect 10 0 4 0;
#X connect 11 0 5 1;
#X connect 12 0 4 1;
#X connect 13 0 5 1;
#X connect 14 0 6 0;
#X connect 14 1 8 0;
#X restore 1105 172 pd mapp-f;
#N canvas 208 233 822 658 shape 0;
#X obj 15 13 inlet;
#X obj 17 416 outlet;
#X msg 15 66 symbol sine;
#X msg 25 96 symbol saw;
#X msg 35 126 symbol sawi;
#X msg 45 156 symbol square0;
#X msg 55 186 symbol square1;
#X msg 65 216 symbol square2;
#X msg 75 246 symbol square3;
#X msg 85 276 symbol square4;
#X obj 15 38 select 0 1 2 3 4 5 6 7;
#X connect 0 0 10 0;
#X connect 2 0 1 0;
#X connect 3 0 1 0;
#X connect 4 0 1 0;
#X connect 5 0 1 0;
#X connect 6 0 1 0;
#X connect 7 0 1 0;
#X connect 8 0 1 0;
#X connect 9 0 1 0;
#X connect 10 0 2 0;
#X connect 10 1 3 0;
#X connect 10 2 4 0;
#X connect 10 3 5 0;
#X connect 10 4 6 0;
#X connect 10 5 7 0;
#X connect 10 6 8 0;
#X connect 10 7 9 0;
#X restore 1492 183 pd shape;
#X obj 1105 81 route /freq2 /lfo2 /noise2 /mod2 /modfreq2 /modshape2 /moddepth2, f 64;
#X msg 1492 251 set \$1;
#X obj 1444 322 *~ 1, f 17;
#X obj 1444 348 +~ 0, f 20;
#X obj 1592 246 -;
#X obj 1560 183 t f f;
#X msg 1592 219 1 \$1;
#X obj 1444 295 tabosc4~ sine;
#X obj 1444 173 * 7;
#X obj 1123 490 route /vol2 /switch2 /rec2 /play2, f 46;
#X obj 1282 518 s rec2;
#X obj 1362 517 s play2;
#N canvas 206 1006 1864 293 play_memories 0;
#X obj 77 21 r r_freq2;
#N canvas 643 668 450 300 uanz 0;
#X obj 46 114 outlet;
#X msg 91 35 1;
#X msg 19 54 0;
#X obj 19 33 t b a;
#X obj 19 13 inlet;
#X obj 91 15 inlet;
#X text 219 187 angel Faraldo \, 2007;
#X obj 46 93 spigot 1;
#X text 5 137 uanz: outputs only its first incoming data \, whatever a bang \, a symbol \, a number or a list. Must be reset on its right inlet.;
#X connect 1 0 7 1;
#X connect 2 0 7 1;
#X connect 3 0 2 0;
#X connect 3 1 7 0;
#X connect 4 0 3 0;
#X connect 5 0 1 0;
#X connect 7 0 0 0;
#X restore 93 85 pd uanz;
#X obj 77 174 spigot 1;
#X obj 174 21 r play2;
#X msg 130 145 0;
#X msg 174 145 1;
#X obj 174 47 sel 1;
#X obj 93 111 t b;
#X obj 27 205 outlet;
#X obj 27 50 inlet;
#N canvas 643 668 450 300 uanz 0;
#X obj 46 114 outlet;
#X msg 91 35 1;
#X msg 19 54 0;
#X obj 19 33 t b a;
#X obj 19 13 inlet;
#X obj 91 15 inlet;
#X text 219 187 angel Faraldo \, 2007;
#X obj 46 93 spigot 1;
#X text 5 137 uanz: outputs only its first incoming data \, whatever a bang \, a symbol \, a number or a list. Must be reset on its right inlet.;
#X connect 1 0 7 1;
#X connect 2 0 7 1;
#X connect 3 0 2 0;
#X connect 3 1 7 0;
#X connect 4 0 3 0;
#X connect 5 0 1 0;
#X connect 7 0 0 0;
#X restore 313 85 pd uanz;
#X obj 297 174 spigot 1;
#X obj 394 21 r play2;
#X msg 350 145 0;
#X msg 394 145 1;
#X obj 394 47 sel 1;
#X obj 313 111 t b;
#X obj 247 205 outlet;
#X obj 247 50 inlet;
#N canvas 643 668 450 300 uanz 0;
#X obj 46 114 outlet;
#X msg 91 35 1;
#X msg 19 54 0;
#X obj 19 33 t b a;
#X obj 19 13 inlet;
#X obj 91 15 inlet;
#X text 219 187 angel Faraldo \, 2007;
#X obj 46 93 spigot 1;
#X text 5 137 uanz: outputs only its first incoming data \, whatever a bang \, a symbol \, a number or a list. Must be reset on its right inlet.;
#X connect 1 0 7 1;
#X connect 2 0 7 1;
#X connect 3 0 2 0;
#X connect 3 1 7 0;
#X connect 4 0 3 0;
#X connect 5 0 1 0;
#X connect 7 0 0 0;
#X restore 553 85 pd uanz;
#X obj 537 174 spigot 1;
#X obj 634 21 r play2;
#X msg 590 145 0;
#X msg 634 145 1;
#X obj 634 47 sel 1;
#X obj 553 111 t b;
#X obj 487 205 outlet;
#X obj 487 50 inlet;
#N canvas 643 668 450 300 uanz 0;
#X obj 46 114 outlet;
#X msg 91 35 1;
#X msg 19 54 0;
#X obj 19 33 t b a;
#X obj 19 13 inlet;
#X obj 91 15 inlet;
#X text 219 187 angel Faraldo \, 2007;
#X obj 46 93 spigot 1;
#X text 5 137 uanz: outputs only its first incoming data \, whatever a bang \, a symbol \, a number or a list. Must be reset on its right inlet.;
#X connect 1 0 7 1;
#X connect 2 0 7 1;
#X connect 3 0 2 0;
#X connect 3 1 7 0;
#X connect 4 0 3 0;
#X connect 5 0 1 0;
#X connect 7 0 0 0;
#X restore 803 85 pd uanz;
#X obj 787 174 spigot 1;
#X obj 884 21 r play2;
#X msg 840 145 0;
#X msg 884 145 1;
#X obj 884 47 sel 1;
#X obj 803 111 t b;
#X obj 737 205 outlet;
#X obj 737 50 inlet;
#N canvas 643 668 450 300 uanz 0;
#X obj 46 114 outlet;
#X msg 91 35 1;
#X msg 19 54 0;
#X obj 19 33 t b a;
#X obj 19 13 inlet;
#X obj 91 15 inlet;
#X text 219 187 angel Faraldo \, 2007;
#X obj 46 93 spigot 1;
#X text 5 137 uanz: outputs only its first incoming data \, whatever a bang \, a symbol \, a number or a list. Must be reset on its right inlet.;
#X connect 1 0 7 1;
#X connect 2 0 7 1;
#X connect 3 0 2 0;
#X connect 3 1 7 0;
#X connect 4 0 3 0;
#X connect 5 0 1 0;
#X connect 7 0 0 0;
#X restore 1053 85 pd uanz;
#X obj 1037 174 spigot 1;
#X obj 1141 21 r play2;
#X msg 1090 145 0;
#X msg 1141 145 1;
#X obj 1141 47 sel 1;
#X obj 1053 111 t b;
#X obj 987 205 outlet;
#X obj 987 50 inlet;
#N canvas 643 668 450 300 uanz 0;
#X obj 46 114 outlet;
#X msg 91 35 1;
#X msg 19 54 0;
#X obj 19 33 t b a;
#X obj 19 13 inlet;
#X obj 91 15 inlet;
#X text 219 187 angel Faraldo \, 2007;
#X obj 46 93 spigot 1;
#X text 5 137 uanz: outputs only its first incoming data \, whatever a bang \, a symbol \, a number or a list. Must be reset on its right inlet.;
#X connect 1 0 7 1;
#X connect 2 0 7 1;
#X connect 3 0 2 0;
#X connect 3 1 7 0;
#X connect 4 0 3 0;
#X connect 5 0 1 0;
#X connect 7 0 0 0;
#X restore 1323 85 pd uanz;
#X obj 1307 174 spigot 1;
#X obj 1414 21 r play2;
#X msg 1360 145 0;
#X msg 1414 145 1;
#X obj 1414 47 sel 1;
#X obj 1323 111 t b;
#X obj 1257 205 outlet;
#X obj 1257 50 inlet;
#N canvas 643 668 450 300 uanz 0;
#X obj 46 114 outlet;
#X msg 91 35 1;
#X msg 19 54 0;
#X obj 19 33 t b a;
#X obj 19 13 inlet;
#X obj 91 15 inlet;
#X text 219 187 angel Faraldo \, 2007;
#X obj 46 93 spigot 1;
#X text 5 137 uanz: outputs only its first incoming data \, whatever a bang \, a symbol \, a number or a list. Must be reset on its right inlet.;
#X connect 1 0 7 1;
#X connect 2 0 7 1;
#X connect 3 0 2 0;
#X connect 3 1 7 0;
#X connect 4 0 3 0;
#X connect 5 0 1 0;
#X connect 7 0 0 0;
#X restore 1573 85 pd uanz;
#X obj 1557 174 spigot 1;
#X obj 1664 21 r play2;
#X msg 1610 145 0;
#X msg 1664 145 1;
#X obj 1664 47 sel 1;
#X obj 1573 111 t b;
#X obj 1507 205 outlet;
#X obj 1507 50 inlet;
#X obj 297 21 r r_lfo2;
#X obj 537 21 r r_noise2;
#X obj 787 21 r r_mod2;
#X obj 1037 21 r r_modfreq2;
#X obj 1307 21 r r_modshape2;
#X obj 1557 21 r r_moddepth2;
#X connect 0 0 2 0;
#X connect 1 0 7 0;
#X connect 2 0 8 0;
#X connect 3 0 6 0;
#X connect 4 0 2 1;
#X connect 5 0 2 1;
#X connect 6 0 1 1;
#X connect 6 0 5 0;
#X connect 7 0 4 0;
#X connect 9 0 1 0;
#X connect 9 0 8 0;
#X connect 10 0 16 0;
#X connect 11 0 17 0;
#X connect 12 0 15 0;
#X connect 13 0 11 1;
#X connect 14 0 11 1;
#X connect 15 0 10 1;
#X connect 15 0 14 0;
#X connect 16 0 13 0;
#X connect 18 0 10 0;
#X connect 18 0 17 0;
#X connect 19 0 25 0;
#X connect 20 0 26 0;
#X connect 21 0 24 0;
#X connect 22 0 20 1;
#X connect 23 0 20 1;
#X connect 24 0 19 1;
#X connect 24 0 23 0;
#X connect 25 0 22 0;
#X connect 27 0 19 0;
#X connect 27 0 26 0;
#X connect 28 0 34 0;
#X connect 29 0 35 0;
#X connect 30 0 33 0;
#X connect 31 0 29 1;
#X connect 32 0 29 1;
#X connect 33 0 28 1;
#X connect 33 0 32 0;
#X connect 34 0 31 0;
#X connect 36 0 28 0;
#X connect 36 0 35 0;
#X connect 37 0 43 0;
#X connect 38 0 44 0;
#X connect 39 0 42 0;
#X connect 40 0 38 1;
#X connect 41 0 38 1;
#X connect 42 0 37 1;
#X connect 42 0 41 0;
#X connect 43 0 40 0;
#X connect 45 0 37 0;
#X connect 45 0 44 0;
#X connect 46 0 52 0;
#X connect 47 0 53 0;
#X connect 48 0 51 0;
#X connect 49 0 47 1;
#X connect 50 0 47 1;
#X connect 51 0 46 1;
#X connect 51 0 50 0;
#X connect 52 0 49 0;
#X connect 54 0 46 0;
#X connect 54 0 53 0;
#X connect 55 0 61 0;
#X connect 56 0 62 0;
#X connect 57 0 60 0;
#X connect 58 0 56 1;
#X connect 59 0 56 1;
#X connect 60 0 55 1;
#X connect 60 0 59 0;
#X connect 61 0 58 0;
#X connect 63 0 55 0;
#X connect 63 0 62 0;
#X connect 64 0 11 0;
#X connect 65 0 20 0;
#X connect 66 0 29 0;
#X connect 67 0 38 0;
#X connect 68 0 47 0;
#X connect 69 0 56 0;
#X restore 1105 110 pd play_memories;
#X f 55;
#N canvas 206 1006 1864 293 play_mems 0;
#N canvas 643 668 450 300 uanz 0;
#X obj 46 114 outlet;
#X msg 91 35 1;
#X msg 19 54 0;
#X obj 19 33 t b a;
#X obj 19 13 inlet;
#X obj 91 15 inlet;
#X text 219 187 angel Faraldo \, 2007;
#X obj 46 93 spigot 1;
#X text 5 137 uanz: outputs only its first incoming data \, whatever a bang \, a symbol \, a number or a list. Must be reset on its right inlet.;
#X connect 1 0 7 1;
#X connect 2 0 7 1;
#X connect 3 0 2 0;
#X connect 3 1 7 0;
#X connect 4 0 3 0;
#X connect 5 0 1 0;
#X connect 7 0 0 0;
#X restore 93 85 pd uanz;
#X obj 77 174 spigot 1;
#X obj 174 21 r play2;
#X msg 130 145 0;
#X msg 174 145 1;
#X obj 174 47 sel 1;
#X obj 93 111 t b;
#X obj 27 205 outlet;
#X obj 27 50 inlet;
#N canvas 643 668 450 300 uanz 0;
#X obj 46 114 outlet;
#X msg 91 35 1;
#X msg 19 54 0;
#X obj 19 33 t b a;
#X obj 19 13 inlet;
#X obj 91 15 inlet;
#X text 219 187 angel Faraldo \, 2007;
#X obj 46 93 spigot 1;
#X text 5 137 uanz: outputs only its first incoming data \, whatever a bang \, a symbol \, a number or a list. Must be reset on its right inlet.;
#X connect 1 0 7 1;
#X connect 2 0 7 1;
#X connect 3 0 2 0;
#X connect 3 1 7 0;
#X connect 4 0 3 0;
#X connect 5 0 1 0;
#X connect 7 0 0 0;
#X restore 313 85 pd uanz;
#X obj 297 174 spigot 1;
#X obj 394 21 r play2;
#X msg 350 145 0;
#X msg 394 145 1;
#X obj 394 47 sel 1;
#X obj 313 111 t b;
#X obj 247 205 outlet;
#X obj 247 50 inlet;
#X obj 77 21 r r_vol2;
#X obj 297 21 r r_switch2;
#X connect 0 0 6 0;
#X connect 1 0 7 0;
#X connect 2 0 5 0;
#X connect 3 0 1 1;
#X connect 4 0 1 1;
#X connect 5 0 0 1;
#X connect 5 0 4 0;
#X connect 6 0 3 0;
#X connect 8 0 0 0;
#X connect 8 0 7 0;
#X connect 9 0 15 0;
#X connect 10 0 16 0;
#X connect 11 0 14 0;
#X connect 12 0 10 1;
#X connect 13 0 10 1;
#X connect 14 0 9 1;
#X connect 14 0 13 0;
#X connect 15 0 12 0;
#X connect 17 0 9 0;
#X connect 17 0 16 0;
#X connect 18 0 1 0;
#X connect 19 0 10 0;
#X restore 1123 518 pd play_mems;
#N canvas 0 121 1610 886 record_memories_2 0;
#X obj 14 27 receive fromGUI;
#X obj 14 51 list trim;
#X obj 14 73 route /freq2 /lfo2 /noise2 /mod2 /modfreq2 /modshape2 /moddepth2 /vol2 /switch2, f 190;
#X obj 1371 241 table m_freq2 1000;
#X obj 1371 271 table m_lfo2 1000;
#X obj 1371 301 table m_noise2 1000;
#X obj 1371 331 table m_mod2 1000;
#X obj 1371 361 table m_modfreq2 1000;
#X obj 1371 391 table m_modshape2 1000;
#X obj 1371 421 table m_moddepth2 1000;
#X obj 1371 451 table m_vol2 1000;
#X obj 1371 481 table m_switch2 1000;
#X obj 1369 71 r rec2;
#X obj 1419 71 r play2;
#X obj 1369 126 ||, f 7;
#X obj 1419 97 t b f;
#X obj 1369 152 change 0;
#X obj 1369 204 s m_clock2;
#X obj 26 100 r m_clock2;
#X obj 239 174 f 0;
#X obj 272 174 + 1;
#X obj 14 422 tabwrite m_freq2;
#X obj 14 399 f;
#X obj 26 254 t b b, f 12;
#X obj 1369 178 metro 100;
#X obj 107 100 r rec2;
#X obj 26 150 spigot 0, f 12;
#X obj 107 125 t f b, f 22;
#X msg 257 149 0;
#X obj 239 265 s m_length2;
#X obj 19 780 tabread m_freq2;
#X obj 659 687 mod;
#X obj 677 661 r m_length2;
#X obj 659 458 r m_clock2;
#X obj 659 590 spigot 0;
#X obj 712 564 t f b;
#X msg 744 589 0;
#X obj 659 635 f 0;
#X obj 692 635 + 1;
#X obj 712 484 r rec2;
#X obj 762 484 r play2;
#X obj 762 510 t b f;
#X obj 712 539 <, f 7;
#X obj 19 807 s r_freq2;
#X obj 179 807 s r_lfo2;
#X obj 339 807 s r_noise2;
#X obj 499 807 s r_mod2;
#X obj 659 807 s r_modfreq2;
#X obj 819 807 s r_modshape2;
#X obj 979 807 s r_moddepth2;
#X obj 1139 807 s r_vol2;
#X obj 1299 807 s r_switch2;
#X obj 1299 780 tabread m_switch2;
#X obj 1139 780 tabread m_vol2;
#X obj 979 780 tabread m_moddepth2;
#X obj 819 780 tabread m_modshape2;
#X obj 659 780 tabread m_modfreq2;
#X obj 499 780 tabread m_mod2;
#X obj 339 780 tabread m_noise2;
#X obj 179 780 tabread m_lfo2;
#X obj 224 400 f;
#X obj 224 423 tabwrite m_lfo2;
#X obj 344 400 f;
#X obj 344 423 tabwrite m_noise2;
#X obj 474 400 f;
#X obj 594 400 f;
#X obj 474 423 tabwrite m_mod2;
#X obj 594 423 tabwrite m_modfreq2;
#X obj 744 400 f;
#X obj 744 423 tabwrite m_modshape2;
#X obj 904 400 f;
#X obj 904 423 tabwrite m_moddepth2;
#X obj 1064 400 f;
#X obj 1064 423 tabwrite m_vol2;
#X obj 1184 400 f;
#X obj 1184 423 tabwrite m_switch2;
#X connect 0 0 1 0;
#X connect 1 0 2 0;
#X connect 2 0 22 0;
#X connect 2 1 60 0;
#X connect 2 2 62 0;
#X connect 2 3 64 0;
#X connect 2 4 65 0;
#X connect 2 5 68 0;
#X connect 2 6 70 0;
#X connect 2 7 72 0;
#X connect 2 8 74 0;
#X connect 12 0 14 0;
#X connect 13 0 15 0;
#X connect 14 0 16 0;
#X connect 15 0 14 0;
#X connect 15 1 14 1;
#X connect 16 0 24 0;
#X connect 18 0 26 0;
#X connect 19 0 20 0;
#X connect 19 0 21 1;
#X connect 19 0 29 0;
#X connect 19 0 61 1;
#X connect 19 0 63 1;
#X connect 19 0 66 1;
#X connect 19 0 67 1;
#X connect 19 0 69 1;
#X connect 19 0 71 1;
#X connect 19 0 73 1;
#X connect 19 0 75 1;
#X connect 20 0 19 1;
#X connect 22 0 21 0;
#X connect 23 0 22 0;
#X connect 23 0 60 0;
#X connect 23 0 62 0;
#X connect 23 0 64 0;
#X connect 23 0 65 0;
#X connect 23 0 68 0;
#X connect 23 0 70 0;
#X connect 23 0 72 0;
#X connect 23 0 74 0;
#X connect 23 1 19 0;
#X connect 24 0 17 0;
#X connect 25 0 27 0;
#X connect 26 0 23 0;
#X connect 27 0 26 1;
#X connect 27 1 28 0;
#X connect 28 0 19 1;
#X connect 30 0 43 0;
#X connect 31 0 30 0;
#X connect 31 0 59 0;
#X connect 31 0 58 0;
#X connect 31 0 57 0;
#X connect 31 0 56 0;
#X connect 31 0 55 0;
#X connect 31 0 54 0;
#X connect 31 0 53 0;
#X connect 31 0 52 0;
#X connect 32 0 31 1;
#X connect 33 0 34 0;
#X connect 34 0 37 0;
#X connect 35 0 34 1;
#X connect 35 1 36 0;
#X connect 36 0 37 1;
#X connect 37 0 38 0;
#X connect 37 0 31 0;
#X connect 38 0 37 1;
#X connect 39 0 42 0;
#X connect 40 0 41 0;
#X connect 41 0 42 0;
#X connect 41 1 42 1;
#X connect 42 0 35 0;
#X connect 52 0 51 0;
#X connect 53 0 50 0;
#X connect 54 0 49 0;
#X connect 55 0 48 0;
#X connect 56 0 47 0;
#X connect 57 0 46 0;
#X connect 58 0 45 0;
#X connect 59 0 44 0;
#X connect 60 0 61 0;
#X connect 62 0 63 0;
#X connect 64 0 66 0;
#X connect 65 0 67 0;
#X connect 68 0 69 0;
#X connect 70 0 71 0;
#X connect 72 0 73 0;
#X connect 74 0 75 0;
#X restore 1225 35 pd record_memories_2;
#X obj 1105 833 dac~ 2;
#X obj 24 830 dac~ 1;
#X connect 0 0 1 0;
#X connect 1 0 34 0;
#X connect 2 0 7 2;
#X connect 3 0 7 1;
#X connect 4 0 8 0;
#X connect 5 0 8 1;
#X connect 6 0 4 0;
#X connect 6 0 5 0;
#X connect 7 0 29 0;
#X connect 7 0 28 0;
#X connect 8 0 7 0;
#X connect 9 0 8 2;
#X connect 10 0 32 1;
#X connect 10 1 9 0;
#X connect 11 0 20 0;
#X connect 12 0 11 1;
#X connect 13 0 12 0;
#X connect 14 0 15 0;
#X connect 15 0 112 0;
#X connect 16 0 13 0;
#X connect 17 0 16 0;
#X connect 17 1 13 0;
#X connect 18 0 20 1;
#X connect 19 0 18 0;
#X connect 20 0 14 0;
#X connect 21 0 17 0;
#X connect 22 0 23 0;
#X connect 23 0 56 0;
#X connect 24 0 21 0;
#X connect 25 0 54 0;
#X connect 26 0 25 0;
#X connect 27 0 26 0;
#X connect 28 0 29 1;
#X connect 29 0 11 0;
#X connect 30 0 31 0;
#X connect 30 0 2 0;
#X connect 30 0 9 0;
#X connect 31 0 29 2;
#X connect 32 0 6 0;
#X connect 33 0 41 0;
#X connect 34 0 59 0;
#X connect 34 1 59 1;
#X connect 34 2 59 2;
#X connect 34 3 59 3;
#X connect 34 4 59 4;
#X connect 34 5 59 5;
#X connect 34 6 59 6;
#X connect 38 0 39 0;
#X connect 39 0 48 0;
#X connect 39 1 47 0;
#X connect 40 0 48 0;
#X connect 41 0 54 0;
#X connect 47 0 40 1;
#X connect 49 0 50 0;
#X connect 50 0 28 1;
#X connect 51 0 50 1;
#X connect 52 0 49 1;
#X connect 52 1 53 0;
#X connect 53 0 51 0;
#X connect 54 0 49 0;
#X connect 55 0 27 0;
#X connect 56 0 60 0;
#X connect 56 1 60 1;
#X connect 56 2 57 0;
#X connect 56 3 58 0;
#X connect 59 0 32 0;
#X connect 59 1 10 0;
#X connect 59 2 2 0;
#X connect 59 3 31 0;
#X connect 59 4 55 0;
#X connect 59 5 33 0;
#X connect 59 6 52 0;
#X connect 60 0 24 0;
#X connect 60 1 19 0;
#X connect 62 0 63 0;
#X connect 63 0 96 0;
#X connect 64 0 69 2;
#X connect 65 0 69 1;
#X connect 66 0 70 0;
#X connect 67 0 70 1;
#X connect 68 0 66 0;
#X connect 68 0 67 0;
#X connect 69 0 91 0;
#X connect 69 0 90 0;
#X connect 70 0 69 0;
#X connect 71 0 70 2;
#X connect 72 0 94 1;
#X connect 72 1 71 0;
#X connect 73 0 82 0;
#X connect 74 0 73 1;
#X connect 75 0 74 0;
#X connect 76 0 77 0;
#X connect 77 0 111 0;
#X connect 78 0 75 0;
#X connect 79 0 78 0;
#X connect 79 1 75 0;
#X connect 80 0 82 1;
#X connect 81 0 80 0;
#X connect 82 0 76 0;
#X connect 83 0 79 0;
#X connect 84 0 85 0;
#X connect 85 0 105 0;
#X connect 86 0 83 0;
#X connect 87 0 103 0;
#X connect 88 0 87 0;
#X connect 89 0 88 0;
#X connect 90 0 91 1;
#X connect 91 0 73 0;
#X connect 92 0 93 0;
#X connect 92 0 64 0;
#X connect 92 0 71 0;
#X connect 93 0 91 2;
#X connect 94 0 68 0;
#X connect 95 0 97 0;
#X connect 96 0 108 0;
#X connect 96 1 108 1;
#X connect 96 2 108 2;
#X connect 96 3 108 3;
#X connect 96 4 108 4;
#X connect 96 5 108 5;
#X connect 96 6 108 6;
#X connect 97 0 103 0;
#X connect 98 0 99 0;
#X connect 99 0 90 1;
#X connect 100 0 99 1;
#X connect 101 0 98 1;
#X connect 101 1 102 0;
#X connect 102 0 100 0;
#X connect 103 0 98 0;
#X connect 104 0 89 0;
#X connect 105 0 109 0;
#X connect 105 1 109 1;
#X connect 105 2 106 0;
#X connect 105 3 107 0;
#X connect 108 0 94 0;
#X connect 108 1 72 0;
#X connect 108 2 64 0;
#X connect 108 3 93 0;
#X connect 108 4 104 0;
#X connect 108 5 95 0;
#X connect 108 6 101 0;
#X connect 109 0 86 0;
#X connect 109 1 81 0;
