#N canvas 1302 381 555 588 10;
#X obj 17 16 receive fromNetwork;
#X obj 281 432 send toGUI;
#X text 354 433 Here we update the GUI;
#X obj 17 38 list trim;
#X msg 281 409 list /clock \$1;
#X obj 17 60 route /time/str;
#X obj 17 81 symbol;
#X obj 247 255 list fromsymbol;
#X obj 314 306 list length;
#X obj 248 460 print;
#X obj 247 355 list split;
#X obj 247 280 t l l, f 10;
#X obj 247 380 list tosymbol;
#X obj 314 330 - 4;
#X connect 0 0 3 0;
#X connect 3 0 5 0;
#X connect 4 0 1 0;
#X connect 5 0 6 0;
#X connect 6 0 7 0;
#X connect 7 0 11 0;
#X connect 8 0 13 0;
#X connect 10 0 12 0;
#X connect 11 0 10 0;
#X connect 11 1 8 0;
#X connect 12 0 9 0;
#X connect 12 0 4 0;
#X connect 13 0 10 1;
