#N canvas 382 400 852 551 10;
#X obj 19 9 receive fromGUI;
#X obj 19 29 list trim;
#X obj 769 121 * -1;
#X obj 749 147 f;
#X obj 19 50 route /c /cs /d /ds /e /f /fs /g /gs /a /as /b /c' /vel
/plus8 /minus8, f 134;
#X obj 19 306 pack, f 7;
#X obj 19 149 * 96;
#X obj 19 283 swap 60;
#X obj 69 336 pack, f 7;
#X obj 69 149 * 96;
#X obj 119 336 pack, f 7;
#X obj 119 149 * 96;
#X obj 169 336 pack, f 7;
#X obj 169 149 * 96;
#X obj 219 336 pack, f 7;
#X obj 219 149 * 96;
#X obj 269 336 pack, f 7;
#X obj 269 149 * 96;
#X obj 319 336 pack, f 7;
#X obj 319 149 * 96;
#X obj 369 336 pack, f 7;
#X obj 369 149 * 96;
#X obj 419 336 pack, f 7;
#X obj 419 149 * 96;
#X obj 469 336 pack, f 7;
#X obj 469 149 * 96;
#X obj 519 336 pack, f 7;
#X obj 519 149 * 96;
#X obj 569 336 pack, f 7;
#X obj 569 149 * 96;
#X obj 619 336 pack, f 7;
#X obj 619 149 * 96;
#X obj 19 461 pack f f f;
#X obj 69 313 swap 61;
#X obj 119 313 swap 62;
#X obj 169 313 swap 63;
#X obj 219 313 swap 64;
#X obj 269 313 swap 65;
#X obj 319 313 swap 66;
#X obj 369 313 swap 67;
#X obj 419 313 swap 68;
#X obj 469 313 swap 69;
#X obj 519 313 swap 70;
#X obj 569 313 swap 71;
#X obj 619 313 swap 72;
#X obj 719 169 * 12;
#X obj 108 291 + 1;
#X obj 158 291 + 2;
#X obj 208 291 + 3;
#X obj 258 291 + 4;
#X obj 308 291 + 5;
#X obj 358 291 + 6;
#X obj 408 291 + 7;
#X obj 458 291 + 8;
#X obj 508 291 + 9;
#X obj 558 291 + 10;
#X obj 608 291 + 11;
#X obj 658 291 + 12;
#X obj 19 436 poly 4 1, f 10;
#X obj 19 483 s mmp-piano;
#X obj 719 147 + 5;
#X connect 0 0 1 0;
#X connect 1 0 4 0;
#X connect 2 0 60 0;
#X connect 3 0 60 1;
#X connect 4 0 6 0;
#X connect 4 1 9 0;
#X connect 4 2 11 0;
#X connect 4 3 13 0;
#X connect 4 4 15 0;
#X connect 4 5 17 0;
#X connect 4 6 19 0;
#X connect 4 7 21 0;
#X connect 4 8 23 0;
#X connect 4 9 25 0;
#X connect 4 10 27 0;
#X connect 4 11 29 0;
#X connect 4 12 31 0;
#X connect 4 13 31 1;
#X connect 4 13 29 1;
#X connect 4 13 27 1;
#X connect 4 13 25 1;
#X connect 4 13 23 1;
#X connect 4 13 21 1;
#X connect 4 13 19 1;
#X connect 4 13 17 1;
#X connect 4 13 15 1;
#X connect 4 13 13 1;
#X connect 4 13 11 1;
#X connect 4 13 9 1;
#X connect 4 13 6 1;
#X connect 4 14 60 0;
#X connect 4 15 2 0;
#X connect 5 0 58 0;
#X connect 6 0 7 0;
#X connect 7 0 5 0;
#X connect 7 1 5 1;
#X connect 8 0 58 0;
#X connect 9 0 33 0;
#X connect 10 0 58 0;
#X connect 11 0 34 0;
#X connect 12 0 58 0;
#X connect 13 0 35 0;
#X connect 14 0 58 0;
#X connect 15 0 36 0;
#X connect 16 0 58 0;
#X connect 17 0 37 0;
#X connect 18 0 58 0;
#X connect 19 0 38 0;
#X connect 20 0 58 0;
#X connect 21 0 39 0;
#X connect 22 0 58 0;
#X connect 23 0 40 0;
#X connect 24 0 58 0;
#X connect 25 0 41 0;
#X connect 26 0 58 0;
#X connect 27 0 42 0;
#X connect 28 0 58 0;
#X connect 29 0 43 0;
#X connect 30 0 58 0;
#X connect 31 0 44 0;
#X connect 32 0 59 0;
#X connect 33 0 8 0;
#X connect 33 1 8 1;
#X connect 34 0 10 0;
#X connect 34 1 10 1;
#X connect 35 0 12 0;
#X connect 35 1 12 1;
#X connect 36 0 14 0;
#X connect 36 1 14 1;
#X connect 37 0 16 0;
#X connect 37 1 16 1;
#X connect 38 0 18 0;
#X connect 38 1 18 1;
#X connect 39 0 20 0;
#X connect 39 1 20 1;
#X connect 40 0 22 0;
#X connect 40 1 22 1;
#X connect 41 0 24 0;
#X connect 41 1 24 1;
#X connect 42 0 26 0;
#X connect 42 1 26 1;
#X connect 43 0 28 0;
#X connect 43 1 28 1;
#X connect 44 0 30 0;
#X connect 44 1 30 1;
#X connect 45 0 57 0;
#X connect 45 0 56 0;
#X connect 45 0 55 0;
#X connect 45 0 54 0;
#X connect 45 0 53 0;
#X connect 45 0 52 0;
#X connect 45 0 51 0;
#X connect 45 0 50 0;
#X connect 45 0 49 0;
#X connect 45 0 48 0;
#X connect 45 0 47 0;
#X connect 45 0 46 0;
#X connect 45 0 7 1;
#X connect 46 0 33 1;
#X connect 47 0 34 1;
#X connect 48 0 35 1;
#X connect 49 0 36 1;
#X connect 50 0 37 1;
#X connect 51 0 38 1;
#X connect 52 0 39 1;
#X connect 53 0 40 1;
#X connect 54 0 41 1;
#X connect 55 0 42 1;
#X connect 56 0 43 1;
#X connect 57 0 44 1;
#X connect 58 0 32 0;
#X connect 58 1 32 1;
#X connect 58 2 32 2;
#X connect 60 0 3 0;
#X connect 60 0 45 0;
