#N canvas 384 147 1560 966 10;
#X obj 26 7 receive fromGUI;
#X obj 26 28 list trim;
#X obj 26 75 s vol;
#X obj 167 72 s s2;
#X obj 215 73 s s3;
#X obj 262 72 s s4;
#X obj 309 72 s s5;
#X obj 357 71 s s6;
#X obj 403 70 s s7;
#X obj 450 70 s s8;
#X obj 497 69 s s9;
#X obj 546 69 s s10;
#X obj 594 70 s s11;
#X obj 38 485 catch~ sum;
#X obj 28 606 dac~;
#X obj 155 465 r vol;
#X obj 23 288 osc~;
#X obj 23 393 *~, f 6;
#X obj 56 372 line~;
#X obj 56 350 pack 0 100;
#X obj 56 288 r s1;
#X obj 44 244 r loadbang;
#X msg 44 266 0.75;
#X obj 23 153 r freq;
#X obj 23 220 line~;
#X obj 23 414 throw~ sum;
#X obj 133 288 osc~;
#X obj 133 393 *~, f 6;
#X obj 166 372 line~;
#X obj 166 350 pack 0 100;
#X obj 154 244 r loadbang;
#X msg 154 266 0.75;
#X obj 133 153 r freq;
#X obj 133 220 line~;
#X obj 133 414 throw~ sum;
#X obj 243 288 osc~;
#X obj 243 393 *~, f 6;
#X obj 276 372 line~;
#X obj 276 350 pack 0 100;
#X obj 264 244 r loadbang;
#X msg 264 266 0.75;
#X obj 243 153 r freq;
#X obj 243 220 line~;
#X obj 243 414 throw~ sum;
#X obj 353 288 osc~;
#X obj 353 393 *~, f 6;
#X obj 386 372 line~;
#X obj 386 350 pack 0 100;
#X obj 374 244 r loadbang;
#X msg 374 266 0.75;
#X obj 353 153 r freq;
#X obj 353 220 line~;
#X obj 353 414 throw~ sum;
#X obj 463 288 osc~;
#X obj 463 393 *~, f 6;
#X obj 496 372 line~;
#X obj 496 350 pack 0 100;
#X obj 484 244 r loadbang;
#X msg 484 266 0.75;
#X obj 463 153 r freq;
#X obj 463 220 line~;
#X obj 463 414 throw~ sum;
#X obj 573 288 osc~;
#X obj 573 393 *~, f 6;
#X obj 606 372 line~;
#X obj 606 350 pack 0 100;
#X obj 594 244 r loadbang;
#X msg 594 266 0.75;
#X obj 573 153 r freq;
#X obj 573 220 line~;
#X obj 573 414 throw~ sum;
#X obj 683 288 osc~;
#X obj 683 393 *~, f 6;
#X obj 716 372 line~;
#X obj 716 350 pack 0 100;
#X obj 704 244 r loadbang;
#X msg 704 266 0.75;
#X obj 683 153 r freq;
#X obj 683 220 line~;
#X obj 683 414 throw~ sum;
#X obj 793 288 osc~;
#X obj 793 393 *~, f 6;
#X obj 826 372 line~;
#X obj 826 350 pack 0 100;
#X obj 814 244 r loadbang;
#X msg 814 266 0.75;
#X obj 793 153 r freq;
#X obj 793 220 line~;
#X obj 793 414 throw~ sum;
#X obj 903 288 osc~;
#X obj 903 393 *~, f 6;
#X obj 936 372 line~;
#X obj 936 350 pack 0 100;
#X obj 924 244 r loadbang;
#X msg 924 266 0.75;
#X obj 903 153 r freq;
#X obj 903 220 line~;
#X obj 903 414 throw~ sum;
#X obj 1013 288 osc~;
#X obj 1013 393 *~, f 6;
#X obj 1046 372 line~;
#X obj 1046 350 pack 0 100;
#X obj 1034 244 r loadbang;
#X msg 1034 266 0.75;
#X obj 1013 153 r freq;
#X obj 1013 220 line~;
#X obj 1013 414 throw~ sum;
#X obj 1123 393 *~, f 6;
#X obj 1156 372 line~;
#X obj 1144 244 r loadbang;
#X msg 1144 266 0.75;
#X obj 1123 153 r freq;
#X obj 1123 220 line~;
#X obj 1123 414 throw~ sum;
#X obj 166 288 r s2;
#X obj 276 288 r s3;
#X obj 386 288 r s4;
#X obj 496 288 r s5;
#X obj 606 288 r s6;
#X obj 716 288 r s7;
#X obj 826 288 r s8;
#X obj 936 288 r s9;
#X obj 1123 288 osc~;
#X obj 1046 288 r s10;
#X obj 1156 350 pack 0 100;
#X obj 73 135 s freq;
#X obj 120 73 s s1;
#X obj 916 490 loadbang;
#X obj 155 506 rmstodb;
#X obj 155 486 pow 4;
#N canvas 0 23 404 241 monoLimitervanila 1;
#N canvas 868 137 368 402 amp-factor 0;
#X obj 116 210 dbtorms~;
#X obj 17 38 rmstodb~;
#X obj 115 38 + 100;
#X obj 131 145 -~;
#X obj 115 61 sig~;
#X obj 131 166 +~ 100;
#X obj 116 187 *~;
#X obj 115 16 inlet threshold;
#X obj 17 182 *~ -1;
#X obj 17 202 +~ 1;
#X obj 17 145 expr~ ($v1 > $v2);
#X obj 17 16 inlet~ signal;
#X obj 17 266 outlet~ factor_RMS;
#X connect 0 0 12 0;
#X connect 1 0 3 1;
#X connect 1 0 10 0;
#X connect 2 0 4 0;
#X connect 3 0 5 0;
#X connect 4 0 3 0;
#X connect 4 0 10 1;
#X connect 5 0 6 1;
#X connect 6 0 0 0;
#X connect 7 0 2 0;
#X connect 8 0 9 0;
#X connect 9 0 12 0;
#X connect 10 0 6 0;
#X connect 10 0 8 0;
#X connect 11 0 1 0;
#X restore 144 113 pd amp-factor;
#X obj 272 23 inlet threshold;
#X obj 39 177 *~, f 18;
#X obj 40 19 inlet~;
#X obj 39 197 outlet~;
#X obj 144 65 abs~;
#X obj 313 60 inlet level;
#X obj 144 157 *~, f 22;
#X obj 273 56 - 100;
#X obj 273 79 * -1;
#X obj 273 117 +;
#X obj 313 81 t b f;
#X obj 273 138 dbtorms;
#X text 45 112 was 80;
#X obj 39 91 fexpr~ $x1[-65];
#X obj 144 134 lop~ 1000, f 10;
#N canvas 280 45 336 715 maxhold~ 0;
#X obj 13 95 until;
#X obj 35 138 tabread block;
#X obj 13 33 bang~;
#X obj 35 117 f 0;
#X obj 65 117 + 1;
#X obj 53 33 tabsend~ block;
#X obj 13 54 t b b, f 27;
#X msg 50 95 0;
#X msg 13 75 64;
#X obj 151 233 - 1;
#X obj 35 272 f;
#X obj 60 254 t b f;
#X obj 60 335 f;
#X obj 35 158 t b f f;
#X obj 35 213 f 1;
#X obj 51 303 t b f;
#X obj 35 233 sel 1;
#X obj 233 242 moses 0;
#X obj 36 357 f;
#X obj 150 255 400;
#X obj 37 421 >;
#X obj 37 442 sel 0 1;
#X obj 37 399 t f f;
#X obj 37 492 f;
#X obj 82 465 f;
#X obj 64 514 f;
#X obj 64 535 t f f;
#X obj 64 491 * 0.999;
#X obj 53 11 inlet~;
#X obj 65 673 outlet~;
#X obj 133 574 f 0;
#X obj 163 574 + 1;
#X msg 148 552 0;
#X obj 65 653 tabreceive~ out;
#X obj 64 594 tabwrite out;
#X obj 64 555 t f b, f 12;
#X obj 64 613 table block 64;
#X obj 64 633 table out 64;
#X connect 0 0 3 0;
#X connect 1 0 13 0;
#X connect 2 0 6 0;
#X connect 3 0 4 0;
#X connect 3 0 1 0;
#X connect 4 0 3 1;
#X connect 6 0 8 0;
#X connect 6 1 7 0;
#X connect 6 1 32 0;
#X connect 7 0 3 1;
#X connect 8 0 0 0;
#X connect 9 0 14 1;
#X connect 10 0 15 0;
#X connect 10 0 18 0;
#X connect 11 0 12 0;
#X connect 11 1 9 0;
#X connect 12 0 18 0;
#X connect 13 0 14 0;
#X connect 13 1 17 0;
#X connect 13 2 10 1;
#X connect 14 0 16 0;
#X connect 15 0 19 0;
#X connect 15 1 12 1;
#X connect 15 1 17 1;
#X connect 16 0 10 0;
#X connect 16 1 11 0;
#X connect 17 1 15 0;
#X connect 18 0 22 0;
#X connect 19 0 14 1;
#X connect 20 0 21 0;
#X connect 21 0 23 0;
#X connect 21 1 24 0;
#X connect 22 0 20 0;
#X connect 22 1 24 1;
#X connect 23 0 27 0;
#X connect 24 0 23 1;
#X connect 24 0 25 0;
#X connect 25 0 26 0;
#X connect 26 0 35 0;
#X connect 26 1 20 1;
#X connect 27 0 23 1;
#X connect 27 0 25 0;
#X connect 28 0 5 0;
#X connect 30 0 31 0;
#X connect 30 0 34 1;
#X connect 31 0 30 1;
#X connect 32 0 30 1;
#X connect 33 0 29 0;
#X connect 35 0 34 0;
#X connect 35 1 30 0;
#X restore 144 89 pd maxhold~;
#X connect 0 0 15 0;
#X connect 1 0 0 1;
#X connect 1 0 8 0;
#X connect 2 0 4 0;
#X connect 3 0 5 0;
#X connect 3 0 14 0;
#X connect 5 0 16 0;
#X connect 6 0 11 0;
#X connect 7 0 2 1;
#X connect 8 0 9 0;
#X connect 9 0 10 0;
#X connect 10 0 12 0;
#X connect 11 0 10 0;
#X connect 11 1 10 1;
#X connect 12 0 7 1;
#X connect 14 0 2 0;
#X connect 15 0 7 0;
#X connect 16 0 0 0;
#X restore 38 571 pd monoLimitervanila;
#X obj 916 645 delay 1000;
#X obj 916 667 s loadbang;
#X obj 570 892 send toGUI;
#X obj 827 114 s random;
#X obj 569 478 r random;
#X obj 617 589 random 101;
#X obj 620 609 * 0.01;
#X obj 826 92 sel 1;
#X msg 582 860 list /receiveLabel \$1 hz.;
#X obj 26 49 route /vol /freq /s1 /s2 /s3 /s4 /s5 /s6 /s7 /s8 /s9 /s10
/s11, f 103;
#X obj 643 92 sel 1;
#X obj 703 92 sel 1;
#X obj 763 92 sel 1;
#X obj 643 114 s sine;
#X obj 703 114 s saw;
#X obj 763 115 s square;
#X obj 582 838 r freq;
#X obj 569 540 until;
#X obj 569 731 f 1;
#X obj 599 731 + 1;
#X msg 842 611 1;
#X obj 569 499 t b b, f 19;
#X obj 569 754 pack f f, f 17;
#X msg 569 805 list /s\$1 \$2;
#X obj 807 812 r loadbang;
#X obj 64 308 r loadbang;
#X msg 64 328 1;
#X obj 220 503 r sine;
#X obj 220 583 r saw;
#X obj 166 667 r square;
#X obj 745 597 random 101;
#X obj 751 623 * 0.01;
#X obj 569 562 t b b b, f 13;
#X obj 607 656 <, f 13;
#X obj 607 676 sel 1 0;
#X obj 684 637 t f f;
#X obj 607 633 t f f;
#X obj 668 723 f;
#X obj 632 723 f;
#X obj 155 527 - 106;
#X obj 23 174 * 2;
#X obj 133 174 * 3;
#X obj 243 174 * 4;
#X obj 353 174 * 5;
#X obj 463 175 * 6;
#X obj 573 174 * 7;
#X obj 683 174 * 8;
#X obj 793 174 * 9;
#X obj 903 174 * 10;
#X obj 1013 174 * 11;
#X obj 1123 174 * 12;
#X obj 916 515 random 100;
#X msg 916 601 bang \; freq \$1 \; pd dsp 1 \;;
#X obj 916 577 + 47.9;
#X obj 916 535 * 0.01;
#X obj 641 69 route /sine /saw /square /randomize /s12 /s13, f 63
;
#X obj 891 90 s s12;
#X obj 939 91 s s13;
#X obj 1243 288 osc~;
#X obj 1243 393 *~, f 6;
#X obj 1276 372 line~;
#X obj 1276 350 pack 0 100;
#X obj 1264 244 r loadbang;
#X msg 1264 266 0.75;
#X obj 1243 153 r freq;
#X obj 1243 220 line~;
#X obj 1243 414 throw~ sum;
#X obj 1353 393 *~, f 6;
#X obj 1386 372 line~;
#X obj 1374 244 r loadbang;
#X msg 1374 266 0.75;
#X obj 1353 153 r freq;
#X obj 1353 220 line~;
#X obj 1353 414 throw~ sum;
#X obj 1353 288 osc~;
#X obj 1386 350 pack 0 100;
#X obj 1243 174 * 13;
#X obj 1353 174 * 14;
#X obj 1156 289 r s11;
#X obj 1276 288 r s12;
#X obj 1386 288 r s13;
#X msg 220 526 1 1 \, 2 0 \, 3 0 \, 4 0 \, 5 0 \, 6 0 \, 7 0 \, 8 0
\, 9 0 \, 10 0 \, 11 0 \, 12 0 \, 13 0, f 28;
#X msg 218 604 1 0.5 \, 2 0.25 \, 3 0.125 \, 4 0.0625 \, 5 0.03125
\, 6 0.015625 \, 7 0.0078125 \, 8 0.00390625 \, 9 0.00195312 \, 10
0.000976562 \, 11 0.000488281 \, 12 0.000244141 \, 13 0.00012207;
#X msg 167 690 1 0 \, 2 0.5 \, 3 0 \, 4 0.25 \, 5 0 \, 6 0.125 \, 7
0 \, 8 0.0625 \, 9 0 \, 10 0.03125 \, 11 0 \, 12 0.015625 \, 13 0;
#X obj 23 198 pack 0 5;
#X obj 133 198 pack 0 5;
#X obj 243 199 pack 0 5;
#X obj 353 198 pack 0 5;
#X obj 463 198 pack 0 5;
#X obj 573 198 pack 0 5;
#X obj 683 198 pack 0 5;
#X obj 793 198 pack 0 5;
#X obj 903 198 pack 0 5;
#X obj 1013 198 pack 0 5;
#X obj 1123 198 pack 0 5;
#X obj 1243 198 pack 0 5;
#X obj 1353 198 pack 0 5;
#X msg 569 519 13;
#X obj 924 555 s freq_fad;
#X obj 822 834 r freq_fad;
#X obj 807 854 f;
#X msg 807 876 list /s1 1 \, list /freq \$1;
#X obj 73 108 * 1000;
#X connect 0 0 1 0;
#X connect 1 0 140 0;
#X connect 13 0 130 0;
#X connect 15 0 129 0;
#X connect 16 0 17 0;
#X connect 17 0 25 0;
#X connect 18 0 17 1;
#X connect 19 0 18 0;
#X connect 20 0 19 0;
#X connect 21 0 22 0;
#X connect 22 0 16 1;
#X connect 23 0 171 0;
#X connect 24 0 16 0;
#X connect 26 0 27 0;
#X connect 27 0 34 0;
#X connect 28 0 27 1;
#X connect 29 0 28 0;
#X connect 30 0 31 0;
#X connect 31 0 26 1;
#X connect 32 0 172 0;
#X connect 33 0 26 0;
#X connect 35 0 36 0;
#X connect 36 0 43 0;
#X connect 37 0 36 1;
#X connect 38 0 37 0;
#X connect 39 0 40 0;
#X connect 40 0 35 1;
#X connect 41 0 173 0;
#X connect 42 0 35 0;
#X connect 44 0 45 0;
#X connect 45 0 52 0;
#X connect 46 0 45 1;
#X connect 47 0 46 0;
#X connect 48 0 49 0;
#X connect 49 0 44 1;
#X connect 50 0 174 0;
#X connect 51 0 44 0;
#X connect 53 0 54 0;
#X connect 54 0 61 0;
#X connect 55 0 54 1;
#X connect 56 0 55 0;
#X connect 57 0 58 0;
#X connect 58 0 53 1;
#X connect 59 0 175 0;
#X connect 60 0 53 0;
#X connect 62 0 63 0;
#X connect 63 0 70 0;
#X connect 64 0 63 1;
#X connect 65 0 64 0;
#X connect 66 0 67 0;
#X connect 67 0 62 1;
#X connect 68 0 176 0;
#X connect 69 0 62 0;
#X connect 71 0 72 0;
#X connect 72 0 79 0;
#X connect 73 0 72 1;
#X connect 74 0 73 0;
#X connect 75 0 76 0;
#X connect 76 0 71 1;
#X connect 77 0 177 0;
#X connect 78 0 71 0;
#X connect 80 0 81 0;
#X connect 81 0 88 0;
#X connect 82 0 81 1;
#X connect 83 0 82 0;
#X connect 84 0 85 0;
#X connect 85 0 80 1;
#X connect 86 0 178 0;
#X connect 87 0 80 0;
#X connect 89 0 90 0;
#X connect 90 0 97 0;
#X connect 91 0 90 1;
#X connect 92 0 91 0;
#X connect 93 0 94 0;
#X connect 94 0 89 1;
#X connect 95 0 179 0;
#X connect 96 0 89 0;
#X connect 98 0 99 0;
#X connect 99 0 106 0;
#X connect 100 0 99 1;
#X connect 101 0 100 0;
#X connect 102 0 103 0;
#X connect 103 0 98 1;
#X connect 104 0 180 0;
#X connect 105 0 98 0;
#X connect 107 0 113 0;
#X connect 108 0 107 1;
#X connect 109 0 110 0;
#X connect 110 0 122 1;
#X connect 111 0 181 0;
#X connect 112 0 122 0;
#X connect 114 0 29 0;
#X connect 115 0 38 0;
#X connect 116 0 47 0;
#X connect 117 0 56 0;
#X connect 118 0 65 0;
#X connect 119 0 74 0;
#X connect 120 0 83 0;
#X connect 121 0 92 0;
#X connect 122 0 107 0;
#X connect 123 0 101 0;
#X connect 124 0 108 0;
#X connect 127 0 182 0;
#X connect 128 0 170 0;
#X connect 129 0 128 0;
#X connect 130 0 14 0;
#X connect 130 0 14 1;
#X connect 131 0 132 0;
#X connect 135 0 152 0;
#X connect 136 0 137 0;
#X connect 137 0 167 0;
#X connect 138 0 134 0;
#X connect 139 0 133 0;
#X connect 140 0 2 0;
#X connect 140 1 233 0;
#X connect 140 2 126 0;
#X connect 140 3 3 0;
#X connect 140 4 4 0;
#X connect 140 5 5 0;
#X connect 140 6 6 0;
#X connect 140 7 7 0;
#X connect 140 8 8 0;
#X connect 140 9 9 0;
#X connect 140 10 10 0;
#X connect 140 11 11 0;
#X connect 140 12 12 0;
#X connect 140 13 186 0;
#X connect 141 0 144 0;
#X connect 142 0 145 0;
#X connect 143 0 146 0;
#X connect 147 0 139 0;
#X connect 148 0 163 0;
#X connect 149 0 150 0;
#X connect 149 0 153 0;
#X connect 150 0 149 1;
#X connect 151 0 149 1;
#X connect 152 0 228 0;
#X connect 152 1 151 0;
#X connect 153 0 154 0;
#X connect 154 0 133 0;
#X connect 155 0 231 0;
#X connect 156 0 157 0;
#X connect 157 0 19 0;
#X connect 158 0 212 0;
#X connect 159 0 213 0;
#X connect 160 0 214 0;
#X connect 161 0 162 0;
#X connect 162 0 166 0;
#X connect 163 0 149 0;
#X connect 163 1 136 0;
#X connect 163 2 161 0;
#X connect 164 0 165 0;
#X connect 165 0 169 0;
#X connect 165 1 168 0;
#X connect 166 0 164 1;
#X connect 166 1 168 1;
#X connect 167 0 164 0;
#X connect 167 1 169 1;
#X connect 168 0 153 1;
#X connect 169 0 153 1;
#X connect 170 0 130 2;
#X connect 170 0 130 1;
#X connect 171 0 215 0;
#X connect 172 0 216 0;
#X connect 173 0 217 0;
#X connect 174 0 218 0;
#X connect 175 0 219 0;
#X connect 176 0 220 0;
#X connect 177 0 221 0;
#X connect 178 0 222 0;
#X connect 179 0 223 0;
#X connect 180 0 224 0;
#X connect 181 0 225 0;
#X connect 182 0 185 0;
#X connect 183 0 131 0;
#X connect 184 0 183 0;
#X connect 185 0 184 0;
#X connect 185 0 229 0;
#X connect 186 0 141 0;
#X connect 186 1 142 0;
#X connect 186 2 143 0;
#X connect 186 3 138 0;
#X connect 186 4 187 0;
#X connect 186 5 188 0;
#X connect 189 0 190 0;
#X connect 190 0 197 0;
#X connect 191 0 190 1;
#X connect 192 0 191 0;
#X connect 193 0 194 0;
#X connect 194 0 189 1;
#X connect 195 0 207 0;
#X connect 196 0 189 0;
#X connect 198 0 204 0;
#X connect 199 0 198 1;
#X connect 200 0 201 0;
#X connect 201 0 205 1;
#X connect 202 0 208 0;
#X connect 203 0 205 0;
#X connect 205 0 198 0;
#X connect 206 0 199 0;
#X connect 207 0 226 0;
#X connect 208 0 227 0;
#X connect 209 0 124 0;
#X connect 210 0 192 0;
#X connect 211 0 206 0;
#X connect 212 0 153 0;
#X connect 213 0 153 0;
#X connect 214 0 153 0;
#X connect 215 0 24 0;
#X connect 216 0 33 0;
#X connect 217 0 42 0;
#X connect 218 0 51 0;
#X connect 219 0 60 0;
#X connect 220 0 69 0;
#X connect 221 0 78 0;
#X connect 222 0 87 0;
#X connect 223 0 96 0;
#X connect 224 0 105 0;
#X connect 225 0 112 0;
#X connect 226 0 196 0;
#X connect 227 0 203 0;
#X connect 228 0 148 0;
#X connect 230 0 231 1;
#X connect 231 0 232 0;
#X connect 232 0 133 0;
#X connect 233 0 125 0;
