#N canvas 1167 150 1111 970 10;
#X obj 312 909 send toGUI;
#X obj 153 678 mod 12;
#X obj 346 698 div 12;
#X obj 346 719 - 1;
#X obj 153 658 t f f, f 32;
#X msg 153 722 C;
#X msg 182 722 D;
#X msg 212 722 E;
#X msg 226 743 F;
#X msg 256 743 G;
#X msg 285 743 A;
#X msg 315 743 B;
#X msg 312 887 list /pitch-name \$1;
#X msg 241 721 F#;
#X msg 271 722 G#;
#X msg 167 742 C#;
#X obj 69 29 adc~ 1;
#X obj 391 186 wrap;
#X obj 114 164 t f f, f 46;
#X obj 448 229 moses 0.5, f 11;
#X symbolatom 312 835 10 0 0 0 - - -;
#X obj 114 186 + 0.5;
#X obj 312 782 pack s f s, f 12;
#X msg 391 722 symbol;
#X msg 448 722 symbol +;
#X msg 511 732 symbol -;
#X msg 312 805 symbol \$1\$2\$3;
#X obj 114 372 +;
#X msg 129 342 0;
#X msg 457 251 0.3;
#X obj 114 206 int;
#X msg 114 802 symbol;
#X obj 153 698 sel 0 1 2 3 4 5 6 7 8 9 10 11, f 30;
#X obj 114 635 moses 0;
#X msg 69 137 -2;
#X text 125 117 Low limit to not report notes;
#X obj 114 393 list append;
#X floatatom 91 97 5 0 0 0 - - -;
#X obj 205 417 t l;
#X obj 114 613 change;
#X msg 520 278 0.6;
#X obj 69 72 sigmund~ -npts 2048 -hop 1024 pitch;
#X obj 114 482 list split 4;
#X obj 114 528 t l l, f 7;
#X obj 153 549 list length;
#X obj 153 569 == 1;
#X obj 114 589 spigot, f 7;
#X obj 77 51 r params;
#X obj 675 49 receive fromGUI;
#X obj 675 70 list trim;
#X obj 675 91 route /window /hopsize /average, f 60;
#X obj 183 461 r average;
#X obj 913 184 s average;
#X msg 675 233 256;
#X msg 689 256 512;
#X msg 703 282 1024;
#X msg 717 306 2048;
#X msg 731 330 4096;
#X msg 745 352 8192;
#X msg 759 374 16384;
#X obj 675 209 sel 0 1 2 3 4 5 6;
#X obj 913 113 + 1;
#X obj 675 492 send toGUI;
#X msg 675 430 list /vis-window \$1;
#X obj 687 451 list trim;
#X obj 687 472 unpack s f;
#X msg 744 493 \; params npts \$1;
#X msg 845 233 256;
#X msg 859 256 512;
#X msg 873 282 1024;
#X msg 887 306 2048;
#X msg 901 330 4096;
#X msg 915 352 8192;
#X msg 929 374 16384;
#X obj 845 209 sel 0 1 2 3 4 5 6;
#X obj 845 492 send toGUI;
#X obj 857 451 list trim;
#X obj 857 472 unpack s f;
#X obj 920 158 send toGUI;
#X msg 845 430 list /vis-hop \$1;
#X msg 914 493 \; params hop \$1;
#X msg 920 136 list /vis-avg \$1;
#X obj 114 506 list-unique;
#X msg 197 743 Eb;
#X msg 300 722 Bb;
#X obj 754 628 delay 100;
#X obj 754 606 loadbang;
#X obj 753 687 send toGUI;
#X msg 754 655 list /window 3 \, list /hopsize 2 \, list /average 3
;
#X obj 391 208 moses 0.21;
#X obj 511 250 moses 0.7;
#X obj 69 117 moses 20;
#X connect 1 0 32 0;
#X connect 2 0 3 0;
#X connect 3 0 22 1;
#X connect 4 0 1 0;
#X connect 4 1 2 0;
#X connect 5 0 22 0;
#X connect 6 0 22 0;
#X connect 7 0 22 0;
#X connect 8 0 22 0;
#X connect 9 0 22 0;
#X connect 10 0 22 0;
#X connect 11 0 22 0;
#X connect 12 0 0 0;
#X connect 13 0 22 0;
#X connect 14 0 22 0;
#X connect 15 0 22 0;
#X connect 16 0 41 0;
#X connect 17 0 89 0;
#X connect 18 0 21 0;
#X connect 18 1 17 0;
#X connect 19 0 24 0;
#X connect 19 0 29 0;
#X connect 19 1 90 0;
#X connect 20 0 12 0;
#X connect 21 0 30 0;
#X connect 22 0 26 0;
#X connect 23 0 22 2;
#X connect 24 0 22 2;
#X connect 25 0 22 2;
#X connect 26 0 20 0;
#X connect 27 0 36 0;
#X connect 28 0 27 1;
#X connect 29 0 27 1;
#X connect 30 0 27 0;
#X connect 31 0 20 0;
#X connect 32 0 5 0;
#X connect 32 1 15 0;
#X connect 32 2 6 0;
#X connect 32 3 83 0;
#X connect 32 4 7 0;
#X connect 32 5 8 0;
#X connect 32 6 13 0;
#X connect 32 7 9 0;
#X connect 32 8 14 0;
#X connect 32 9 10 0;
#X connect 32 10 84 0;
#X connect 32 11 11 0;
#X connect 33 0 31 0;
#X connect 33 1 4 0;
#X connect 34 0 18 0;
#X connect 36 0 38 0;
#X connect 36 0 42 0;
#X connect 37 0 91 0;
#X connect 38 0 36 1;
#X connect 39 0 33 0;
#X connect 40 0 27 1;
#X connect 41 0 91 0;
#X connect 42 0 82 0;
#X connect 43 0 46 0;
#X connect 43 1 44 0;
#X connect 44 0 45 0;
#X connect 45 0 46 1;
#X connect 46 0 39 0;
#X connect 47 0 41 0;
#X connect 48 0 49 0;
#X connect 49 0 50 0;
#X connect 50 0 60 0;
#X connect 50 1 74 0;
#X connect 50 2 61 0;
#X connect 51 0 42 1;
#X connect 53 0 63 0;
#X connect 54 0 63 0;
#X connect 55 0 63 0;
#X connect 56 0 63 0;
#X connect 57 0 63 0;
#X connect 58 0 63 0;
#X connect 59 0 63 0;
#X connect 60 0 53 0;
#X connect 60 1 54 0;
#X connect 60 2 55 0;
#X connect 60 3 56 0;
#X connect 60 4 57 0;
#X connect 60 5 58 0;
#X connect 60 6 59 0;
#X connect 61 0 52 0;
#X connect 61 0 81 0;
#X connect 63 0 62 0;
#X connect 63 0 64 0;
#X connect 64 0 65 0;
#X connect 65 1 66 0;
#X connect 67 0 79 0;
#X connect 68 0 79 0;
#X connect 69 0 79 0;
#X connect 70 0 79 0;
#X connect 71 0 79 0;
#X connect 72 0 79 0;
#X connect 73 0 79 0;
#X connect 74 0 67 0;
#X connect 74 1 68 0;
#X connect 74 2 69 0;
#X connect 74 3 70 0;
#X connect 74 4 71 0;
#X connect 74 5 72 0;
#X connect 74 6 73 0;
#X connect 76 0 77 0;
#X connect 77 1 80 0;
#X connect 79 0 75 0;
#X connect 79 0 76 0;
#X connect 81 0 78 0;
#X connect 82 0 43 0;
#X connect 83 0 22 0;
#X connect 84 0 22 0;
#X connect 85 0 88 0;
#X connect 86 0 85 0;
#X connect 88 0 87 0;
#X connect 89 0 23 0;
#X connect 89 0 28 0;
#X connect 89 1 19 0;
#X connect 90 0 25 0;
#X connect 90 0 40 0;
#X connect 90 1 23 0;
#X connect 90 1 28 0;
#X connect 91 0 34 0;
#X connect 91 1 18 0;
