#N canvas 966 48 789 1025 8;
#X obj 33 808 expr~ atan($v1);
#X obj 33 827 *~ 0.63662;
#X obj 145 403 line~;
#X obj 212 462 line~;
#X obj 33 501 *~, f 23;
#X obj 145 481 *~, f 14;
#X obj 33 401 adc~ 1;
#X obj 212 15 r delvol;
#X obj 145 364 r delswitch;
#X obj 33 460 r deltime;
#X obj 33 606 bob~ 1000, f 21;
#X obj 84 586 lop~ 0.5;
#X obj 84 567 r filterfreq;
#X obj 135 587 r filterreson;
#X obj 260 605 *~;
#X obj 272 506 r filterswitch;
#X obj 272 527 - 1;
#X obj 272 546 * -1;
#X obj 272 586 line~;
#X obj 33 586 *~;
#X obj 45 567 line~;
#X obj 33 625 +~, f 46;
#X obj 135 744 *~;
#X obj 147 668 - 1;
#X obj 147 687 * -1;
#X obj 147 724 line~;
#X msg 147 706 \$1 50;
#X obj 33 746 *~;
#X obj 45 728 line~;
#X msg 45 709 \$1 50;
#X obj 33 764 +~, f 21;
#X obj 147 645 r maximizerswitch;
#X obj 60 645 r maximizergain;
#X obj 33 421 *~, f 19;
#X obj 33 481 delread~ del 0;
#N canvas 0 349 2048 831 control-parameters 0;
#X obj 41 35 list trim;
#X obj 41 12 receive fromGUI;
#X obj 2739 650 s sinvol;
#X obj 876 658 s delvol;
#X obj 876 637 * 100;
#X obj 1110 659 s deltime;
#X obj 643 658 s delswitch;
#X obj 1339 661 s filterswitch;
#X obj 1578 659 s filterfreq;
#X obj 1801 654 s filterreson;
#X obj 2272 615 * 100;
#X obj 2044 653 s maximizerswitch;
#X obj 2502 653 s sinswitch;
#X obj 673 596 send toGUI;
#X obj 2272 655 s maximizergain;
#X obj 2739 610 * 100;
#X msg 663 77 set \$1;
#X msg 673 416 list /delswitch set \$1;
#X msg 905 416 list /delvol set \$1;
#X msg 1140 416 list /deltime set \$1;
#X msg 1371 416 list /filterswitch set \$1;
#X msg 1615 416 list /filterfreq set \$1;
#X msg 1839 416 list /filterreson set \$1;
#X msg 2072 416 list /maximizerswitch set \$1, f 22;
#X msg 2302 419 list /maximizergain set \$1;
#X msg 2528 416 list /sinswitch set \$1;
#X msg 2772 416 list /sinvol set \$1;
#X msg 895 77 set \$1;
#X msg 1129 77 set \$1;
#X msg 1361 77 set \$1;
#X msg 1595 77 set \$1;
#X msg 1829 77 set \$1;
#X msg 2062 77 set \$1;
#X msg 2062 376 1;
#X msg 2292 80 set \$1;
#X msg 2518 77 set \$1;
#X msg 2518 376 0;
#X msg 2762 77 set \$1;
#X obj 1801 634 * 4;
#X msg 663 376 1;
#X obj 674 276 r load-state;
#X obj 1578 619 pow;
#X msg 1578 599 1.25992 \$1;
#X obj 1518 379 r randfreq;
#X obj 1755 376 r randres;
#X obj 2222 380 r randmax;
#X msg 1361 376 1;
#X msg 1829 376 0.83;
#X msg 2292 379 0.8;
#X msg 2762 376 0.86084;
#X obj 1057 377 r randdel;
#X msg 1130 376 0.0035156;
#X obj 1110 579 pow 3;
#X obj 1110 620 max 50;
#X obj 1110 640 - 50;
#X msg 462 133 menusave;
#X obj 462 113 sel 1;
#X obj 147 111 sel 1;
#X obj 41 90 sel 1;
#X obj 357 95 sel 1;
#X obj 251 93 sel 1;
#X obj 41 149 send randdel;
#X obj 147 149 send randfreq;
#X obj 251 149 send randres;
#X obj 357 149 send randmax;
#X obj 147 130 random 21;
#X obj 41 129 * 0.01;
#X obj 41 109 random 100;
#X obj 251 112 random 100;
#X obj 251 131 * 0.01;
#X obj 357 132 * 0.01;
#X obj 357 114 random 100;
#X obj 2272 635 dbtorms;
#X obj 2739 630 dbtorms;
#X msg 1447 247 list /filterfreq \$1;
#X obj 1447 268 send toGUI;
#X obj 1447 186 + 0, f 11;
#X msg 1595 376 14;
#X obj 1447 76 r walkfreq;
#X msg 895 375 0.805;
#X obj 1578 639 * 30;
#X obj 1110 600 * 40050;
#X obj 1659 255 send toGUI;
#X obj 1659 193 + 0, f 11;
#X obj 1659 83 r walkres;
#X msg 1659 234 list /filterreson \$1;
#X obj 1659 172 * 0.01;
#X obj 41 55 route /randdel /randfreq /randres /randmax /savestate, f 106;
#X obj 1447 227 int;
#X obj 1447 206 clip 1 19;
#X obj 1659 213 clip 0 1;
#X obj 1659 133 random 5;
#X obj 1659 153 - 2;
#X obj 1669 103 bng 15 250 50 0 empty empty empty 17 7 0 10 #fcfcfc #000000 #000000;
#X obj 1447 145 random 3;
#X obj 1447 165 - 1;
#X obj 462 152 s pd-Little-Music-Box.pd;
#X obj 2870 147 s mylocation;
#X obj 643 51 route /delswitch /delvol /deltime /filterswitch /filterfreq /filterreson /maximizerswitch /maximizergain /sinswitch /sinvol /enable-loc /reverb, f 467;
#X obj 2870 122 s reverb;
#X connect 0 0 87 0;
#X connect 1 0 0 0;
#X connect 4 0 3 0;
#X connect 10 0 72 0;
#X connect 15 0 73 0;
#X connect 16 0 39 0;
#X connect 17 0 13 0;
#X connect 18 0 13 0;
#X connect 19 0 13 0;
#X connect 20 0 13 0;
#X connect 21 0 13 0;
#X connect 22 0 13 0;
#X connect 23 0 13 0;
#X connect 24 0 13 0;
#X connect 25 0 13 0;
#X connect 26 0 13 0;
#X connect 27 0 79 0;
#X connect 28 0 51 0;
#X connect 29 0 46 0;
#X connect 30 0 77 0;
#X connect 31 0 47 0;
#X connect 32 0 33 0;
#X connect 33 0 11 0;
#X connect 33 0 23 0;
#X connect 34 0 48 0;
#X connect 35 0 36 0;
#X connect 36 0 12 0;
#X connect 36 0 25 0;
#X connect 37 0 49 0;
#X connect 38 0 9 0;
#X connect 39 0 6 0;
#X connect 39 0 17 0;
#X connect 40 0 49 0;
#X connect 40 0 36 0;
#X connect 40 0 48 0;
#X connect 40 0 33 0;
#X connect 40 0 47 0;
#X connect 40 0 77 0;
#X connect 40 0 46 0;
#X connect 40 0 51 0;
#X connect 40 0 39 0;
#X connect 40 0 79 0;
#X connect 41 0 80 0;
#X connect 42 0 41 0;
#X connect 43 0 42 0;
#X connect 43 0 21 0;
#X connect 44 0 38 0;
#X connect 44 0 22 0;
#X connect 45 0 10 0;
#X connect 45 0 24 0;
#X connect 46 0 7 0;
#X connect 46 0 20 0;
#X connect 47 0 22 0;
#X connect 47 0 38 0;
#X connect 47 0 83 1;
#X connect 48 0 10 0;
#X connect 48 0 24 0;
#X connect 49 0 15 0;
#X connect 49 0 26 0;
#X connect 50 0 19 0;
#X connect 50 0 52 0;
#X connect 51 0 19 0;
#X connect 51 0 52 0;
#X connect 52 0 81 0;
#X connect 53 0 54 0;
#X connect 54 0 5 0;
#X connect 55 0 96 0;
#X connect 56 0 55 0;
#X connect 57 0 65 0;
#X connect 58 0 67 0;
#X connect 59 0 71 0;
#X connect 60 0 68 0;
#X connect 65 0 62 0;
#X connect 66 0 61 0;
#X connect 67 0 66 0;
#X connect 68 0 69 0;
#X connect 69 0 63 0;
#X connect 70 0 64 0;
#X connect 71 0 70 0;
#X connect 72 0 14 0;
#X connect 73 0 2 0;
#X connect 74 0 75 0;
#X connect 76 0 89 0;
#X connect 77 0 21 0;
#X connect 77 0 42 0;
#X connect 77 0 76 1;
#X connect 78 0 94 0;
#X connect 79 0 4 0;
#X connect 79 0 18 0;
#X connect 80 0 8 0;
#X connect 81 0 53 0;
#X connect 83 0 90 0;
#X connect 84 0 91 0;
#X connect 85 0 82 0;
#X connect 86 0 83 0;
#X connect 87 0 58 0;
#X connect 87 1 57 0;
#X connect 87 2 60 0;
#X connect 87 3 59 0;
#X connect 87 4 56 0;
#X connect 87 5 98 0;
#X connect 88 0 74 0;
#X connect 89 0 88 0;
#X connect 90 0 85 0;
#X connect 91 0 92 0;
#X connect 92 0 86 0;
#X connect 93 0 91 0;
#X connect 93 0 94 0;
#X connect 94 0 95 0;
#X connect 95 0 76 0;
#X connect 98 0 16 0;
#X connect 98 0 6 0;
#X connect 98 1 27 0;
#X connect 98 1 4 0;
#X connect 98 2 52 0;
#X connect 98 2 28 0;
#X connect 98 3 29 0;
#X connect 98 3 7 0;
#X connect 98 4 30 0;
#X connect 98 4 42 0;
#X connect 98 4 76 1;
#X connect 98 5 31 0;
#X connect 98 5 38 0;
#X connect 98 5 83 1;
#X connect 98 6 32 0;
#X connect 98 6 11 0;
#X connect 98 7 34 0;
#X connect 98 7 10 0;
#X connect 98 8 35 0;
#X connect 98 8 12 0;
#X connect 98 9 37 0;
#X connect 98 9 15 0;
#X connect 98 10 97 0;
#X connect 98 11 99 0;
#X restore 49 47 pd control-parameters;
#X obj 33 786 +~, f 80;
#X msg 45 548 \$1 50;
#X msg 272 566 \$1 50;
#X msg 212 443 \$1 50;
#X msg 145 384 \$1 50;
#N canvas 495 311 413 264 max 0;
#X obj 19 32 inlet~;
#X obj 142 103 dbtorms;
#X obj 142 83 + 3.012;
#X obj 142 122 t b f;
#X obj 132 142 /, f 7;
#X obj 132 180 vline~;
#X obj 20 200 *~, f 23;
#X obj 20 220 outlet~;
#X obj 132 34 inlet;
#X obj 19 12 block~ 1024;
#X obj 142 65 env~ 2048 1024;
#X obj 20 181 +~;
#X obj 32 160 fexpr~ $x1[-1024];
#X obj 132 161 pack 0 23.22;
#X text 184 144 use [t b b];
#X text 204 154 [timer];
#X text 204 164 [change] to determine block duration;
#X connect 0 0 10 0;
#X connect 0 0 11 0;
#X connect 0 0 12 0;
#X connect 1 0 3 0;
#X connect 2 0 1 0;
#X connect 3 0 4 0;
#X connect 3 1 4 1;
#X connect 4 0 13 0;
#X connect 5 0 6 1;
#X connect 6 0 7 0;
#X connect 8 0 4 0;
#X connect 10 0 2 0;
#X connect 11 0 6 0;
#X connect 12 0 11 1;
#X connect 13 0 5 0;
#X restore 33 680 pd max;
#X obj 212 424 dbtorms;
#X obj 33 441 delwrite~ del 60000;
#X obj 50 70 loadbang;
#X obj 63 93 delay 100;
#X msg 63 114 \; load-state bang;
#X obj 50 209 send toSystem;
#X obj 430 462 unpack, f 12;
#X obj 430 482 * 0.5;
#X obj 430 503 + 0.5;
#X obj 487 483 * 0.5;
#X obj 487 503 + 0.5;
#X obj 487 524 - 1;
#X obj 487 545 abs;
#X obj 487 648 osc~;
#X obj 487 628 line~;
#X obj 487 566 * 900;
#X obj 487 587 + 100;
#X obj 430 668 *~, f 12;
#X obj 430 585 line~;
#X obj 430 544 *, f 5;
#X obj 303 25 receive fromSystem;
#X obj 303 45 list trim;
#X obj 441 170 unpack, f 17;
#X obj 441 149 spigot 0;
#X obj 478 91 r load-state;
#X obj 478 110 delay 1000;
#X msg 478 129 1;
#X obj 303 65 route /compass /tilts, f 52;
#X obj 430 524 t f f;
#X obj 447 748 line~;
#X obj 430 767 *~, f 4;
#X msg 447 729 \$1 50;
#X obj 522 671 line~;
#X obj 430 691 *~, f 19;
#X msg 522 652 \$1 50;
#X obj 441 189 abs;
#X obj 441 249 - 1;
#X obj 441 270 abs;
#X obj 523 208 int;
#X obj 523 227 change;
#X msg 545 331 0;
#X obj 523 248 spigot 1;
#X msg 603 264 1;
#X obj 523 352 s walkres;
#X obj 523 190 * 8;
#X obj 304 128 int;
#X obj 304 207 change;
#X msg 341 291 0;
#X obj 304 228 spigot 1;
#X msg 367 264 1;
#X obj 304 312 s walkfreq;
#X obj 522 632 r sinswitch;
#X obj 447 711 r sinvol;
#X msg 430 565 \$1 50;
#X msg 487 608 \$1 50;
#X obj 313 186 send toGUI;
#X obj 367 244 delay 400;
#X obj 212 404 *, f 7;
#X obj 222 381 t b f;
#X obj 441 210 clip 0 0.4;
#X obj 441 230 * 2.5;
#X obj 441 290 pow 0.1;
#X obj 603 244 delay 300;
#X msg 313 167 list /vis-compass \$1;
#X obj 313 147 change -12;
#X obj 303 88 / 360;
#X obj 304 268 t b b;
#X obj 523 308 t b b;
#X obj 304 107 * 20;
#X msg 50 145 1;
#X obj 59 164 r mylocation;
#X msg 50 187 list /enableLocation \$1;
#X obj 81 874 rev1~;
#X obj 92 827 loadbang;
#X obj 63 954 dac~;
#X obj 69 925 +~;
#X obj 81 905 *~;
#X obj 169 866 line~;
#X msg 169 848 \$1 50;
#X obj 169 828 r reverb;
#X obj 267 854 r mylocation;
#X msg 267 875 bang;
#X msg 92 851 40;
#X connect 0 0 1 0;
#X connect 1 0 117 0;
#X connect 1 0 114 0;
#X connect 2 0 5 0;
#X connect 2 0 33 1;
#X connect 3 0 5 1;
#X connect 4 0 19 0;
#X connect 4 0 14 0;
#X connect 5 0 4 1;
#X connect 6 0 33 0;
#X connect 7 0 99 0;
#X connect 8 0 40 0;
#X connect 9 0 34 0;
#X connect 10 0 21 0;
#X connect 11 0 10 1;
#X connect 12 0 11 0;
#X connect 13 0 10 2;
#X connect 14 0 21 1;
#X connect 15 0 16 0;
#X connect 15 0 37 0;
#X connect 16 0 17 0;
#X connect 17 0 38 0;
#X connect 18 0 14 1;
#X connect 19 0 10 0;
#X connect 20 0 19 1;
#X connect 21 0 22 0;
#X connect 21 0 41 0;
#X connect 22 0 30 1;
#X connect 23 0 24 0;
#X connect 24 0 26 0;
#X connect 25 0 22 1;
#X connect 26 0 25 0;
#X connect 27 0 30 0;
#X connect 28 0 27 1;
#X connect 29 0 28 0;
#X connect 30 0 36 0;
#X connect 31 0 23 0;
#X connect 31 0 29 0;
#X connect 32 0 41 1;
#X connect 33 0 43 0;
#X connect 34 0 4 0;
#X connect 36 0 0 0;
#X connect 37 0 20 0;
#X connect 38 0 18 0;
#X connect 39 0 3 0;
#X connect 40 0 2 0;
#X connect 41 0 27 0;
#X connect 42 0 39 0;
#X connect 44 0 45 0;
#X connect 44 0 111 0;
#X connect 45 0 46 0;
#X connect 48 0 49 0;
#X connect 48 1 51 0;
#X connect 49 0 50 0;
#X connect 50 0 70 0;
#X connect 51 0 52 0;
#X connect 52 0 53 0;
#X connect 53 0 54 0;
#X connect 54 0 57 0;
#X connect 55 0 59 1;
#X connect 56 0 55 0;
#X connect 57 0 58 0;
#X connect 58 0 96 0;
#X connect 59 0 75 0;
#X connect 60 0 59 0;
#X connect 61 0 95 0;
#X connect 62 0 63 0;
#X connect 63 0 69 0;
#X connect 64 0 77 0;
#X connect 64 1 86 0;
#X connect 65 0 64 0;
#X connect 66 0 67 0;
#X connect 67 0 68 0;
#X connect 68 0 65 1;
#X connect 69 0 107 0;
#X connect 69 1 65 0;
#X connect 69 1 48 0;
#X connect 70 0 61 0;
#X connect 70 1 61 1;
#X connect 71 0 72 1;
#X connect 72 0 36 1;
#X connect 73 0 71 0;
#X connect 74 0 75 1;
#X connect 75 0 72 0;
#X connect 76 0 74 0;
#X connect 77 0 101 0;
#X connect 78 0 79 0;
#X connect 79 0 103 0;
#X connect 80 0 81 0;
#X connect 81 0 83 0;
#X connect 82 0 83 1;
#X connect 83 0 109 0;
#X connect 84 0 83 1;
#X connect 86 0 80 0;
#X connect 87 0 88 0;
#X connect 87 0 106 0;
#X connect 88 0 90 0;
#X connect 89 0 90 1;
#X connect 90 0 108 0;
#X connect 91 0 90 1;
#X connect 93 0 76 0;
#X connect 94 0 73 0;
#X connect 95 0 60 0;
#X connect 96 0 56 0;
#X connect 98 0 91 0;
#X connect 99 0 42 0;
#X connect 100 0 99 0;
#X connect 100 1 99 1;
#X connect 101 0 102 0;
#X connect 102 0 78 0;
#X connect 103 0 100 0;
#X connect 104 0 84 0;
#X connect 105 0 97 0;
#X connect 106 0 105 0;
#X connect 107 0 110 0;
#X connect 108 0 92 0;
#X connect 108 1 89 0;
#X connect 108 1 98 0;
#X connect 109 0 85 0;
#X connect 109 1 82 0;
#X connect 109 1 104 0;
#X connect 110 0 87 0;
#X connect 111 0 113 0;
#X connect 112 0 113 0;
#X connect 113 0 47 0;
#X connect 114 0 118 0;
#X connect 115 0 124 0;
#X connect 117 0 116 1;
#X connect 117 0 116 0;
#X connect 118 0 117 1;
#X connect 119 0 118 1;
#X connect 120 0 119 0;
#X connect 121 0 120 0;
#X connect 122 0 123 0;
#X connect 123 0 114 2;
#X connect 124 0 114 1;
