#N canvas 0 25 1039 1020 12;
#X obj 44 151 list fromsymbol;
#X obj 125 197 list length;
#X obj 44 174 t l l, f 12;
#X obj 44 244 list split 0;
#X obj 125 221 - 3;
#X obj 116 391 list store;
#X obj 84 293 list length;
#X obj 116 341 - 3;
#X msg 116 366 get \$1;
#X obj 44 268 t l l l, f 12;
#X obj 17 463 list split;
#X obj 84 317 t f f;
#X obj 116 416 == 46;
#X obj 84 415 - 1;
#X obj 84 439 - 0, f 4;
#X obj 84 706 list length;
#X obj 17 682 t l l, f 10;
#X obj 84 729 - 1;
#X obj 17 752 list split;
#X obj 50 487 t l l, f 12;
#X obj 50 606 symbol, f 12;
#X obj 131 582 list tosymbol;
#X obj 50 509 unpack 0 0;
#X obj 50 558 change;
#X obj 50 534 +, f 10;
#X obj 50 581 t b;
#X obj 17 778 t l l, f 16;
#X obj 17 945 symbol, f 16;
#X obj 126 917 list tosymbol;
#X obj 17 897 change;
#X obj 17 920 t b;
#X obj 17 873 +, f 5;
#X obj 80 826 +, f 5;
#X obj 17 800 unpack 0 0 0 0;
#X obj 48 850 +, f 5;
#X obj 295 292 list fromsymbol;
#X obj 376 338 list length;
#X obj 295 315 t l l, f 12;
#X obj 295 395 list split 0;
#X obj 328 594 list tosymbol;
#X obj 376 362 - 4;
#X obj 295 422 t l l, f 17;
#X obj 295 447 list split;
#X obj 391 394 - 2;
#X obj 328 473 unpack 0 0;
#X obj 328 498 +, f 10;
#X obj 328 522 change;
#X obj 328 545 t b;
#X obj 328 569 list, f 12;
#X obj 150 55 array define -yrange 0 20 region-length 20;
#X obj 150 79 array define -yrange 0 100 region-time 20;
#X obj 575 96 text define region-name;
#X msg 583 71 clear;
#X msg 575 48 read -c chordlist.txt;
#X obj 575 25 loadbang;
#X obj 251 129 s PLAY;
#N canvas 1083 160 965 566 GUI 0;
#X obj 33 475 s toGUI;
#X msg 273 348 list /play enable 0 \, list /record enable 0;
#X obj 273 323 loadbang;
#X msg 217 238 list /record set \$1;
#X obj 217 214 r RECORD;
#X obj 97 64 r BEAT;
#X obj 37 14 r BAR;
#X obj 137 114 r TIME;
#X obj 177 164 r PLAY;
#X obj 262 265 r TEMPO;
#X msg 177 187 list /play set \$1;
#X msg 137 137 list /time \$1;
#X msg 37 37 list /bar \$1;
#X msg 97 87 list /beat \$1;
#X msg 262 294 list /tempo \$1;
#X connect 1 0 0 0;
#X connect 2 0 1 0;
#X connect 3 0 0 0;
#X connect 4 0 3 0;
#X connect 5 0 13 0;
#X connect 6 0 12 0;
#X connect 7 0 11 0;
#X connect 8 0 10 0;
#X connect 9 0 14 0;
#X connect 10 0 0 0;
#X connect 11 0 0 0;
#X connect 12 0 0 0;
#X connect 13 0 0 0;
#X connect 14 0 0 0;
#X restore 45 29 pd GUI;
#X obj 17 969 s BAR;
#X obj 50 656 s BEAT;
#X obj 344 129 s RECORD;
#X obj 444 132 s TEMPO;
#X obj 328 618 s TIME;
#X obj 44 55 r fromNetwork;
#X obj 44 127 symbol;
#X obj 295 267 symbol;
#X obj 50 632 makefilename %02s;
#X obj 44 104 route /beat /time /play /record /tempo, f 72;
#X obj 44 78 route list;
#X obj 574 223 change -12;
#X obj 724 223 change -12;
#X obj 574 123 route /lastregion/number /lastmarker/number;
#N canvas 2 25 2034 888 regions 1;
#X obj 22 13 inlet;
#X msg 174 759 \$1 1;
#X obj 22 39 route /region/1/name /region/1/length /region/1/time /region/2/name /region/2/length /region/2/time /region/3/name /region/3/length /region/3/time /region/4/name /region/4/length /region/4/time /region/5/name /region/5/length /region/5/time /region/6/name /region/6/length /region/6/time /region/7/name /region/7/length /region/7/time /region/8/name /region/8/length /region/8/time /region/9/name /region/9/length /region/9/time /region/10/name /region/10/length /region/10/time, f 574;
#X obj 22 759 list;
#X obj 22 784 text set region-name;
#X msg 67 760 1;
#X obj 22 733 t a b;
#X obj 174 711 float;
#X obj 174 735 change -12;
#X obj 341 785 tabwrite region-time;
#X msg 341 760 \$1 1;
#X obj 174 784 tabwrite region-length;
#X obj 502 760 list;
#X obj 502 785 text set region-name;
#X obj 502 734 t a b;
#X obj 821 786 tabwrite region-time;
#X obj 654 785 tabwrite region-length;
#X msg 547 761 2;
#X msg 654 760 \$1 2;
#X msg 821 761 \$1 2;
#X obj 972 761 list;
#X obj 972 786 text set region-name;
#X obj 972 735 t a b;
#X obj 1290 786 tabwrite region-time;
#X obj 1124 786 tabwrite region-length;
#X msg 1017 762 3;
#X msg 1124 761 \$1 3;
#X msg 1290 761 \$1 3;
#X obj 174 663 list trim;
#X obj 174 687 unpack;
#X obj 341 711 float;
#X obj 341 735 change -12;
#X obj 341 663 list trim;
#X obj 341 687 unpack;
#X obj 654 711 float;
#X obj 654 735 change -12;
#X obj 654 663 list trim;
#X obj 654 687 unpack;
#X obj 821 711 float;
#X obj 821 735 change -12;
#X obj 821 663 list trim;
#X obj 821 687 unpack;
#X obj 1124 711 float;
#X obj 1124 735 change -12;
#X obj 1124 663 list trim;
#X obj 1124 687 unpack;
#X obj 1291 711 float;
#X obj 1291 735 change -12;
#X obj 1291 663 list trim;
#X obj 1291 687 unpack;
#X obj 1442 761 list;
#X obj 1442 786 text set region-name;
#X obj 1442 735 t a b;
#X obj 1594 713 float;
#X obj 1594 737 change -12;
#X obj 1761 787 tabwrite region-time;
#X obj 1594 786 tabwrite region-length;
#X obj 1922 762 list;
#X obj 1922 787 text set region-name;
#X obj 1922 736 t a b;
#X obj 2241 788 tabwrite region-time;
#X obj 2074 787 tabwrite region-length;
#X obj 2392 763 list;
#X obj 2392 788 text set region-name;
#X obj 2392 737 t a b;
#X obj 2710 788 tabwrite region-time;
#X obj 2544 788 tabwrite region-length;
#X obj 1594 665 list trim;
#X obj 1594 689 unpack;
#X obj 1761 713 float;
#X obj 1761 737 change -12;
#X obj 1761 665 list trim;
#X obj 1761 689 unpack;
#X obj 2074 713 float;
#X obj 2074 737 change -12;
#X obj 2074 665 list trim;
#X obj 2074 689 unpack;
#X obj 2241 713 float;
#X obj 2241 737 change -12;
#X obj 2241 665 list trim;
#X obj 2241 689 unpack;
#X obj 2544 713 float;
#X obj 2544 737 change -12;
#X obj 2544 665 list trim;
#X obj 2544 689 unpack;
#X obj 2711 713 float;
#X obj 2711 737 change -12;
#X obj 2711 665 list trim;
#X obj 2711 689 unpack;
#X msg 1487 762 4;
#X msg 1594 761 \$1 4;
#X msg 1761 762 \$1 4;
#X msg 1967 763 5;
#X msg 2074 762 \$1 5;
#X msg 2241 763 \$1 5;
#X msg 2437 764 6;
#X msg 2710 763 \$1 6;
#X msg 2544 763 \$1 6;
#X obj 2872 764 list;
#X obj 2872 789 text set region-name;
#X obj 2872 738 t a b;
#X obj 3190 789 tabwrite region-time;
#X obj 3024 789 tabwrite region-length;
#X obj 3024 714 float;
#X obj 3024 738 change -12;
#X obj 3024 666 list trim;
#X obj 3024 690 unpack;
#X obj 3191 714 float;
#X obj 3191 738 change -12;
#X obj 3191 666 list trim;
#X obj 3191 690 unpack;
#X obj 3342 764 list;
#X obj 3342 789 text set region-name;
#X obj 3342 738 t a b;
#X obj 3494 716 float;
#X obj 3494 740 change -12;
#X obj 3661 790 tabwrite region-time;
#X obj 3494 789 tabwrite region-length;
#X obj 3822 765 list;
#X obj 3822 790 text set region-name;
#X obj 3822 739 t a b;
#X obj 4141 791 tabwrite region-time;
#X obj 3974 790 tabwrite region-length;
#X obj 4292 766 list;
#X obj 4292 791 text set region-name;
#X obj 4292 740 t a b;
#X obj 4610 791 tabwrite region-time;
#X obj 4444 791 tabwrite region-length;
#X obj 3494 668 list trim;
#X obj 3494 692 unpack;
#X obj 3661 716 float;
#X obj 3661 740 change -12;
#X obj 3661 668 list trim;
#X obj 3661 692 unpack;
#X obj 3974 716 float;
#X obj 3974 740 change -12;
#X obj 3974 668 list trim;
#X obj 3974 692 unpack;
#X obj 4141 716 float;
#X obj 4141 740 change -12;
#X obj 4141 668 list trim;
#X obj 4141 692 unpack;
#X obj 4444 716 float;
#X obj 4444 740 change -12;
#X obj 4444 668 list trim;
#X obj 4444 692 unpack;
#X obj 4611 716 float;
#X obj 4611 740 change -12;
#X obj 4611 668 list trim;
#X obj 4611 692 unpack;
#X msg 4610 766 \$1 10;
#X msg 4444 766 \$1 10;
#X msg 4337 767 10;
#X msg 4141 766 \$1 9;
#X msg 3974 765 \$1 9;
#X msg 3867 766 9;
#X msg 3661 765 \$1 8;
#X msg 3494 764 \$1 8;
#X msg 3387 765 8;
#X msg 3190 764 \$1 7;
#X msg 3024 764 \$1 7;
#X msg 2917 765 7;
#X obj 4037 68 outlet;
#X connect 0 0 2 0;
#X connect 1 0 11 0;
#X connect 2 0 6 0;
#X connect 2 1 28 0;
#X connect 2 2 32 0;
#X connect 2 3 14 0;
#X connect 2 4 36 0;
#X connect 2 5 40 0;
#X connect 2 6 22 0;
#X connect 2 7 44 0;
#X connect 2 8 48 0;
#X connect 2 9 52 0;
#X connect 2 10 67 0;
#X connect 2 11 71 0;
#X connect 2 12 59 0;
#X connect 2 13 75 0;
#X connect 2 14 79 0;
#X connect 2 15 64 0;
#X connect 2 16 83 0;
#X connect 2 17 87 0;
#X connect 2 18 100 0;
#X connect 2 19 105 0;
#X connect 2 20 109 0;
#X connect 2 21 113 0;
#X connect 2 22 128 0;
#X connect 2 23 132 0;
#X connect 2 24 120 0;
#X connect 2 25 136 0;
#X connect 2 26 140 0;
#X connect 2 27 125 0;
#X connect 2 28 144 0;
#X connect 2 29 148 0;
#X connect 2 30 162 0;
#X connect 3 0 4 0;
#X connect 5 0 4 1;
#X connect 6 0 3 0;
#X connect 6 1 5 0;
#X connect 7 0 8 0;
#X connect 8 0 1 0;
#X connect 10 0 9 0;
#X connect 12 0 13 0;
#X connect 14 0 12 0;
#X connect 14 1 17 0;
#X connect 17 0 13 1;
#X connect 18 0 16 0;
#X connect 19 0 15 0;
#X connect 20 0 21 0;
#X connect 22 0 20 0;
#X connect 22 1 25 0;
#X connect 25 0 21 1;
#X connect 26 0 24 0;
#X connect 27 0 23 0;
#X connect 28 0 29 0;
#X connect 29 0 7 0;
#X connect 30 0 31 0;
#X connect 31 0 10 0;
#X connect 32 0 33 0;
#X connect 33 0 30 0;
#X connect 34 0 35 0;
#X connect 35 0 18 0;
#X connect 36 0 37 0;
#X connect 37 0 34 0;
#X connect 38 0 39 0;
#X connect 39 0 19 0;
#X connect 40 0 41 0;
#X connect 41 0 38 0;
#X connect 42 0 43 0;
#X connect 43 0 26 0;
#X connect 44 0 45 0;
#X connect 45 0 42 0;
#X connect 46 0 47 0;
#X connect 47 0 27 0;
#X connect 48 0 49 0;
#X connect 49 0 46 0;
#X connect 50 0 51 0;
#X connect 52 0 50 0;
#X connect 52 1 89 0;
#X connect 53 0 54 0;
#X connect 54 0 90 0;
#X connect 57 0 58 0;
#X connect 59 0 57 0;
#X connect 59 1 92 0;
#X connect 62 0 63 0;
#X connect 64 0 62 0;
#X connect 64 1 95 0;
#X connect 67 0 68 0;
#X connect 68 0 53 0;
#X connect 69 0 70 0;
#X connect 70 0 91 0;
#X connect 71 0 72 0;
#X connect 72 0 69 0;
#X connect 73 0 74 0;
#X connect 74 0 93 0;
#X connect 75 0 76 0;
#X connect 76 0 73 0;
#X connect 77 0 78 0;
#X connect 78 0 94 0;
#X connect 79 0 80 0;
#X connect 80 0 77 0;
#X connect 81 0 82 0;
#X connect 82 0 97 0;
#X connect 83 0 84 0;
#X connect 84 0 81 0;
#X connect 85 0 86 0;
#X connect 86 0 96 0;
#X connect 87 0 88 0;
#X connect 88 0 85 0;
#X connect 89 0 51 1;
#X connect 90 0 56 0;
#X connect 91 0 55 0;
#X connect 92 0 58 1;
#X connect 93 0 61 0;
#X connect 94 0 60 0;
#X connect 95 0 63 1;
#X connect 96 0 65 0;
#X connect 97 0 66 0;
#X connect 98 0 99 0;
#X connect 100 0 98 0;
#X connect 100 1 161 0;
#X connect 103 0 104 0;
#X connect 104 0 160 0;
#X connect 105 0 106 0;
#X connect 106 0 103 0;
#X connect 107 0 108 0;
#X connect 108 0 159 0;
#X connect 109 0 110 0;
#X connect 110 0 107 0;
#X connect 111 0 112 0;
#X connect 113 0 111 0;
#X connect 113 1 158 0;
#X connect 114 0 115 0;
#X connect 115 0 157 0;
#X connect 118 0 119 0;
#X connect 120 0 118 0;
#X connect 120 1 155 0;
#X connect 123 0 124 0;
#X connect 125 0 123 0;
#X connect 125 1 152 0;
#X connect 128 0 129 0;
#X connect 129 0 114 0;
#X connect 130 0 131 0;
#X connect 131 0 156 0;
#X connect 132 0 133 0;
#X connect 133 0 130 0;
#X connect 134 0 135 0;
#X connect 135 0 154 0;
#X connect 136 0 137 0;
#X connect 137 0 134 0;
#X connect 138 0 139 0;
#X connect 139 0 153 0;
#X connect 140 0 141 0;
#X connect 141 0 138 0;
#X connect 142 0 143 0;
#X connect 143 0 151 0;
#X connect 144 0 145 0;
#X connect 145 0 142 0;
#X connect 146 0 147 0;
#X connect 147 0 150 0;
#X connect 148 0 149 0;
#X connect 149 0 146 0;
#X connect 150 0 126 0;
#X connect 151 0 127 0;
#X connect 152 0 124 1;
#X connect 153 0 121 0;
#X connect 154 0 122 0;
#X connect 155 0 119 1;
#X connect 156 0 116 0;
#X connect 157 0 117 0;
#X connect 158 0 112 1;
#X connect 159 0 101 0;
#X connect 160 0 102 0;
#X connect 161 0 99 1;
#X restore 872 147 pd regions;
#X obj 574 149 list trim;
#X obj 574 199 float;
#X obj 574 173 symbol;
#X obj 724 149 list trim;
#X obj 724 199 float;
#X obj 724 173 symbol;
#X obj 244 180 s toGUI;
#X msg 244 154 list /chord-0 highlight \$1;
#X text 161 414 probably not updated in pd distr, f 14;
#N canvas 4 25 1956 800 chords 0;
#X obj 1951 330 tabread region-length;
#X obj 1497 302 tabread region-length;
#X obj 1465 251 + 2;
#X obj 1222 280 t f f;
#X obj 1465 276 t f f;
#X obj 1254 307 tabread region-length;
#X obj 1708 281 t f f, f 6;
#X obj 1708 256 + 1;
#X obj 1222 254 + 3;
#X obj 1747 307 tabread region-length;
#X obj 1393 521 +;
#X obj 979 628 text get region-name;
#X obj 979 279 t f f;
#X obj 1011 306 tabread region-length;
#X obj 1151 518 +;
#X obj 979 253 + 4;
#X obj 1635 520 +;
#X obj 1183 569 < 16;
#X obj 1151 545 t f f;
#X obj 980 604 spigot 0;
#X obj 1151 628 spigot 0;
#X obj 1221 628 text get region-name;
#X obj 1425 568 < 16;
#X obj 1393 544 t f f;
#X obj 1222 604 spigot 0;
#X obj 1393 627 spigot 0;
#X obj 1463 628 text get region-name;
#X obj 1667 568 < 16;
#X obj 1635 544 t f f;
#X obj 1464 604 spigot 0;
#X obj 1635 627 spigot 0;
#X obj 1704 628 text get region-name;
#X obj 1908 565 < 16;
#X obj 1876 541 t f f;
#X obj 1705 604 spigot 0;
#X obj 1876 624 spigot 0;
#X obj 1963 254 text get region-name;
#X obj 736 628 text get region-name;
#X obj 736 279 t f f;
#X obj 768 306 tabread region-length;
#X obj 908 516 +;
#X obj 940 568 < 16;
#X obj 908 544 t f f;
#X obj 737 604 spigot 0;
#X obj 908 627 spigot 0;
#X obj 736 253 + 5;
#X obj 31 96 until;
#X obj 99 122 + 1;
#X obj 66 121 f 0;
#X msg 84 95 0;
#X obj 66 195 s toGUI;
#X msg 66 170 list /chord-\$1;
#X obj 66 146 + 1;
#X obj 8 42 t f b b;
#X obj 1704 705 s toGUI;
#X obj 1704 654 pack s f, f 25;
#X msg 1704 680 list /chord-\$2 \$1;
#X obj 1463 706 s toGUI;
#X obj 1463 655 pack s f, f 25;
#X msg 1463 681 list /chord-\$2 \$1;
#X obj 1221 706 s toGUI;
#X obj 1221 655 pack s f, f 25;
#X msg 1221 681 list /chord-\$2 \$1;
#X obj 979 706 s toGUI;
#X obj 979 655 pack s f, f 25;
#X msg 979 681 list /chord-\$2 \$1;
#X obj 736 706 s toGUI;
#X obj 736 655 pack s f, f 25;
#X msg 736 681 list /chord-\$2 \$1;
#X obj 1963 306 s toGUI;
#X msg 1963 281 list /chord-0 \$1;
#X obj 8 230 t f f f f f f f f f, f 278;
#X obj 493 628 text get region-name;
#X obj 493 279 t f f;
#X obj 525 306 tabread region-length;
#X obj 665 516 +;
#X obj 697 568 < 16;
#X obj 665 544 t f f;
#X obj 494 604 spigot 0;
#X obj 665 627 spigot 0;
#X obj 493 253 + 6;
#X obj 493 706 s toGUI;
#X obj 493 655 pack s f, f 25;
#X msg 493 681 list /chord-\$2 \$1;
#X obj 250 628 text get region-name;
#X obj 250 279 t f f;
#X obj 282 306 tabread region-length;
#X obj 422 516 +;
#X obj 454 568 < 16;
#X obj 422 544 t f f;
#X obj 251 604 spigot 0;
#X obj 422 627 spigot 0;
#X obj 250 706 s toGUI;
#X obj 250 655 pack s f, f 25;
#X msg 250 681 list /chord-\$2 \$1;
#X obj 8 628 text get region-name;
#X obj 180 516 +;
#X obj 212 568 < 16;
#X obj 180 544 t f f;
#X obj 9 604 spigot 0;
#X obj 180 627 spigot 0;
#X obj 8 706 s toGUI;
#X obj 8 655 pack s f, f 25;
#X msg 8 681 list /chord-\$2 \$1;
#X obj 8 253 + 8;
#X obj 250 253 + 7;
#X msg 31 69 16;
#X obj 8 17 inlet;
#X connect 0 0 16 1;
#X connect 0 0 33 0;
#X connect 1 0 10 0;
#X connect 2 0 4 0;
#X connect 3 0 24 0;
#X connect 3 1 5 0;
#X connect 4 0 29 0;
#X connect 4 1 1 0;
#X connect 5 0 14 0;
#X connect 6 0 34 0;
#X connect 6 1 9 0;
#X connect 7 0 6 0;
#X connect 8 0 3 0;
#X connect 9 0 16 0;
#X connect 10 0 14 1;
#X connect 10 0 23 0;
#X connect 11 0 64 0;
#X connect 12 0 19 0;
#X connect 12 1 13 0;
#X connect 13 0 40 0;
#X connect 14 0 18 0;
#X connect 14 0 40 1;
#X connect 15 0 12 0;
#X connect 16 0 10 1;
#X connect 16 0 28 0;
#X connect 17 0 20 1;
#X connect 17 0 19 1;
#X connect 18 0 20 0;
#X connect 18 1 17 0;
#X connect 19 0 11 0;
#X connect 20 0 64 1;
#X connect 21 0 61 0;
#X connect 22 0 25 1;
#X connect 22 0 24 1;
#X connect 23 0 25 0;
#X connect 23 1 22 0;
#X connect 24 0 21 0;
#X connect 25 0 61 1;
#X connect 26 0 58 0;
#X connect 27 0 30 1;
#X connect 27 0 29 1;
#X connect 28 0 30 0;
#X connect 28 1 27 0;
#X connect 29 0 26 0;
#X connect 30 0 58 1;
#X connect 31 0 55 0;
#X connect 32 0 35 1;
#X connect 32 0 34 1;
#X connect 33 0 35 0;
#X connect 33 1 32 0;
#X connect 34 0 31 0;
#X connect 35 0 55 1;
#X connect 36 0 70 0;
#X connect 37 0 67 0;
#X connect 38 0 43 0;
#X connect 38 1 39 0;
#X connect 39 0 75 0;
#X connect 40 0 42 0;
#X connect 40 0 75 1;
#X connect 41 0 44 1;
#X connect 41 0 43 1;
#X connect 42 0 44 0;
#X connect 42 1 41 0;
#X connect 43 0 37 0;
#X connect 44 0 67 1;
#X connect 45 0 38 0;
#X connect 46 0 48 0;
#X connect 47 0 48 1;
#X connect 48 0 47 0;
#X connect 48 0 52 0;
#X connect 49 0 48 1;
#X connect 51 0 50 0;
#X connect 52 0 51 0;
#X connect 53 0 71 0;
#X connect 53 1 106 0;
#X connect 53 2 49 0;
#X connect 55 0 56 0;
#X connect 56 0 54 0;
#X connect 58 0 59 0;
#X connect 59 0 57 0;
#X connect 61 0 62 0;
#X connect 62 0 60 0;
#X connect 64 0 65 0;
#X connect 65 0 63 0;
#X connect 67 0 68 0;
#X connect 68 0 66 0;
#X connect 70 0 69 0;
#X connect 71 0 104 0;
#X connect 71 1 105 0;
#X connect 71 2 80 0;
#X connect 71 3 45 0;
#X connect 71 4 15 0;
#X connect 71 5 8 0;
#X connect 71 6 2 0;
#X connect 71 7 7 0;
#X connect 71 8 36 0;
#X connect 71 8 0 0;
#X connect 72 0 82 0;
#X connect 73 0 78 0;
#X connect 73 1 74 0;
#X connect 74 0 87 0;
#X connect 75 0 77 0;
#X connect 75 0 87 1;
#X connect 76 0 79 1;
#X connect 76 0 78 1;
#X connect 77 0 79 0;
#X connect 77 1 76 0;
#X connect 78 0 72 0;
#X connect 79 0 82 1;
#X connect 80 0 73 0;
#X connect 82 0 83 0;
#X connect 83 0 81 0;
#X connect 84 0 93 0;
#X connect 85 0 90 0;
#X connect 85 1 86 0;
#X connect 86 0 96 0;
#X connect 87 0 89 0;
#X connect 87 0 96 1;
#X connect 88 0 91 1;
#X connect 88 0 90 1;
#X connect 89 0 91 0;
#X connect 89 1 88 0;
#X connect 90 0 84 0;
#X connect 91 0 93 1;
#X connect 93 0 94 0;
#X connect 94 0 92 0;
#X connect 95 0 102 0;
#X connect 96 0 98 0;
#X connect 97 0 100 1;
#X connect 97 0 99 1;
#X connect 98 0 100 0;
#X connect 98 1 97 0;
#X connect 99 0 95 0;
#X connect 100 0 102 1;
#X connect 102 0 103 0;
#X connect 103 0 101 0;
#X connect 104 0 99 0;
#X connect 105 0 85 0;
#X connect 106 0 46 0;
#X connect 107 0 53 0;
#X restore 574 249 pd chords;
#N canvas 0 25 809 289 lyrics 0;
#X obj 572 133 s toGUI;
#X obj 8 17 inlet;
#X obj 572 81 text get marker-name;
#X msg 572 108 list /lyrics-0 \$1;
#X obj 384 149 s toGUI;
#X obj 384 97 text get marker-name;
#X obj 8 43 t f f f f, f 81;
#X obj 384 71 + 1;
#X msg 384 124 list /lyrics-1 \$1;
#X obj 196 149 s toGUI;
#X obj 196 97 text get marker-name;
#X obj 8 149 s toGUI;
#X obj 8 97 text get marker-name;
#X obj 8 71 + 3;
#X obj 196 71 + 2;
#X msg 8 124 list /lyrics-3 \$1;
#X msg 196 124 list /lyrics-2 \$1;
#X connect 1 0 6 0;
#X connect 2 0 3 0;
#X connect 3 0 0 0;
#X connect 5 0 8 0;
#X connect 6 0 13 0;
#X connect 6 1 14 0;
#X connect 6 2 7 0;
#X connect 6 3 2 0;
#X connect 7 0 5 0;
#X connect 8 0 4 0;
#X connect 10 0 16 0;
#X connect 12 0 15 0;
#X connect 13 0 12 0;
#X connect 14 0 10 0;
#X connect 15 0 11 0;
#X connect 16 0 9 0;
#X restore 724 249 pd lyrics;
#X msg 763 71 clear;
#X obj 755 25 loadbang;
#X obj 755 96 text define marker-name;
#X msg 755 48 read -c chordlist.txt;
#N canvas 3 25 1427 813 markers 0;
#X obj 20 14 inlet;
#X obj 302 555 list, f 5;
#X msg 51 103 1;
#X obj 20 80 t a b;
#X obj 931 702 text set marker-name;
#X obj 84 79 t a b;
#X obj 149 79 t a b;
#X obj 213 80 t a b;
#X obj 278 79 t a b;
#X obj 343 79 t a b;
#X obj 407 80 t a b;
#X obj 472 79 t a b;
#X obj 536 79 t a b;
#X obj 601 79 t a b;
#X msg 116 102 2;
#X msg 181 102 3;
#X msg 245 103 4;
#X msg 310 102 5;
#X msg 375 102 6;
#X msg 439 103 7;
#X msg 504 102 8;
#X msg 568 102 9;
#X msg 633 102 10;
#X obj 20 41 route /marker/1/name /marker/2/name /marker/3/name /marker/4/name /marker/5/name /marker/6/name /marker/7/name /marker/8/name /marker/9/name /marker/10/name /marker/11/name /marker/12/name /marker/13/name /marker/14/name /marker/15/name /marker/16/name /marker/17/name /marker/18/name /marker/19/name /marker/20/name, f 185;
#X obj 1312 80 outlet;
#X obj 666 79 t a b;
#X obj 730 79 t a b;
#X obj 795 79 t a b;
#X obj 859 78 t a b;
#X obj 924 79 t a b;
#X obj 989 80 t a b;
#X obj 1053 79 t a b;
#X obj 1118 79 t a b;
#X obj 1182 80 t a b;
#X obj 1247 79 t a b;
#X msg 1279 102 20;
#X msg 1214 103 19;
#X msg 1150 102 18;
#X msg 1085 102 17;
#X msg 1021 103 16;
#X msg 956 102 15;
#X msg 891 101 14;
#X msg 827 102 13;
#X msg 762 102 12;
#X msg 698 102 11;
#X connect 0 0 23 0;
#X connect 1 0 4 0;
#X connect 2 0 4 1;
#X connect 3 0 1 0;
#X connect 3 1 2 0;
#X connect 5 0 1 0;
#X connect 5 1 14 0;
#X connect 6 0 1 0;
#X connect 6 1 15 0;
#X connect 7 0 1 0;
#X connect 7 1 16 0;
#X connect 8 0 1 0;
#X connect 8 1 17 0;
#X connect 9 0 1 0;
#X connect 9 1 18 0;
#X connect 10 0 1 0;
#X connect 10 1 19 0;
#X connect 11 0 1 0;
#X connect 11 1 20 0;
#X connect 12 0 1 0;
#X connect 12 1 21 0;
#X connect 13 0 1 0;
#X connect 13 1 22 0;
#X connect 14 0 4 1;
#X connect 15 0 4 1;
#X connect 16 0 4 1;
#X connect 17 0 4 1;
#X connect 18 0 4 1;
#X connect 19 0 4 1;
#X connect 20 0 4 1;
#X connect 21 0 4 1;
#X connect 22 0 4 1;
#X connect 23 0 3 0;
#X connect 23 1 5 0;
#X connect 23 2 6 0;
#X connect 23 3 7 0;
#X connect 23 4 8 0;
#X connect 23 5 9 0;
#X connect 23 6 10 0;
#X connect 23 7 11 0;
#X connect 23 8 12 0;
#X connect 23 9 13 0;
#X connect 23 10 25 0;
#X connect 23 11 26 0;
#X connect 23 12 27 0;
#X connect 23 13 28 0;
#X connect 23 14 29 0;
#X connect 23 15 30 0;
#X connect 23 16 31 0;
#X connect 23 17 32 0;
#X connect 23 18 33 0;
#X connect 23 19 34 0;
#X connect 23 20 24 0;
#X connect 25 0 1 0;
#X connect 25 1 44 0;
#X connect 26 0 1 0;
#X connect 26 1 43 0;
#X connect 27 0 1 0;
#X connect 27 1 42 0;
#X connect 28 0 1 0;
#X connect 28 1 41 0;
#X connect 29 0 1 0;
#X connect 29 1 40 0;
#X connect 30 0 1 0;
#X connect 30 1 39 0;
#X connect 31 0 1 0;
#X connect 31 1 38 0;
#X connect 32 0 1 0;
#X connect 32 1 37 0;
#X connect 33 0 1 0;
#X connect 33 1 36 0;
#X connect 34 0 1 0;
#X connect 34 1 35 0;
#X connect 35 0 4 1;
#X connect 36 0 4 1;
#X connect 37 0 4 1;
#X connect 38 0 4 1;
#X connect 39 0 4 1;
#X connect 40 0 4 1;
#X connect 41 0 4 1;
#X connect 42 0 4 1;
#X connect 43 0 4 1;
#X connect 44 0 4 1;
#X restore 872 172 pd markers;
#X connect 0 0 2 0;
#X connect 1 0 4 0;
#X connect 2 0 3 0;
#X connect 2 1 1 0;
#X connect 3 0 9 0;
#X connect 4 0 3 1;
#X connect 5 0 12 0;
#X connect 6 0 11 0;
#X connect 8 0 5 0;
#X connect 9 0 10 0;
#X connect 9 1 6 0;
#X connect 9 2 5 1;
#X connect 10 0 16 0;
#X connect 10 1 19 0;
#X connect 11 0 13 0;
#X connect 11 1 7 0;
#X connect 12 0 14 1;
#X connect 13 0 14 0;
#X connect 14 0 10 1;
#X connect 15 0 17 0;
#X connect 16 0 18 0;
#X connect 16 1 15 0;
#X connect 17 0 18 1;
#X connect 18 0 26 0;
#X connect 19 0 22 0;
#X connect 19 1 21 0;
#X connect 20 0 65 0;
#X connect 21 0 20 1;
#X connect 22 0 24 0;
#X connect 22 1 24 1;
#X connect 23 0 25 0;
#X connect 24 0 23 0;
#X connect 25 0 20 0;
#X connect 26 0 33 0;
#X connect 26 1 28 0;
#X connect 27 0 57 0;
#X connect 28 0 27 1;
#X connect 29 0 30 0;
#X connect 30 0 27 0;
#X connect 31 0 29 0;
#X connect 32 0 34 1;
#X connect 33 0 31 0;
#X connect 33 1 34 0;
#X connect 33 2 32 0;
#X connect 33 3 32 1;
#X connect 34 0 31 1;
#X connect 35 0 37 0;
#X connect 36 0 40 0;
#X connect 37 0 38 0;
#X connect 37 1 36 0;
#X connect 38 0 41 0;
#X connect 39 0 61 0;
#X connect 40 0 38 1;
#X connect 40 0 43 0;
#X connect 41 0 42 0;
#X connect 41 1 48 1;
#X connect 42 1 44 0;
#X connect 43 0 42 1;
#X connect 44 0 45 0;
#X connect 44 1 45 1;
#X connect 45 0 46 0;
#X connect 46 0 47 0;
#X connect 47 0 48 0;
#X connect 48 0 39 0;
#X connect 52 0 51 0;
#X connect 53 0 51 0;
#X connect 54 0 53 0;
#X connect 62 0 67 0;
#X connect 63 0 0 0;
#X connect 64 0 35 0;
#X connect 65 0 58 0;
#X connect 66 0 63 0;
#X connect 66 1 64 0;
#X connect 66 2 55 0;
#X connect 66 2 79 0;
#X connect 66 3 59 0;
#X connect 66 4 60 0;
#X connect 66 5 70 0;
#X connect 67 0 66 0;
#X connect 68 0 81 0;
#X connect 69 0 82 0;
#X connect 70 0 72 0;
#X connect 70 1 75 0;
#X connect 70 2 71 0;
#X connect 71 0 87 0;
#X connect 72 0 74 0;
#X connect 73 0 68 0;
#X connect 74 0 73 0;
#X connect 75 0 77 0;
#X connect 76 0 69 0;
#X connect 77 0 76 0;
#X connect 79 0 78 0;
#X connect 83 0 85 0;
#X connect 84 0 86 0;
#X connect 86 0 85 0;
