#N canvas 0 25 1008 1099 12;
#X obj 44 111 list fromsymbol;
#X obj 125 157 list length;
#X obj 44 134 t l l, f 12;
#X obj 44 204 list split 0;
#X obj 125 181 - 3;
#X obj 116 351 list store;
#X obj 84 253 list length;
#X obj 116 301 - 3;
#X msg 116 326 get \$1;
#X obj 44 228 t l l l, f 12;
#X obj 17 423 list split;
#X obj 84 277 t f f;
#X obj 116 376 == 46;
#X obj 84 375 - 1;
#X obj 84 399 - 0, f 4;
#X obj 84 666 list length;
#X obj 17 642 t l l, f 10;
#X obj 84 689 - 1;
#X obj 17 712 list split;
#X obj 50 447 t l l, f 12;
#X obj 50 566 symbol, f 12;
#X obj 131 542 list tosymbol;
#X obj 50 469 unpack 0 0;
#X obj 50 518 change;
#X obj 50 494 +, f 10;
#X obj 50 541 t b;
#X obj 17 738 t l l, f 16;
#X obj 17 905 symbol, f 16;
#X obj 126 877 list tosymbol;
#X obj 17 857 change;
#X obj 17 880 t b;
#X obj 17 833 +, f 5;
#X obj 80 786 +, f 5;
#X obj 17 760 unpack 0 0 0 0;
#X obj 48 810 +, f 5;
#X obj 285 392 list fromsymbol;
#X obj 366 438 list length;
#X obj 285 415 t l l, f 12;
#X obj 285 495 list split 0;
#X obj 318 694 list tosymbol;
#X obj 366 462 - 4;
#X obj 285 522 t l l, f 17;
#X obj 285 547 list split;
#X obj 381 494 - 2;
#X obj 318 573 unpack 0 0;
#X obj 318 598 +, f 10;
#X obj 318 622 change;
#X obj 318 645 t b;
#X obj 318 669 list, f 12;
#X obj 573 360 array define -yrange 0 20 region-length 20;
#X obj 573 334 text define region-name;
#X msg 573 282 read -c chordlist.txt;
#X obj 573 259 loadbang;
#X obj 44 15 r fromNetwork;
#X obj 44 87 symbol;
#X obj 285 367 symbol;
#X obj 50 592 makefilename %02s;
#X obj 44 64 route /beat /time /play /record /tempo, f 72;
#X obj 44 38 route list;
#X obj 574 183 change -12;
#X obj 724 183 change -12;
#X obj 574 83 route /lastregion/number /lastmarker/number;
#X obj 574 109 list trim;
#X obj 574 159 float;
#X obj 574 133 symbol;
#X obj 724 109 list trim;
#X obj 724 159 float;
#X obj 724 133 symbol;
#X text 161 374 probably not updated in pd distr, f 14;
#N canvas 4 25 1956 800 chords 0;
#X obj 1951 330 tabread region-length;
#X obj 1497 302 tabread region-length;
#X obj 1465 251 + 2;
#X obj 1222 280 t f f;
#X obj 1465 276 t f f;
#X obj 1254 307 tabread region-length;
#X obj 1708 281 t f f, f 6;
#X obj 1708 256 + 1;
#X obj 1222 254 + 3;
#X obj 1747 307 tabread region-length;
#X obj 1393 521 +;
#X obj 979 628 text get region-name;
#X obj 979 279 t f f;
#X obj 1011 306 tabread region-length;
#X obj 1151 518 +;
#X obj 979 253 + 4;
#X obj 1635 520 +;
#X obj 1183 569 < 16;
#X obj 1151 545 t f f;
#X obj 980 604 spigot 0;
#X obj 1151 628 spigot 0;
#X obj 1221 628 text get region-name;
#X obj 1425 568 < 16;
#X obj 1393 544 t f f;
#X obj 1222 604 spigot 0;
#X obj 1393 627 spigot 0;
#X obj 1463 628 text get region-name;
#X obj 1667 568 < 16;
#X obj 1635 544 t f f;
#X obj 1464 604 spigot 0;
#X obj 1635 627 spigot 0;
#X obj 1704 628 text get region-name;
#X obj 1908 565 < 16;
#X obj 1876 541 t f f;
#X obj 1705 604 spigot 0;
#X obj 1876 624 spigot 0;
#X obj 1963 254 text get region-name;
#X obj 736 628 text get region-name;
#X obj 736 279 t f f;
#X obj 768 306 tabread region-length;
#X obj 908 516 +;
#X obj 940 568 < 16;
#X obj 908 544 t f f;
#X obj 737 604 spigot 0;
#X obj 908 627 spigot 0;
#X obj 736 253 + 5;
#X obj 31 96 until;
#X obj 99 122 + 1;
#X obj 66 121 f 0;
#X msg 84 95 0;
#X obj 66 195 s toGUI;
#X msg 66 170 list /chord-\$1;
#X obj 66 146 + 1;
#X obj 8 42 t f b b;
#X obj 1704 705 s toGUI;
#X obj 1704 654 pack s f, f 25;
#X msg 1704 680 list /chord-\$2 \$1;
#X obj 1463 706 s toGUI;
#X obj 1463 655 pack s f, f 25;
#X msg 1463 681 list /chord-\$2 \$1;
#X obj 1221 706 s toGUI;
#X obj 1221 655 pack s f, f 25;
#X msg 1221 681 list /chord-\$2 \$1;
#X obj 979 706 s toGUI;
#X obj 979 655 pack s f, f 25;
#X msg 979 681 list /chord-\$2 \$1;
#X obj 736 706 s toGUI;
#X obj 736 655 pack s f, f 25;
#X msg 736 681 list /chord-\$2 \$1;
#X obj 1963 306 s toGUI;
#X msg 1963 281 list /chord-0 \$1;
#X obj 8 230 t f f f f f f f f f, f 278;
#X obj 493 628 text get region-name;
#X obj 493 279 t f f;
#X obj 525 306 tabread region-length;
#X obj 665 516 +;
#X obj 697 568 < 16;
#X obj 665 544 t f f;
#X obj 494 604 spigot 0;
#X obj 665 627 spigot 0;
#X obj 493 253 + 6;
#X obj 493 706 s toGUI;
#X obj 493 655 pack s f, f 25;
#X msg 493 681 list /chord-\$2 \$1;
#X obj 250 628 text get region-name;
#X obj 250 279 t f f;
#X obj 282 306 tabread region-length;
#X obj 422 516 +;
#X obj 454 568 < 16;
#X obj 422 544 t f f;
#X obj 251 604 spigot 0;
#X obj 422 627 spigot 0;
#X obj 250 706 s toGUI;
#X obj 250 655 pack s f, f 25;
#X msg 250 681 list /chord-\$2 \$1;
#X obj 8 628 text get region-name;
#X obj 180 516 +;
#X obj 212 568 < 16;
#X obj 180 544 t f f;
#X obj 9 604 spigot 0;
#X obj 180 627 spigot 0;
#X obj 8 706 s toGUI;
#X obj 8 655 pack s f, f 25;
#X msg 8 681 list /chord-\$2 \$1;
#X obj 8 253 + 8;
#X obj 250 253 + 7;
#X msg 31 69 16;
#X obj 8 17 inlet;
#X connect 0 0 16 1;
#X connect 0 0 33 0;
#X connect 1 0 10 0;
#X connect 2 0 4 0;
#X connect 3 0 24 0;
#X connect 3 1 5 0;
#X connect 4 0 29 0;
#X connect 4 1 1 0;
#X connect 5 0 14 0;
#X connect 6 0 34 0;
#X connect 6 1 9 0;
#X connect 7 0 6 0;
#X connect 8 0 3 0;
#X connect 9 0 16 0;
#X connect 10 0 14 1;
#X connect 10 0 23 0;
#X connect 11 0 64 0;
#X connect 12 0 19 0;
#X connect 12 1 13 0;
#X connect 13 0 40 0;
#X connect 14 0 18 0;
#X connect 14 0 40 1;
#X connect 15 0 12 0;
#X connect 16 0 10 1;
#X connect 16 0 28 0;
#X connect 17 0 20 1;
#X connect 17 0 19 1;
#X connect 18 0 20 0;
#X connect 18 1 17 0;
#X connect 19 0 11 0;
#X connect 20 0 64 1;
#X connect 21 0 61 0;
#X connect 22 0 25 1;
#X connect 22 0 24 1;
#X connect 23 0 25 0;
#X connect 23 1 22 0;
#X connect 24 0 21 0;
#X connect 25 0 61 1;
#X connect 26 0 58 0;
#X connect 27 0 30 1;
#X connect 27 0 29 1;
#X connect 28 0 30 0;
#X connect 28 1 27 0;
#X connect 29 0 26 0;
#X connect 30 0 58 1;
#X connect 31 0 55 0;
#X connect 32 0 35 1;
#X connect 32 0 34 1;
#X connect 33 0 35 0;
#X connect 33 1 32 0;
#X connect 34 0 31 0;
#X connect 35 0 55 1;
#X connect 36 0 70 0;
#X connect 37 0 67 0;
#X connect 38 0 43 0;
#X connect 38 1 39 0;
#X connect 39 0 75 0;
#X connect 40 0 42 0;
#X connect 40 0 75 1;
#X connect 41 0 44 1;
#X connect 41 0 43 1;
#X connect 42 0 44 0;
#X connect 42 1 41 0;
#X connect 43 0 37 0;
#X connect 44 0 67 1;
#X connect 45 0 38 0;
#X connect 46 0 48 0;
#X connect 47 0 48 1;
#X connect 48 0 47 0;
#X connect 48 0 52 0;
#X connect 49 0 48 1;
#X connect 51 0 50 0;
#X connect 52 0 51 0;
#X connect 53 0 71 0;
#X connect 53 1 106 0;
#X connect 53 2 49 0;
#X connect 55 0 56 0;
#X connect 56 0 54 0;
#X connect 58 0 59 0;
#X connect 59 0 57 0;
#X connect 61 0 62 0;
#X connect 62 0 60 0;
#X connect 64 0 65 0;
#X connect 65 0 63 0;
#X connect 67 0 68 0;
#X connect 68 0 66 0;
#X connect 70 0 69 0;
#X connect 71 0 104 0;
#X connect 71 1 105 0;
#X connect 71 2 80 0;
#X connect 71 3 45 0;
#X connect 71 4 15 0;
#X connect 71 5 8 0;
#X connect 71 6 2 0;
#X connect 71 7 7 0;
#X connect 71 8 36 0;
#X connect 71 8 0 0;
#X connect 72 0 82 0;
#X connect 73 0 78 0;
#X connect 73 1 74 0;
#X connect 74 0 87 0;
#X connect 75 0 77 0;
#X connect 75 0 87 1;
#X connect 76 0 79 1;
#X connect 76 0 78 1;
#X connect 77 0 79 0;
#X connect 77 1 76 0;
#X connect 78 0 72 0;
#X connect 79 0 82 1;
#X connect 80 0 73 0;
#X connect 82 0 83 0;
#X connect 83 0 81 0;
#X connect 84 0 93 0;
#X connect 85 0 90 0;
#X connect 85 1 86 0;
#X connect 86 0 96 0;
#X connect 87 0 89 0;
#X connect 87 0 96 1;
#X connect 88 0 91 1;
#X connect 88 0 90 1;
#X connect 89 0 91 0;
#X connect 89 1 88 0;
#X connect 90 0 84 0;
#X connect 91 0 93 1;
#X connect 93 0 94 0;
#X connect 94 0 92 0;
#X connect 95 0 102 0;
#X connect 96 0 98 0;
#X connect 97 0 100 1;
#X connect 97 0 99 1;
#X connect 98 0 100 0;
#X connect 98 1 97 0;
#X connect 99 0 95 0;
#X connect 100 0 102 1;
#X connect 102 0 103 0;
#X connect 103 0 101 0;
#X connect 104 0 99 0;
#X connect 105 0 85 0;
#X connect 106 0 46 0;
#X connect 107 0 53 0;
#X restore 574 209 pd chords;
#N canvas 0 25 809 289 lyrics 0;
#X obj 572 133 s toGUI;
#X obj 8 17 inlet;
#X obj 572 81 text get marker-name;
#X msg 572 108 list /lyrics-0 \$1;
#X obj 384 149 s toGUI;
#X obj 384 97 text get marker-name;
#X obj 8 43 t f f f f, f 81;
#X obj 384 71 + 1;
#X msg 384 124 list /lyrics-1 \$1;
#X obj 196 149 s toGUI;
#X obj 196 97 text get marker-name;
#X obj 8 149 s toGUI;
#X obj 8 97 text get marker-name;
#X obj 8 71 + 3;
#X obj 196 71 + 2;
#X msg 8 124 list /lyrics-3 \$1;
#X msg 196 124 list /lyrics-2 \$1;
#X connect 1 0 6 0;
#X connect 2 0 3 0;
#X connect 3 0 0 0;
#X connect 5 0 8 0;
#X connect 6 0 13 0;
#X connect 6 1 14 0;
#X connect 6 2 7 0;
#X connect 6 3 2 0;
#X connect 7 0 5 0;
#X connect 8 0 4 0;
#X connect 10 0 16 0;
#X connect 12 0 15 0;
#X connect 13 0 12 0;
#X connect 14 0 10 0;
#X connect 15 0 11 0;
#X connect 16 0 9 0;
#X restore 724 209 pd lyrics;
#X obj 583 308 text define marker-name;
#N canvas 3 25 1427 813 markers 0;
#X obj 20 14 inlet;
#X obj 302 555 list;
#X msg 51 103 1;
#X obj 20 80 t a b;
#X obj 931 702 text set marker-name;
#X obj 84 79 t a b;
#X obj 149 79 t a b;
#X obj 213 80 t a b;
#X obj 278 79 t a b;
#X obj 343 79 t a b;
#X obj 407 80 t a b;
#X obj 472 79 t a b;
#X obj 536 79 t a b;
#X obj 601 79 t a b;
#X msg 116 102 2;
#X msg 181 102 3;
#X msg 245 103 4;
#X msg 310 102 5;
#X msg 375 102 6;
#X msg 439 103 7;
#X msg 504 102 8;
#X msg 568 102 9;
#X msg 633 102 10;
#X obj 20 41 route /marker/1/name /marker/2/name /marker/3/name /marker/4/name /marker/5/name /marker/6/name /marker/7/name /marker/8/name /marker/9/name /marker/10/name /marker/11/name /marker/12/name /marker/13/name /marker/14/name /marker/15/name /marker/16/name /marker/17/name /marker/18/name /marker/19/name /marker/20/name, f 185;
#X obj 1312 80 outlet;
#X obj 666 79 t a b;
#X obj 730 79 t a b;
#X obj 795 79 t a b;
#X obj 859 78 t a b;
#X obj 924 79 t a b;
#X obj 989 80 t a b;
#X obj 1053 79 t a b;
#X obj 1118 79 t a b;
#X obj 1182 80 t a b;
#X obj 1247 79 t a b;
#X msg 1279 102 20;
#X msg 1214 103 19;
#X msg 1150 102 18;
#X msg 1085 102 17;
#X msg 1021 103 16;
#X msg 956 102 15;
#X msg 891 101 14;
#X msg 827 102 13;
#X msg 762 102 12;
#X msg 698 102 11;
#X connect 0 0 23 0;
#X connect 1 0 4 0;
#X connect 2 0 4 1;
#X connect 3 0 1 0;
#X connect 3 1 2 0;
#X connect 5 0 1 0;
#X connect 5 1 14 0;
#X connect 6 0 1 0;
#X connect 6 1 15 0;
#X connect 7 0 1 0;
#X connect 7 1 16 0;
#X connect 8 0 1 0;
#X connect 8 1 17 0;
#X connect 9 0 1 0;
#X connect 9 1 18 0;
#X connect 10 0 1 0;
#X connect 10 1 19 0;
#X connect 11 0 1 0;
#X connect 11 1 20 0;
#X connect 12 0 1 0;
#X connect 12 1 21 0;
#X connect 13 0 1 0;
#X connect 13 1 22 0;
#X connect 14 0 4 1;
#X connect 15 0 4 1;
#X connect 16 0 4 1;
#X connect 17 0 4 1;
#X connect 18 0 4 1;
#X connect 19 0 4 1;
#X connect 20 0 4 1;
#X connect 21 0 4 1;
#X connect 22 0 4 1;
#X connect 23 0 3 0;
#X connect 23 1 5 0;
#X connect 23 2 6 0;
#X connect 23 3 7 0;
#X connect 23 4 8 0;
#X connect 23 5 9 0;
#X connect 23 6 10 0;
#X connect 23 7 11 0;
#X connect 23 8 12 0;
#X connect 23 9 13 0;
#X connect 23 10 25 0;
#X connect 23 11 26 0;
#X connect 23 12 27 0;
#X connect 23 13 28 0;
#X connect 23 14 29 0;
#X connect 23 15 30 0;
#X connect 23 16 31 0;
#X connect 23 17 32 0;
#X connect 23 18 33 0;
#X connect 23 19 34 0;
#X connect 23 20 24 0;
#X connect 25 0 1 0;
#X connect 25 1 44 0;
#X connect 26 0 1 0;
#X connect 26 1 43 0;
#X connect 27 0 1 0;
#X connect 27 1 42 0;
#X connect 28 0 1 0;
#X connect 28 1 41 0;
#X connect 29 0 1 0;
#X connect 29 1 40 0;
#X connect 30 0 1 0;
#X connect 30 1 39 0;
#X connect 31 0 1 0;
#X connect 31 1 38 0;
#X connect 32 0 1 0;
#X connect 32 1 37 0;
#X connect 33 0 1 0;
#X connect 33 1 36 0;
#X connect 34 0 1 0;
#X connect 34 1 35 0;
#X connect 35 0 4 1;
#X connect 36 0 4 1;
#X connect 37 0 4 1;
#X connect 38 0 4 1;
#X connect 39 0 4 1;
#X connect 40 0 4 1;
#X connect 41 0 4 1;
#X connect 42 0 4 1;
#X connect 43 0 4 1;
#X connect 44 0 4 1;
#X restore 872 160 pd markers;
#N canvas 3 25 1427 813 region-names 0;
#X obj 20 14 inlet;
#X obj 302 555 list;
#X msg 51 103 1;
#X obj 20 80 t a b;
#X obj 84 79 t a b;
#X obj 149 79 t a b;
#X obj 213 80 t a b;
#X obj 278 79 t a b;
#X obj 343 79 t a b;
#X obj 407 80 t a b;
#X obj 472 79 t a b;
#X obj 536 79 t a b;
#X obj 601 79 t a b;
#X msg 116 102 2;
#X msg 181 102 3;
#X msg 245 103 4;
#X msg 310 102 5;
#X msg 375 102 6;
#X msg 439 103 7;
#X msg 504 102 8;
#X msg 568 102 9;
#X msg 633 102 10;
#X obj 1312 80 outlet;
#X obj 666 79 t a b;
#X obj 730 79 t a b;
#X obj 795 79 t a b;
#X obj 859 78 t a b;
#X obj 924 79 t a b;
#X obj 989 80 t a b;
#X obj 1053 79 t a b;
#X obj 1118 79 t a b;
#X obj 1182 80 t a b;
#X obj 1247 79 t a b;
#X msg 1279 102 20;
#X msg 1214 103 19;
#X msg 1150 102 18;
#X msg 1085 102 17;
#X msg 1021 103 16;
#X msg 956 102 15;
#X msg 891 101 14;
#X msg 827 102 13;
#X msg 762 102 12;
#X msg 698 102 11;
#X obj 931 702 text set region-name;
#X obj 20 41 route /region/1/name /region/2/name /region/3/name /region/4/name /region/5/name /region/6/name /region/7/name /region/8/name /region/9/name /region/10/name /region/11/name /region/12/name /region/13/name /region/14/name /region/15/name /region/16/name /region/17/name /region/18/name /region/19/name /region/20/name, f 185;
#X connect 0 0 44 0;
#X connect 1 0 43 0;
#X connect 2 0 43 1;
#X connect 3 0 1 0;
#X connect 3 1 2 0;
#X connect 4 0 1 0;
#X connect 4 1 13 0;
#X connect 5 0 1 0;
#X connect 5 1 14 0;
#X connect 6 0 1 0;
#X connect 6 1 15 0;
#X connect 7 0 1 0;
#X connect 7 1 16 0;
#X connect 8 0 1 0;
#X connect 8 1 17 0;
#X connect 9 0 1 0;
#X connect 9 1 18 0;
#X connect 10 0 1 0;
#X connect 10 1 19 0;
#X connect 11 0 1 0;
#X connect 11 1 20 0;
#X connect 12 0 1 0;
#X connect 12 1 21 0;
#X connect 13 0 43 1;
#X connect 14 0 43 1;
#X connect 15 0 43 1;
#X connect 16 0 43 1;
#X connect 17 0 43 1;
#X connect 18 0 43 1;
#X connect 19 0 43 1;
#X connect 20 0 43 1;
#X connect 21 0 43 1;
#X connect 23 0 1 0;
#X connect 23 1 42 0;
#X connect 24 0 1 0;
#X connect 24 1 41 0;
#X connect 25 0 1 0;
#X connect 25 1 40 0;
#X connect 26 0 1 0;
#X connect 26 1 39 0;
#X connect 27 0 1 0;
#X connect 27 1 38 0;
#X connect 28 0 1 0;
#X connect 28 1 37 0;
#X connect 29 0 1 0;
#X connect 29 1 36 0;
#X connect 30 0 1 0;
#X connect 30 1 35 0;
#X connect 31 0 1 0;
#X connect 31 1 34 0;
#X connect 32 0 1 0;
#X connect 32 1 33 0;
#X connect 33 0 43 1;
#X connect 34 0 43 1;
#X connect 35 0 43 1;
#X connect 36 0 43 1;
#X connect 37 0 43 1;
#X connect 38 0 43 1;
#X connect 39 0 43 1;
#X connect 40 0 43 1;
#X connect 41 0 43 1;
#X connect 42 0 43 1;
#X connect 44 0 3 0;
#X connect 44 1 4 0;
#X connect 44 2 5 0;
#X connect 44 3 6 0;
#X connect 44 4 7 0;
#X connect 44 5 8 0;
#X connect 44 6 9 0;
#X connect 44 7 10 0;
#X connect 44 8 11 0;
#X connect 44 9 12 0;
#X connect 44 10 23 0;
#X connect 44 11 24 0;
#X connect 44 12 25 0;
#X connect 44 13 26 0;
#X connect 44 14 27 0;
#X connect 44 15 28 0;
#X connect 44 16 29 0;
#X connect 44 17 30 0;
#X connect 44 18 31 0;
#X connect 44 19 32 0;
#X connect 44 20 22 0;
#X restore 872 109 pd region-names;
#N canvas 2 25 2046 888 region-length 0;
#X obj 22 13 inlet;
#X msg 26 750 \$1 1;
#X obj 26 702 float;
#X obj 26 726 change -12;
#X obj 26 775 tabwrite region-length;
#X obj 193 774 tabwrite region-length;
#X msg 193 749 \$1 2;
#X obj 360 776 tabwrite region-length;
#X msg 360 751 \$1 3;
#X obj 26 654 list trim;
#X obj 26 678 unpack;
#X obj 193 700 float;
#X obj 193 724 change -12;
#X obj 193 652 list trim;
#X obj 193 676 unpack;
#X obj 360 701 float;
#X obj 360 725 change -12;
#X obj 360 653 list trim;
#X obj 360 677 unpack;
#X obj 530 703 float;
#X obj 530 727 change -12;
#X obj 530 776 tabwrite region-length;
#X obj 700 774 tabwrite region-length;
#X obj 872 773 tabwrite region-length;
#X obj 530 655 list trim;
#X obj 530 679 unpack;
#X obj 700 700 float;
#X obj 700 724 change -12;
#X obj 700 652 list trim;
#X obj 700 676 unpack;
#X obj 872 698 float;
#X obj 872 722 change -12;
#X obj 872 650 list trim;
#X obj 872 674 unpack;
#X msg 530 751 \$1 4;
#X msg 700 749 \$1 5;
#X msg 872 748 \$1 6;
#X obj 1037 773 tabwrite region-length;
#X obj 1037 698 float;
#X obj 1037 722 change -12;
#X obj 1037 650 list trim;
#X obj 1037 674 unpack;
#X obj 1203 700 float;
#X obj 1203 724 change -12;
#X obj 1203 773 tabwrite region-length;
#X obj 1371 773 tabwrite region-length;
#X obj 1540 771 tabwrite region-length;
#X obj 1203 652 list trim;
#X obj 1203 676 unpack;
#X obj 1371 699 float;
#X obj 1371 723 change -12;
#X obj 1371 651 list trim;
#X obj 1371 675 unpack;
#X obj 1540 696 float;
#X obj 1540 720 change -12;
#X obj 1540 648 list trim;
#X obj 1540 672 unpack;
#X msg 1540 746 \$1 10;
#X msg 1371 748 \$1 9;
#X msg 1203 748 \$1 8;
#X msg 1037 748 \$1 7;
#X obj 1836 237 outlet;
#X obj 22 39 route /region/1/length /region/2/length /region/3/length /region/4/length /region/5/length /region/6/length /region/7/length /region/8/length /region/9/length /region/10/length route /region/11/length /region/12/length /region/13/length /region/14/length /region/15/length /region/16/length /region/17/length /region/18/length /region/19/length /region/20/length, f 238;
#X connect 0 0 62 0;
#X connect 1 0 4 0;
#X connect 2 0 3 0;
#X connect 3 0 1 0;
#X connect 6 0 5 0;
#X connect 8 0 7 0;
#X connect 9 0 10 0;
#X connect 10 0 2 0;
#X connect 11 0 12 0;
#X connect 12 0 6 0;
#X connect 13 0 14 0;
#X connect 14 0 11 0;
#X connect 15 0 16 0;
#X connect 16 0 8 0;
#X connect 17 0 18 0;
#X connect 18 0 15 0;
#X connect 19 0 20 0;
#X connect 20 0 34 0;
#X connect 24 0 25 0;
#X connect 25 0 19 0;
#X connect 26 0 27 0;
#X connect 27 0 35 0;
#X connect 28 0 29 0;
#X connect 29 0 26 0;
#X connect 30 0 31 0;
#X connect 31 0 36 0;
#X connect 32 0 33 0;
#X connect 33 0 30 0;
#X connect 34 0 21 0;
#X connect 35 0 22 0;
#X connect 36 0 23 0;
#X connect 38 0 39 0;
#X connect 39 0 60 0;
#X connect 40 0 41 0;
#X connect 41 0 38 0;
#X connect 42 0 43 0;
#X connect 43 0 59 0;
#X connect 47 0 48 0;
#X connect 48 0 42 0;
#X connect 49 0 50 0;
#X connect 50 0 58 0;
#X connect 51 0 52 0;
#X connect 52 0 49 0;
#X connect 53 0 54 0;
#X connect 54 0 57 0;
#X connect 55 0 56 0;
#X connect 56 0 53 0;
#X connect 57 0 46 0;
#X connect 58 0 45 0;
#X connect 59 0 44 0;
#X connect 60 0 37 0;
#X connect 62 0 9 0;
#X connect 62 1 13 0;
#X connect 62 2 17 0;
#X connect 62 3 24 0;
#X connect 62 4 28 0;
#X connect 62 5 32 0;
#X connect 62 6 40 0;
#X connect 62 7 47 0;
#X connect 62 8 51 0;
#X connect 62 9 55 0;
#X connect 62 21 61 0;
#X restore 872 135 pd region-length;
#X obj 477 1043 s toGUI;
#X msg 553 561 list /play enable 0 \, list /record enable 0;
#X obj 553 536 loadbang;
#X msg 501 470 list /record set \$1;
#X msg 318 718 list /time \$1;
#X msg 16 931 list /bar \$1;
#X msg 50 616 list /beat \$1;
#X msg 535 504 list /tempo \$1;
#X msg 463 438 list /play set \$1 \, list /chord-0 highlight \$1;
#X connect 0 0 2 0;
#X connect 1 0 4 0;
#X connect 2 0 3 0;
#X connect 2 1 1 0;
#X connect 3 0 9 0;
#X connect 4 0 3 1;
#X connect 5 0 12 0;
#X connect 6 0 11 0;
#X connect 8 0 5 0;
#X connect 9 0 10 0;
#X connect 9 1 6 0;
#X connect 9 2 5 1;
#X connect 10 0 16 0;
#X connect 10 1 19 0;
#X connect 11 0 13 0;
#X connect 11 1 7 0;
#X connect 12 0 14 1;
#X connect 13 0 14 0;
#X connect 14 0 10 1;
#X connect 15 0 17 0;
#X connect 16 0 18 0;
#X connect 16 1 15 0;
#X connect 17 0 18 1;
#X connect 18 0 26 0;
#X connect 19 0 22 0;
#X connect 19 1 21 0;
#X connect 20 0 56 0;
#X connect 21 0 20 1;
#X connect 22 0 24 0;
#X connect 22 1 24 1;
#X connect 23 0 25 0;
#X connect 24 0 23 0;
#X connect 25 0 20 0;
#X connect 26 0 33 0;
#X connect 26 1 28 0;
#X connect 27 0 80 0;
#X connect 28 0 27 1;
#X connect 29 0 30 0;
#X connect 30 0 27 0;
#X connect 31 0 29 0;
#X connect 32 0 34 1;
#X connect 33 0 31 0;
#X connect 33 1 34 0;
#X connect 33 2 32 0;
#X connect 33 3 32 1;
#X connect 34 0 31 1;
#X connect 35 0 37 0;
#X connect 36 0 40 0;
#X connect 37 0 38 0;
#X connect 37 1 36 0;
#X connect 38 0 41 0;
#X connect 39 0 79 0;
#X connect 40 0 38 1;
#X connect 40 0 43 0;
#X connect 41 0 42 0;
#X connect 41 1 48 1;
#X connect 42 1 44 0;
#X connect 43 0 42 1;
#X connect 44 0 45 0;
#X connect 44 1 45 1;
#X connect 45 0 46 0;
#X connect 46 0 47 0;
#X connect 47 0 48 0;
#X connect 48 0 39 0;
#X connect 51 0 50 0;
#X connect 51 0 71 0;
#X connect 52 0 51 0;
#X connect 53 0 58 0;
#X connect 54 0 0 0;
#X connect 55 0 35 0;
#X connect 56 0 81 0;
#X connect 57 0 54 0;
#X connect 57 1 55 0;
#X connect 57 2 83 0;
#X connect 57 3 78 0;
#X connect 57 4 82 0;
#X connect 57 5 61 0;
#X connect 58 0 57 0;
#X connect 59 0 69 0;
#X connect 60 0 70 0;
#X connect 61 0 62 0;
#X connect 61 1 65 0;
#X connect 61 2 73 0;
#X connect 62 0 64 0;
#X connect 63 0 59 0;
#X connect 64 0 63 0;
#X connect 65 0 67 0;
#X connect 66 0 60 0;
#X connect 67 0 66 0;
#X connect 73 0 74 0;
#X connect 74 0 72 0;
#X connect 76 0 75 0;
#X connect 77 0 76 0;
#X connect 78 0 75 0;
#X connect 79 0 75 0;
#X connect 80 0 75 0;
#X connect 81 0 75 0;
#X connect 82 0 75 0;
#X connect 83 0 75 0;
