#N canvas 665 103 997 1145 12;
#X obj 64 188 list trim;
#X obj 64 238 list split 1;
#X obj 104 261 list fromsymbol;
#X obj 185 307 list length;
#X obj 104 284 t l l, f 12;
#X obj 104 354 list split 0;
#X obj 185 331 - 3;
#X obj 176 501 list store;
#X obj 144 403 list length;
#X obj 176 451 - 3;
#X msg 176 476 get \$1;
#X obj 104 378 t l l l, f 12;
#X obj 77 573 list split;
#X obj 144 427 t f f;
#X obj 176 526 == 46;
#X obj 144 525 - 1;
#X obj 144 549 - 0, f 4;
#X obj 144 790 list length;
#X obj 77 766 t l l, f 10;
#X obj 144 813 - 1;
#X obj 77 836 list split;
#X obj 110 597 t l l, f 12;
#X obj 110 716 symbol, f 12;
#X obj 191 692 list tosymbol;
#X obj 110 619 unpack 0 0;
#X obj 110 668 change;
#X obj 110 644 +, f 10;
#X obj 110 691 t b;
#X obj 77 862 t l l, f 16;
#X obj 77 1029 symbol, f 16;
#X obj 186 1001 list tosymbol;
#X obj 77 981 change;
#X obj 77 1004 t b;
#X obj 77 957 +, f 5;
#X obj 140 910 +, f 5;
#X obj 77 884 unpack 0 0 0 0;
#X obj 108 934 +, f 5;
#X obj 275 274 list split 1;
#X obj 315 322 list fromsymbol;
#X obj 396 368 list length;
#X obj 315 345 t l l, f 12;
#X obj 315 425 list split 0;
#X obj 348 624 list tosymbol;
#X obj 396 392 - 4;
#X obj 315 297 route symbol;
#X obj 315 452 t l l, f 17;
#X obj 315 477 list split;
#X obj 411 424 - 2;
#X obj 348 503 unpack 0 0;
#X obj 348 528 +, f 10;
#X obj 348 552 change;
#X obj 348 575 t b;
#X obj 348 599 list, f 12;
#X obj 464 239 list split 1;
#X obj 504 264 route float;
#X obj 705 307 list split 1;
#X obj 745 356 f;
#X obj 745 332 route symbol;
#X obj 763 283 print current_region;
#X obj 649 413 print region_info;
#X obj 848 512 f;
#X obj 634 464 list split 1;
#X obj 674 488 list trim;
#X obj 726 616 tabwrite region-length;
#X obj 676 643 tabwrite region-time;
#X obj 676 567 list append;
#X obj 726 593 list append;
#X obj 848 488 list split 1;
#X obj 634 439 t a a, f 31;
#X obj 140 165 array define -yrange 0 20 region-length 20;
#X obj 140 189 array define -yrange 0 100 region-time 20;
#X obj 776 562 list;
#X obj 814 592 text set region-name;
#X obj 635 206 text define region-name;
#X msg 643 181 clear;
#X msg 635 158 read -c chordlist.txt;
#X obj 635 135 loadbang;
#X obj 676 512 route time length name;
#X obj 64 21 cnv 19 50 50 empty chord-0 C 10 24 0 16 #fce0e0 #000000 0;
#X obj 964 21 cnv 19 50 50 empty chord-15 empty 10 25 0 25 #d8fcd8 #000000 0;
#X obj 905 21 cnv 19 50 50 empty chord-14 empty 10 25 0 16 #d8fcd8 #000000 0;
#X obj 844 21 cnv 19 50 50 empty chord-13 empty 10 25 0 16 #d8fcd8 #000000 0;
#X obj 784 21 cnv 19 50 50 empty chord-12 G 10 25 0 16 #d8fcd8 #000000 0;
#X obj 724 21 cnv 19 50 50 empty chord-11 empty 10 25 0 16 #d8fcd8 #000000 0;
#X obj 665 21 cnv 19 50 50 empty chord-10 empty 10 25 0 16 #d8fcd8 #000000 0;
#X obj 604 21 cnv 19 50 50 empty chord-9 empty 10 25 0 16 #d8fcd8 #000000 0;
#X obj 544 21 cnv 19 50 50 empty chord-8 empty 10 25 0 16 #d8fcd8 #000000 0;
#X obj 485 21 cnv 19 50 50 empty chord-7 empty 10 25 0 16 #fce0e0 #000000 0;
#X obj 425 21 cnv 19 50 50 empty chord-6 Am 10 25 0 16 #fce0e0 #000000 0;
#X obj 365 21 cnv 19 50 50 empty chord-5 empty 10 25 0 16 #fce0e0 #000000 0;
#X obj 306 21 cnv 19 50 50 empty chord-4 empty 10 25 0 16 #fce0e0 #000000 0;
#X obj 245 21 cnv 19 50 50 empty chord-3 empty 10 25 0 16 #fce0e0 #000000 0;
#X obj 185 21 cnv 19 50 50 empty chord-2 empty 10 25 0 16 #fce0e0 #000000 0;
#X obj 745 380 s current-region;
#X obj 126 21 cnv 19 50 50 empty chord-1 empty 10 25 0 16 #fce0e0 #000000 0;
#N canvas 92 77 1956 1042 chord 0;
#X obj 8 11 r current-region;
#X obj 1616 354 text get region-name;
#X msg 1616 378 label \$1;
#X obj 1616 402 send chord-0;
#X obj 1594 426 tabread region-length;
#X obj 1197 744 text get region-name;
#X msg 1197 768 label \$1;
#X msg 1368 746 symbol chord-\$1, f 8;
#X obj 1196 792 send, f 25;
#X obj 8 313 t f f f f f, f 227;
#X obj 801 747 text get region-name;
#X msg 801 771 label \$1;
#X obj 833 390 tabread region-length;
#X msg 972 749 symbol chord-\$1, f 8;
#X obj 800 795 send, f 25;
#X obj 404 747 text get region-name;
#X msg 404 771 label \$1;
#X msg 575 758 symbol chord-\$1, f 8;
#X obj 403 795 send, f 25;
#X obj 801 339 + 2;
#X obj 404 368 t f f;
#X obj 8 36 t f b;
#X obj 801 364 t f f;
#X obj 436 395 tabread region-length;
#X obj 972 593 +;
#X obj 1197 369 t f f, f 6;
#X obj 1197 344 + 1;
#X obj 404 342 + 3;
#X obj 1236 395 tabread region-length;
#X obj 575 632 +;
#X obj 8 746 text get region-name;
#X msg 8 770 label \$1;
#X msg 179 757 symbol chord-\$1, f 8;
#X obj 7 794 send, f 25;
#X obj 8 367 t f f;
#X obj 40 394 tabread region-length;
#X obj 179 671 +;
#X obj 8 341 + 4;
#X floatatom 187 704 5 0 0 0 - - - 0;
#X floatatom 598 692 5 0 0 0 - - - 0;
#X floatatom 1000 661 5 0 0 0 - - - 0;
#X floatatom 446 430 5 0 0 0 - - - 0;
#X obj 1594 494 until;
#X obj 1662 520 + 1;
#X obj 1629 519 f 0;
#X obj 1594 467 t f b, f 8;
#X msg 1647 493 0;
#X msg 1629 545 \; chord-\$1 color 3 \;;
#X msg 40 59 \; chord-0 label \; chord-1 label \; chord-2 label \; chord-3 label \; chord-4 label \; chord-5 label \; chord-6 label \; chord-7 label \; chord-8 label \; chord-9 label \; chord-10 label \; chord-11 label \; chord-12 label \; chord-13 label \; chord-14 label \; chord-15 label \;, f 60;
#X obj 846 463 until;
#X obj 914 489 + 1;
#X obj 881 488 f 0;
#X obj 846 436 t f b, f 8;
#X msg 899 462 0;
#X obj 881 511 +;
#X obj 467 497 until;
#X obj 535 523 + 1;
#X obj 502 522 f 0;
#X obj 467 470 t f b, f 8;
#X msg 520 496 0;
#X obj 502 545 +;
#X msg 502 568 \; chord-\$1 color 9 \;;
#X obj 67 478 until;
#X obj 135 504 + 1;
#X obj 102 503 f 0;
#X obj 67 451 t f b, f 8;
#X msg 120 477 0;
#X obj 102 526 +;
#X msg 102 549 \; chord-\$1 color 11 \;;
#X msg 881 534 \; chord-\$1 color 66 \;;
#X floatatom 973 515 5 0 0 0 - - - 0;
#X floatatom 1746 481 5 0 0 0 - - - 0;
#X connect 0 0 21 0;
#X connect 1 0 2 0;
#X connect 2 0 3 0;
#X connect 4 0 7 0;
#X connect 4 0 24 1;
#X connect 4 0 45 0;
#X connect 5 0 6 0;
#X connect 6 0 8 0;
#X connect 7 0 8 1;
#X connect 9 0 37 0;
#X connect 9 1 27 0;
#X connect 9 2 19 0;
#X connect 9 3 26 0;
#X connect 9 4 4 0;
#X connect 9 4 1 0;
#X connect 10 0 11 0;
#X connect 11 0 14 0;
#X connect 12 0 29 0;
#X connect 12 0 52 0;
#X connect 13 0 14 1;
#X connect 15 0 16 0;
#X connect 16 0 18 0;
#X connect 17 0 18 1;
#X connect 19 0 22 0;
#X connect 20 0 15 0;
#X connect 20 1 23 0;
#X connect 21 0 9 0;
#X connect 21 1 48 0;
#X connect 22 0 10 0;
#X connect 22 1 12 0;
#X connect 23 0 36 0;
#X connect 23 0 41 0;
#X connect 24 0 13 0;
#X connect 24 0 29 1;
#X connect 24 0 40 0;
#X connect 24 0 54 1;
#X connect 25 0 5 0;
#X connect 25 1 28 0;
#X connect 26 0 25 0;
#X connect 27 0 20 0;
#X connect 28 0 24 0;
#X connect 29 0 17 0;
#X connect 29 0 36 1;
#X connect 29 0 39 0;
#X connect 29 0 60 1;
#X connect 30 0 31 0;
#X connect 31 0 33 0;
#X connect 32 0 33 1;
#X connect 34 0 30 0;
#X connect 34 1 35 0;
#X connect 35 0 65 0;
#X connect 36 0 32 0;
#X connect 36 0 38 0;
#X connect 36 0 67 1;
#X connect 37 0 34 0;
#X connect 41 0 58 0;
#X connect 42 0 44 0;
#X connect 43 0 44 1;
#X connect 44 0 43 0;
#X connect 44 0 47 0;
#X connect 45 0 42 0;
#X connect 45 0 71 0;
#X connect 45 1 46 0;
#X connect 46 0 44 1;
#X connect 49 0 51 0;
#X connect 50 0 51 1;
#X connect 51 0 50 0;
#X connect 51 0 54 0;
#X connect 52 0 49 0;
#X connect 52 1 53 0;
#X connect 53 0 51 1;
#X connect 54 0 69 0;
#X connect 55 0 57 0;
#X connect 56 0 57 1;
#X connect 57 0 56 0;
#X connect 57 0 60 0;
#X connect 58 0 55 0;
#X connect 58 1 59 0;
#X connect 59 0 57 1;
#X connect 60 0 61 0;
#X connect 62 0 64 0;
#X connect 63 0 64 1;
#X connect 64 0 63 0;
#X connect 64 0 67 0;
#X connect 65 0 62 0;
#X connect 65 1 66 0;
#X connect 66 0 64 1;
#X connect 67 0 68 0;
#X connect 70 0 69 0;
#X restore 810 207 pd chord management;
#X obj 705 259 route number name;
#N canvas 63 88 296 316 netsend-if-needed 0;
#X obj 28 194 netsend -u -b;
#X floatatom 28 218 5 0 0 0 - - - 0;
#X msg 28 142 connect localhost 8001;
#X msg 39 167 disconnect;
#X msg 30 106 list /marker \$1;
#X floatatom 30 81 5 0 0 0 - - - 0;
#X floatatom 29 21 5 0 0 0 - - - 0;
#X obj 29 47 oscformat region;
#X connect 0 0 1 0;
#X connect 2 0 0 0;
#X connect 3 0 0 0;
#X connect 5 0 4 0;
#X connect 6 0 7 0;
#X restore 233 138 pd netsend-if-needed;
#X obj 264 239 s PLAY;
#N canvas 1083 160 613 569 GUI 1;
#X obj 33 535 s toGUI;
#X msg 273 408 list /play enable 0 \, list /record enable 0;
#X obj 273 383 loadbang;
#X msg 217 298 list /record set \$1;
#X obj 217 274 r RECORD;
#X obj 97 124 r BEAT;
#X obj 37 74 r BAR;
#X obj 137 174 r TIME;
#X obj 177 224 r PLAY;
#X obj 262 325 r TEMPO;
#X msg 177 247 list /play set \$1;
#X msg 137 197 list /time \$1;
#X msg 37 97 list /bar \$1;
#X msg 97 147 list /beat \$1;
#X msg 262 354 list /tempo \$1;
#X connect 1 0 0 0;
#X connect 2 0 1 0;
#X connect 3 0 0 0;
#X connect 4 0 3 0;
#X connect 5 0 13 0;
#X connect 6 0 12 0;
#X connect 7 0 11 0;
#X connect 8 0 10 0;
#X connect 9 0 14 0;
#X connect 10 0 0 0;
#X connect 11 0 0 0;
#X connect 12 0 0 0;
#X connect 13 0 0 0;
#X connect 14 0 0 0;
#X restore 385 138 pd GUI;
#X obj 77 1053 s BAR;
#X obj 110 740 s BEAT;
#X obj 364 239 s RECORD;
#X obj 504 290 s TEMPO;
#X obj 348 648 s TIME;
#X obj 64 133 netreceive -u -b 8500;
#X obj 64 214 route beat time play record tempo, f 72;
#X obj 634 233 route region lastregion marker lastmarker;
#X obj 422 873 print something;
#X obj 429 848 loadbang;
#X obj 64 160 oscparse;
#X connect 0 0 106 0;
#X connect 0 0 108 0;
#X connect 1 1 2 0;
#X connect 2 0 4 0;
#X connect 3 0 6 0;
#X connect 4 0 5 0;
#X connect 4 1 3 0;
#X connect 5 0 11 0;
#X connect 6 0 5 1;
#X connect 7 0 14 0;
#X connect 8 0 13 0;
#X connect 9 0 10 0;
#X connect 10 0 7 0;
#X connect 11 0 12 0;
#X connect 11 1 8 0;
#X connect 11 2 7 1;
#X connect 12 0 18 0;
#X connect 12 1 21 0;
#X connect 13 0 15 0;
#X connect 13 1 9 0;
#X connect 14 0 16 1;
#X connect 15 0 16 0;
#X connect 16 0 12 1;
#X connect 17 0 19 0;
#X connect 18 0 20 0;
#X connect 18 1 17 0;
#X connect 19 0 20 1;
#X connect 20 0 28 0;
#X connect 21 0 24 0;
#X connect 21 1 23 0;
#X connect 22 0 101 0;
#X connect 23 0 22 1;
#X connect 24 0 26 0;
#X connect 24 1 26 1;
#X connect 25 0 27 0;
#X connect 26 0 25 0;
#X connect 27 0 22 0;
#X connect 28 0 35 0;
#X connect 28 1 30 0;
#X connect 29 0 100 0;
#X connect 30 0 29 1;
#X connect 31 0 32 0;
#X connect 32 0 29 0;
#X connect 33 0 31 0;
#X connect 34 0 36 1;
#X connect 35 0 33 0;
#X connect 35 1 36 0;
#X connect 35 2 34 0;
#X connect 35 3 34 1;
#X connect 36 0 33 1;
#X connect 37 1 44 0;
#X connect 38 0 40 0;
#X connect 39 0 43 0;
#X connect 40 0 41 0;
#X connect 40 1 39 0;
#X connect 41 0 45 0;
#X connect 42 0 104 0;
#X connect 43 0 41 1;
#X connect 43 0 47 0;
#X connect 44 0 38 0;
#X connect 45 0 46 0;
#X connect 45 1 52 1;
#X connect 46 1 48 0;
#X connect 47 0 46 1;
#X connect 48 0 49 0;
#X connect 48 1 49 1;
#X connect 49 0 50 0;
#X connect 50 0 51 0;
#X connect 51 0 52 0;
#X connect 52 0 42 0;
#X connect 53 1 54 0;
#X connect 54 0 103 0;
#X connect 55 1 57 0;
#X connect 56 0 93 0;
#X connect 57 0 56 0;
#X connect 60 0 66 1;
#X connect 60 0 65 1;
#X connect 60 0 72 1;
#X connect 61 1 62 0;
#X connect 62 0 77 0;
#X connect 65 0 64 0;
#X connect 66 0 63 0;
#X connect 67 0 60 0;
#X connect 68 0 61 0;
#X connect 68 1 67 0;
#X connect 71 0 72 0;
#X connect 74 0 73 0;
#X connect 75 0 73 0;
#X connect 76 0 75 0;
#X connect 77 0 65 0;
#X connect 77 1 66 0;
#X connect 77 2 71 0;
#X connect 96 0 55 0;
#X connect 96 1 58 0;
#X connect 105 0 110 0;
#X connect 106 0 1 0;
#X connect 106 1 37 0;
#X connect 106 2 98 0;
#X connect 106 3 102 0;
#X connect 106 4 53 0;
#X connect 106 5 107 0;
#X connect 107 0 68 0;
#X connect 107 1 96 0;
#X connect 109 0 108 0;
#X connect 110 0 0 0;
