#N canvas 57 25 1991 739 12;
#X obj 29 581 send toNetwork;
#X obj 29 20 receive fromGUI;
#X obj 29 58 list trim;
#X text 153 19 hay un problema con este objeto \, que contradice la documentación. si lo conecto \, no funcioan, f 30;
#X obj 320 405 sel 1;
#X obj 391 405 sel 1;
#X obj 463 405 sel 1;
#X obj 535 405 sel 1;
#X obj 607 405 sel 1;
#X obj 679 405 sel 1;
#X obj 750 405 sel 1;
#X obj 822 405 sel 1;
#X obj 894 405 sel 1;
#X obj 966 407 sel 1;
#X msg 320 432 1;
#X msg 391 432 2;
#X msg 463 432 3;
#X msg 534 432 4;
#X msg 966 432 10;
#X msg 894 432 9;
#X msg 822 432 8;
#X msg 750 432 7;
#X msg 679 432 6;
#X msg 607 432 5;
#X msg 550 600 list /marker \$1;
#X obj 29 88 route /play /stop, f 28;
#X obj 125 118 sel 1;
#X msg 29 380 list /play 1, f 8;
#X msg 122 380 list /stop 1, f 8;
#X msg 206 378 list /pause 1;
#X obj 525 22 receive fromNetwork;
#X obj 559 288 send toGUI;
#X text 642 289 Here we update the GUI;
#X obj 525 44 list trim;
#X msg 559 265 list /clock \$1;
#X obj 525 66 route /time/str;
#X obj 525 87 symbol;
#X obj 525 111 list fromsymbol;
#X obj 592 162 list length;
#X obj 525 211 list split;
#X obj 525 136 t l l, f 10;
#X obj 525 236 list tosymbol;
#X obj 592 186 - 4;
#X obj 1036 407 sel 1;
#X obj 1107 407 sel 1;
#X obj 1179 407 sel 1;
#X obj 1251 407 sel 1;
#X obj 1323 407 sel 1;
#X obj 1395 407 sel 1;
#X obj 1466 407 sel 1;
#X obj 1538 407 sel 1;
#X obj 1610 407 sel 1;
#X obj 1682 409 sel 1;
#X msg 1036 434 11;
#X msg 1107 434 12;
#X msg 1179 434 13;
#X msg 1250 434 14;
#X msg 1323 434 15;
#X msg 1395 434 16;
#X msg 1466 434 17;
#X msg 1610 434 19;
#X msg 1538 434 18;
#X msg 1682 434 20;
#X obj 1746 407 sel 1;
#X obj 1818 407 sel 1;
#X obj 1890 407 sel 1;
#X obj 1962 409 sel 1;
#X obj 320 381 route /m1 /m2 /m3 /m4 /m5 /m6 /m7 /m8 /m9 /m10 /m11 /m12 /m13 /m14 /m15 /m16 /m17 /m18 /m19 /m20 /m21 /m22 /m23 /m24, f 247;
#X obj 2195 288 sdf;
#X msg 1746 434 21;
#X msg 1818 434 22;
#X msg 1890 434 23;
#X msg 1962 434 24;
#X obj 29 118 sel 1 0;
#X connect 1 0 2 0;
#X connect 2 0 25 0;
#X connect 4 0 14 0;
#X connect 5 0 15 0;
#X connect 6 0 16 0;
#X connect 7 0 17 0;
#X connect 8 0 23 0;
#X connect 9 0 22 0;
#X connect 10 0 21 0;
#X connect 11 0 20 0;
#X connect 12 0 19 0;
#X connect 13 0 18 0;
#X connect 14 0 24 0;
#X connect 15 0 24 0;
#X connect 16 0 24 0;
#X connect 17 0 24 0;
#X connect 18 0 24 0;
#X connect 19 0 24 0;
#X connect 20 0 24 0;
#X connect 21 0 24 0;
#X connect 22 0 24 0;
#X connect 23 0 24 0;
#X connect 24 0 0 0;
#X connect 25 0 73 0;
#X connect 25 1 26 0;
#X connect 25 2 67 0;
#X connect 26 0 28 0;
#X connect 27 0 0 0;
#X connect 28 0 0 0;
#X connect 29 0 0 0;
#X connect 30 0 33 0;
#X connect 33 0 35 0;
#X connect 34 0 31 0;
#X connect 35 0 36 0;
#X connect 36 0 37 0;
#X connect 37 0 40 0;
#X connect 38 0 42 0;
#X connect 39 0 41 0;
#X connect 40 0 39 0;
#X connect 40 1 38 0;
#X connect 41 0 34 0;
#X connect 42 0 39 1;
#X connect 43 0 53 0;
#X connect 44 0 54 0;
#X connect 45 0 55 0;
#X connect 46 0 56 0;
#X connect 47 0 57 0;
#X connect 48 0 58 0;
#X connect 49 0 59 0;
#X connect 50 0 61 0;
#X connect 51 0 60 0;
#X connect 52 0 62 0;
#X connect 53 0 24 0;
#X connect 54 0 24 0;
#X connect 55 0 24 0;
#X connect 56 0 24 0;
#X connect 57 0 24 0;
#X connect 58 0 24 0;
#X connect 59 0 24 0;
#X connect 60 0 24 0;
#X connect 61 0 24 0;
#X connect 62 0 24 0;
#X connect 63 0 69 0;
#X connect 64 0 70 0;
#X connect 65 0 71 0;
#X connect 66 0 72 0;
#X connect 67 0 4 0;
#X connect 67 1 5 0;
#X connect 67 2 6 0;
#X connect 67 3 7 0;
#X connect 67 4 8 0;
#X connect 67 5 9 0;
#X connect 67 6 10 0;
#X connect 67 7 11 0;
#X connect 67 8 12 0;
#X connect 67 9 13 0;
#X connect 67 10 43 0;
#X connect 67 11 44 0;
#X connect 67 12 45 0;
#X connect 67 13 46 0;
#X connect 67 14 47 0;
#X connect 67 15 48 0;
#X connect 67 16 49 0;
#X connect 67 17 50 0;
#X connect 67 18 51 0;
#X connect 67 19 52 0;
#X connect 67 20 63 0;
#X connect 67 21 64 0;
#X connect 67 22 65 0;
#X connect 67 23 66 0;
#X connect 69 0 24 0;
#X connect 70 0 24 0;
#X connect 71 0 24 0;
#X connect 72 0 24 0;
#X connect 73 0 27 0;
#X connect 73 1 29 0;
