#N canvas 763 160 1285 819 10;
#X obj 78 51 receive fromGUI;
#X obj 78 74 list trim;
#X obj 78 349 f 0;
#X obj 108 349 + 1;
#X obj 254 251 loadbang;
#X obj 282 194 send toSystem;
#X obj 282 120 sel 1;
#X obj 350 119 sel 1;
#X msg 282 171 list /setPage \$1;
#X msg 282 143 1;
#X msg 350 140 0;
#X obj 216 196 sel 1;
#X obj 216 218 bang;
#X msg 216 240 0;
#X obj 78 374 mod 60;
#X text 124 374 seconds;
#X obj 78 395 t f f, f 21;
#X obj 201 423 sel 0;
#X obj 201 445 f 0;
#X obj 231 445 + 1;
#X obj 201 489 t f f, f 10;
#X obj 77 625 pack s s s, f 31;
#X msg 77 648 symbol \$3:\$2:\$1;
#X obj 258 511 sel 0;
#X obj 258 531 f 0;
#X obj 287 532 + 1;
#X obj 77 416 makefilename %02d;
#X obj 258 577 makefilename %02d;
#X obj 200 601 makefilename %02d;
#X msg 252 275 \; toGUI list /time 00:00:00;
#X obj 201 468 mod 60;
#X text 247 468 minutes;
#X text 301 554 hours;
#X obj 258 555 mod 60;
#X obj 536 58 receive fromNetwork;
#X obj 536 192 send toGUI;
#X text 703 193 Here we update the GUI;
#X text 541 34 Here we update the GUI;
#X obj 536 84 list trim;
#X text 733 171 route address in the GUI widget!;
#X text 722 105 OSC address in computer;
#X msg 536 140 list /switch \$1;
#X obj 79 97 route /switch /reset /-- /settings /settings2, f 57;
#X obj 536 106 route /chronometer /resettime;
#X msg 621 166 list /reset \$1;
#X obj 78 260 metro 1000;
#X obj 449 407 sel 0;
#X msg 77 670 \; toGUI list /time \$1;
#X msg 449 428 bang \; toGUI list /time highlight 1;
#X msg 449 485 \; toGUI list /time highlight 0;
#X obj 449 462 delay 200;
#X connect 0 0 1 0;
#X connect 1 0 42 0;
#X connect 2 0 3 0;
#X connect 2 0 14 0;
#X connect 2 0 46 0;
#X connect 3 0 2 1;
#X connect 4 0 29 0;
#X connect 6 0 9 0;
#X connect 7 0 10 0;
#X connect 8 0 5 0;
#X connect 9 0 8 0;
#X connect 10 0 8 0;
#X connect 11 0 12 0;
#X connect 12 0 13 0;
#X connect 13 0 2 1;
#X connect 13 0 18 1;
#X connect 13 0 24 1;
#X connect 13 0 29 0;
#X connect 14 0 16 0;
#X connect 16 0 26 0;
#X connect 16 1 17 0;
#X connect 17 0 18 0;
#X connect 18 0 19 0;
#X connect 18 0 30 0;
#X connect 19 0 18 1;
#X connect 20 0 28 0;
#X connect 20 1 23 0;
#X connect 21 0 22 0;
#X connect 22 0 47 0;
#X connect 23 0 24 0;
#X connect 24 0 25 0;
#X connect 24 0 33 0;
#X connect 25 0 24 1;
#X connect 26 0 21 0;
#X connect 27 0 21 2;
#X connect 28 0 21 1;
#X connect 30 0 20 0;
#X connect 33 0 27 0;
#X connect 34 0 38 0;
#X connect 38 0 43 0;
#X connect 41 0 35 0;
#X connect 42 0 45 0;
#X connect 42 1 11 0;
#X connect 42 3 6 0;
#X connect 42 4 7 0;
#X connect 43 0 41 0;
#X connect 43 1 44 0;
#X connect 44 0 35 0;
#X connect 45 0 2 0;
#X connect 46 0 48 0;
#X connect 48 0 50 0;
#X connect 50 0 49 0;
