#N canvas 655 32 1045 918 10;
#X obj 115 47 receive fromGUI;
#X obj 115 68 list trim;
#X obj 15 555 *~;
#X obj 30 532 line~;
#X msg 30 512 \$1 100;
#X obj 215 640 line~;
#X obj 200 811 *~;
#X obj 200 662 *~;
#X obj 804 667 send toGUI;
#X obj 215 695 delread~ delay 0;
#X obj 15 646 delwrite~ delay 60000;
#X obj 15 389 adc~ 1;
#X obj 554 494 sel 0 1 2 3 4 5 6 7 8 9, f 76;
#X msg 554 516 0;
#X obj 764 590 f, f 8;
#X msg 804 645 list /deltime \$1 s.;
#X obj 804 623 / 1000;
#X msg 916 514 180000;
#X msg 599 515 1000;
#X msg 689 515 5000;
#X msg 644 515 3000;
#X msg 735 515 10000;
#X msg 780 515 20000;
#X msg 961 514 600000;
#X msg 871 514 120000;
#X msg 825 514 60000;
#X msg 215 619 \$1 100;
#X obj 145 412 sel 0 1 2 3 4 5 6 7 8 9, f 50;
#X msg 145 434 0;
#X obj 145 498 f, f 8;
#X obj 215 595 dbtorms;
#X msg 96 498 clear;
#X obj 96 406 sel 1;
#X obj 155 563 send toGUI;
#X obj 155 520 - 100;
#X msg 30 457 1;
#X obj 30 437 delay 2000;
#X obj 15 410 hip~ 5;
#X msg 155 541 list /volume-vis \$1 dB.;
#X obj 115 89 route /switch /volume /delay /frequency /q, f 86;
#X obj 200 835 dac~ 1;
#X obj 762 257 send toGUI;
#X obj 525 112 sel 0 1 2 3 4 5 6 7 8 9, f 76;
#X obj 735 208 f, f 8;
#X msg 762 235 list /q-vis \$1 Q.;
#X msg 525 134 0.1;
#X msg 570 133 0.2;
#X obj 735 257 s q;
#X obj 254 720 r freq;
#X obj 296 720 r q;
#X obj 215 767 expr~ atan($v1);
#X obj 215 789 *~ 0.63662;
#X obj 791 434 send toGUI;
#X obj 554 286 sel 0 1 2 3 4 5 6 7 8 9, f 76;
#X obj 764 382 f, f 8;
#X msg 791 412 list /freq-vis \$1 Hz.;
#X msg 644 307 500;
#X msg 689 307 1000;
#X msg 735 307 2000;
#X msg 780 307 3000;
#X msg 825 306 4000;
#X msg 871 306 6000;
#X msg 916 306 8000;
#X msg 961 306 12000;
#X msg 554 308 125;
#X msg 599 307 250;
#X msg 175 434 60;
#X msg 204 434 80;
#X msg 234 434 90;
#X msg 110 457 stop;
#X obj 215 744 vcf~ 125 0.1, f 14;
#X obj 744 434 s freq;
#X msg 412 435 160;
#X msg 382 434 140;
#X msg 352 434 120;
#X msg 323 434 110;
#X msg 263 434 100;
#X msg 293 434 106;
#X msg 932 132 100;
#X msg 887 132 10;
#X msg 842 132 5;
#X msg 796 132 3;
#X msg 751 133 2;
#X msg 660 133 0.5;
#X msg 615 133 0.3;
#X msg 706 133 1;
#X connect 0 0 1 0;
#X connect 1 0 39 0;
#X connect 2 0 10 0;
#X connect 3 0 2 1;
#X connect 3 0 7 0;
#X connect 4 0 3 0;
#X connect 5 0 7 1;
#X connect 6 0 40 0;
#X connect 7 0 6 0;
#X connect 9 0 70 0;
#X connect 11 0 37 0;
#X connect 12 0 13 0;
#X connect 12 1 18 0;
#X connect 12 2 20 0;
#X connect 12 3 19 0;
#X connect 12 4 21 0;
#X connect 12 5 22 0;
#X connect 12 6 25 0;
#X connect 12 7 24 0;
#X connect 12 8 17 0;
#X connect 12 9 23 0;
#X connect 13 0 14 0;
#X connect 14 0 9 0;
#X connect 14 0 16 0;
#X connect 15 0 8 0;
#X connect 16 0 15 0;
#X connect 17 0 14 0;
#X connect 18 0 14 0;
#X connect 19 0 14 0;
#X connect 20 0 14 0;
#X connect 21 0 14 0;
#X connect 22 0 14 0;
#X connect 23 0 14 0;
#X connect 24 0 14 0;
#X connect 25 0 14 0;
#X connect 26 0 5 0;
#X connect 27 0 28 0;
#X connect 27 1 66 0;
#X connect 27 2 67 0;
#X connect 27 3 68 0;
#X connect 27 4 76 0;
#X connect 27 5 77 0;
#X connect 27 6 75 0;
#X connect 27 7 74 0;
#X connect 27 8 73 0;
#X connect 27 9 72 0;
#X connect 28 0 29 0;
#X connect 29 0 30 0;
#X connect 29 0 34 0;
#X connect 30 0 26 0;
#X connect 31 0 10 0;
#X connect 32 0 31 0;
#X connect 32 0 36 0;
#X connect 32 1 4 0;
#X connect 32 1 69 0;
#X connect 34 0 38 0;
#X connect 35 0 4 0;
#X connect 36 0 35 0;
#X connect 37 0 2 0;
#X connect 38 0 33 0;
#X connect 39 0 32 0;
#X connect 39 1 27 0;
#X connect 39 2 12 0;
#X connect 39 3 53 0;
#X connect 39 4 42 0;
#X connect 42 0 45 0;
#X connect 42 1 46 0;
#X connect 42 2 84 0;
#X connect 42 3 83 0;
#X connect 42 4 85 0;
#X connect 42 5 82 0;
#X connect 42 6 81 0;
#X connect 42 7 80 0;
#X connect 42 8 79 0;
#X connect 42 9 78 0;
#X connect 43 0 47 0;
#X connect 43 0 44 0;
#X connect 44 0 41 0;
#X connect 45 0 43 0;
#X connect 46 0 43 0;
#X connect 48 0 70 1;
#X connect 49 0 70 2;
#X connect 50 0 51 0;
#X connect 51 0 6 1;
#X connect 53 0 64 0;
#X connect 53 1 65 0;
#X connect 53 2 56 0;
#X connect 53 3 57 0;
#X connect 53 4 58 0;
#X connect 53 5 59 0;
#X connect 53 6 60 0;
#X connect 53 7 61 0;
#X connect 53 8 62 0;
#X connect 53 9 63 0;
#X connect 54 0 55 0;
#X connect 54 0 71 0;
#X connect 55 0 52 0;
#X connect 56 0 54 0;
#X connect 57 0 54 0;
#X connect 58 0 54 0;
#X connect 59 0 54 0;
#X connect 60 0 54 0;
#X connect 61 0 54 0;
#X connect 62 0 54 0;
#X connect 63 0 54 0;
#X connect 64 0 54 0;
#X connect 65 0 54 0;
#X connect 66 0 29 0;
#X connect 67 0 29 0;
#X connect 68 0 29 0;
#X connect 69 0 36 0;
#X connect 70 0 50 0;
#X connect 72 0 29 0;
#X connect 73 0 29 0;
#X connect 74 0 29 0;
#X connect 75 0 29 0;
#X connect 76 0 29 0;
#X connect 77 0 29 0;
#X connect 78 0 43 0;
#X connect 79 0 43 0;
#X connect 80 0 43 0;
#X connect 81 0 43 0;
#X connect 82 0 43 0;
#X connect 83 0 43 0;
#X connect 84 0 43 0;
#X connect 85 0 43 0;
