#N canvas 861 200 771 570 12;
#X obj 166 103 inlet;
#X obj 166 178 sel 0;
#X obj 392 101 inlet;
#X obj 166 499 line~;
#X obj 454 101 inlet;
#X obj 511 102 inlet;
#X obj 570 104 inlet;
#X msg 280 229 stop;
#X obj 166 524 outlet~;
#X obj 280 381 * 0.01;
#X text 388 79 attack;
#X text 455 78 decay;
#X text 504 80 sustain;
#X text 567 83 release;
#X obj 19 245 t b b, f 16;
#X msg 128 331 0;
#X obj 166 154 t f f, f 8;
#X obj 19 356 pack 0 \$1;
#X obj 280 461 pack 0 \$2;
#X obj 280 354 f \$3, f 21;
#X obj 166 256 pack 0 \$4;
#X obj 19 331 f 0;
#X obj 280 437 * 0;
#X text 177 19 Creation Arguments: attack time \, decay time \, sustain
level \, release time., f 75;
#X text 178 44 A \, D \, and R are in msec and S is in percent.;
#X obj 392 127 s \$0-a;
#X obj 454 128 s \$0-d;
#X obj 511 128 s \$0-s;
#X obj 571 129 s \$0-r;
#X obj 226 230 r \$0-r;
#X obj 424 327 r \$0-s;
#X obj 340 435 r \$0-d;
#X obj 319 301 r \$0-a;
#X obj 79 331 r \$0-a;
#X obj 280 327 del \$1;
#X obj 166 129 max 0;
#X text 162 78 trigger (positive amplitude);
#X obj 219 178 s \$0-amp;
#X obj 298 410 r \$0-amp;
#X obj 37 306 r \$0-amp;
#X connect 0 0 35 0;
#X connect 1 0 7 0;
#X connect 1 0 20 0;
#X connect 1 1 14 0;
#X connect 2 0 25 0;
#X connect 3 0 8 0;
#X connect 4 0 26 0;
#X connect 5 0 27 0;
#X connect 6 0 28 0;
#X connect 7 0 34 0;
#X connect 9 0 22 0;
#X connect 14 0 21 0;
#X connect 14 0 34 0;
#X connect 14 1 15 0;
#X connect 15 0 3 0;
#X connect 16 0 1 0;
#X connect 16 1 37 0;
#X connect 17 0 3 0;
#X connect 18 0 3 0;
#X connect 19 0 9 0;
#X connect 20 0 3 0;
#X connect 21 0 17 0;
#X connect 22 0 18 0;
#X connect 29 0 20 1;
#X connect 30 0 19 1;
#X connect 31 0 18 1;
#X connect 32 0 34 1;
#X connect 33 0 17 1;
#X connect 34 0 19 0;
#X connect 35 0 16 0;
#X connect 38 0 22 1;
#X connect 39 0 21 1;
