#N canvas 725 148 469 572 10;
#X obj 16 105 +~, f 9;
#X text 106 43 delay time;
#X obj 16 26 inlet~;
#X text 18 6 input;
#X obj 16 250 outlet~;
#X obj 67 46 inlet;
#X obj 67 64 clip 0 4000;
#X obj 88 104 inlet;
#X obj 88 125 clip 0 0.98;
#X obj 73 250 delwrite~ \$0-ecoeco 4000;
#X obj 88 206 line~;
#X msg 88 186 \$1 30;
#X obj 73 227 *~;
#X obj 67 84 delread~ \$0-ecoeco 1000;
#X obj 97 146 loadbang;
#X msg 97 166 0.5;
#X connect 0 0 4 0;
#X connect 0 0 12 0;
#X connect 2 0 0 0;
#X connect 5 0 6 0;
#X connect 6 0 13 0;
#X connect 7 0 8 0;
#X connect 8 0 11 0;
#X connect 10 0 12 1;
#X connect 11 0 10 0;
#X connect 12 0 9 0;
#X connect 13 0 0 1;
#X connect 14 0 15 0;
#X connect 15 0 11 0;
