#N canvas 531 229 645 408 10;
#X obj 81 271 noise~;
#X obj 81 313 outlet~;
#X obj 117 65 inlet;
#X obj 126 270 line~;
#X obj 118 87 route bang attack release;
#X obj 118 110 t b b;
#X msg 126 238 0 \, 1 \$1;
#X obj 81 293 *~, f 8;
#X msg 180 238 0 \$1;
#X obj 145 191 f \$1;
#X obj 180 191 del \$1;
#X obj 180 215 f \$2, f 8;
#X connect 0 0 7 0;
#X connect 2 0 4 0;
#X connect 3 0 7 1;
#X connect 4 0 5 0;
#X connect 4 1 9 1;
#X connect 4 1 10 1;
#X connect 4 2 11 1;
#X connect 5 0 10 0;
#X connect 5 1 9 0;
#X connect 6 0 3 0;
#X connect 7 0 1 0;
#X connect 8 0 3 0;
#X connect 9 0 6 0;
#X connect 10 0 11 0;
#X connect 11 0 8 0;
