#N canvas 706 529 484 551 10;
#X obj 26 221 outlet~;
#X obj 124 220 outlet~;
#X obj 25 22 inlet~;
#X obj 72 22 inlet;
#X obj 26 200 *~;
#X obj 124 198 *~;
#X obj 139 177 line~;
#X obj 41 180 line~;
#X msg 139 154 \$1 20;
#X msg 41 160 \$1 20;
#X obj 41 100 - 1;
#X obj 41 120 abs, f 4;
#X obj 41 141 sqrt;
#X msg 139 42 0.5;
#X obj 139 21 loadbang;
#X obj 72 43 clip 0 1;
#X obj 139 132 sqrt;
#X connect 2 0 4 0;
#X connect 2 0 5 0;
#X connect 3 0 15 0;
#X connect 4 0 0 0;
#X connect 5 0 1 0;
#X connect 6 0 5 1;
#X connect 7 0 4 1;
#X connect 8 0 6 0;
#X connect 9 0 7 0;
#X connect 10 0 11 0;
#X connect 11 0 12 0;
#X connect 12 0 9 0;
#X connect 13 0 10 0;
#X connect 13 0 16 0;
#X connect 14 0 13 0;
#X connect 15 0 10 0;
#X connect 15 0 16 0;
#X connect 16 0 8 0;
