#N canvas 216 23 582 538 10;
#X obj 153 264 cos~;
#X obj 153 307 +~ 0.5;
#X obj 153 286 *~ -0.5;
#X obj 189 348 *~;
#X obj 296 300 +~ 0.5;
#X obj 296 321 wrap~;
#X obj 247 350 cos~;
#X obj 247 393 +~ 0.5;
#X obj 247 372 *~ -0.5;
#X obj 281 459 *~;
#X obj 266 483 +~;
#X obj 191 44 inlet;
#X obj 322 40 inlet;
#X obj 353 231 * 1000;
#X obj 265 39 loadbang;
#X obj 296 415 *~;
#X obj 353 253 sig~;
#X obj 204 286 *~;
#X obj 204 160 - 1;
#X obj 204 139 pow;
#X msg 204 119 1.05946 \$1;
#X obj 322 63 t b f;
#X obj 204 206 * -1;
#X obj 204 97 f \$1;
#X obj 266 506 outlet~;
#X obj 31 24 inlet~;
#X obj 204 310 vd~ \$0-shift 0;
#X obj 296 437 vd~ \$0-shift 0;
#X obj 31 45 delwrite~ \$0-shift 100;
#X obj 353 209 f 0.1;
#X obj 204 182 / 0.1;
#X obj 204 227 phasor~ 0;
#X text 191 19 tr;
#X text 326 17 window size;
#X connect 0 0 2 0;
#X connect 1 0 3 0;
#X connect 2 0 1 0;
#X connect 3 0 10 0;
#X connect 4 0 5 0;
#X connect 5 0 6 0;
#X connect 5 0 15 0;
#X connect 6 0 8 0;
#X connect 7 0 9 0;
#X connect 8 0 7 0;
#X connect 9 0 10 1;
#X connect 10 0 24 0;
#X connect 11 0 23 0;
#X connect 12 0 21 0;
#X connect 13 0 16 0;
#X connect 14 0 23 0;
#X connect 14 0 29 0;
#X connect 15 0 27 0;
#X connect 16 0 15 1;
#X connect 16 0 17 1;
#X connect 17 0 26 0;
#X connect 18 0 30 0;
#X connect 19 0 18 0;
#X connect 20 0 19 0;
#X connect 21 0 23 0;
#X connect 21 1 29 0;
#X connect 21 1 30 1;
#X connect 22 0 31 0;
#X connect 23 0 20 0;
#X connect 25 0 28 0;
#X connect 26 0 3 1;
#X connect 27 0 9 1;
#X connect 29 0 13 0;
#X connect 30 0 22 0;
#X connect 31 0 0 0;
#X connect 31 0 4 0;
#X connect 31 0 17 0;
