#N canvas 1126 644 253 189 10;
#X obj 107 92 outlet~;
#X text 124 32 bang = play;
#X text 124 50 stop = stops;
#X obj 23 27 adc~;
#X obj 24 139 table \$1 44100;
#X obj 56 27 inlet;
#X obj 56 48 route rec;
#X obj 23 115 tabwrite~ \$0-sound;
#X obj 107 71 tabplay~ \$0-sound;
#X connect 3 0 7 0;
#X connect 5 0 6 0;
#X connect 6 0 7 0;
#X connect 6 1 8 0;
#X connect 8 0 0 0;
