#N canvas 1126 644 315 225 10;
#X obj 150 152 outlet~;
#X text 195 79 bang = play;
#X text 195 96 stop = stops;
#X obj 26 46 adc~;
#X obj 26 132 tabwrite~ \$1;
#X obj 27 156 table \$1 44100;
#X obj 150 127 tabplay~ \$1;
#X obj 99 27 inlet;
#X obj 99 52 route rec;
#X obj 108 87 bng 15 250 50 0 empty empty empty 17 7 0 10 -262144 -1
-1;
#X connect 3 0 4 0;
#X connect 6 0 0 0;
#X connect 7 0 8 0;
#X connect 8 0 4 0;
#X connect 8 0 9 0;
#X connect 8 1 6 0;
