#N canvas 829 663 451 339 10;
#X obj 13 128 soundfiler;
#X obj 13 12 loadbang;
#X obj 13 59 symbol \$1;
#X obj 210 178 outlet~;
#X obj 210 127 inlet;
#X text 209 86 bang = play;
#X text 209 103 stop = stops;
#X obj 13 82 pack s \$0, f 10;
#X obj 13 36 delay 1;
#X msg 13 104 read -resize ./\$1 \$2-sound;
#X obj 13 151 table \$2-sound 100;
#X obj 210 153 tabplay~ \$2-sound;
#X connect 1 0 8 0;
#X connect 2 0 7 0;
#X connect 4 0 11 0;
#X connect 7 0 9 0;
#X connect 8 0 2 0;
#X connect 9 0 0 0;
#X connect 11 0 3 0;
