#N canvas 965 835 451 339 10;
#X obj 13 146 soundfiler;
#X obj 13 12 loadbang;
#X obj 13 169 table \$2 100;
#X obj 13 36 delay 100;
#X msg 13 123 read -resize ./\$1 \$2;
#X obj 13 101 pack s s, f 13;
#X obj 13 77 symbol \$1;
#X obj 88 78 symbol \$2;
#X obj 13 56 t b b, f 13;
#X obj 210 178 outlet~;
#X obj 210 127 inlet;
#X text 209 86 bang = play;
#X text 209 103 stop = stops;
#X obj 210 154 tabplay~ \$2;
#X connect 1 0 3 0;
#X connect 3 0 8 0;
#X connect 4 0 0 0;
#X connect 5 0 4 0;
#X connect 6 0 5 0;
#X connect 7 0 5 1;
#X connect 8 0 6 0;
#X connect 8 1 7 0;
#X connect 10 0 13 0;
#X connect 13 0 9 0;
