#N canvas 493 139 143 318 10;
#X obj 21 269 outlet~;
#X obj 21 27 inlet~;
#X obj 21 247 *~;
#X obj 36 224 line~;
#X msg 36 201 \$1 50, f 6;
#X obj 36 134 * 100;
#X obj 36 156 dbtorms;
#X obj 36 178 sqrt;
#X obj 36 49 inlet;
#X obj 46 92 loadbang;
#X msg 46 114 1;
#X obj 36 70 clip 0 1;
#X connect 1 0 2 0;
#X connect 2 0 0 0;
#X connect 3 0 2 1;
#X connect 4 0 3 0;
#X connect 5 0 6 0;
#X connect 6 0 7 0;
#X connect 7 0 4 0;
#X connect 8 0 11 0;
#X connect 9 0 10 0;
#X connect 10 0 5 0;
#X connect 11 0 5 0;
