#N canvas 10 67 812 655 10;
#X obj 18 24 receive fromGUI;
#X obj 97 315 dac~;
#X obj 18 45 list trim;
#X obj 18 106 line~;
#X msg 18 86 \$1 100;
#X obj 69 128 line~;
#X msg 69 107 \$1 20;
#X obj 117 87 pow 3;
#X obj 102 183 *~;
#X obj 36 167 *~;
#X obj 69 87 pow 2;
#X obj 253 151 unpack;
#X obj 109 283 bp~ 1 1, f 30;
#X obj 197 242 pow;
#X msg 197 220 1.25992 \$1;
#X obj 286 199 * 4;
#X obj 197 199 * 18;
#X obj 117 108 * 20;
#N canvas 0 22 450 278 (subpatch) 0;
#X array pulse 131 float 3;
#A 0 1 1 1 1 1 1 1 1 1 1 1 1 1 1 1 1 1 1 1 1 1 1 -0 -0 -0 -0 -0 -0
-0 -0 -0 -0 -0 -0 -0 -0 -0 -0 -0 -0 -0 -0 -0 -0 -0 -0 -0 -0 -0 -0 -0
-0 -0 -0 -0 -0 -0 -0 -0 -0 -0 -0 -0 -0 -0 -0 -0 -0 -0 -0 -0 -0 -0 -0
-0 -0 -0 -0 -0 -0 -0 -0 -0 -0 -0 -0 -0 -0 -0 -0 -0 -0 -0 -0 -0 -0 -0
-0 -0 -0 -0 -0 -0 -0 -0 -0 -0 -0 -0 -0 -0 -0 -0 -0 -0 -0 -0 -0 -0 -0
-0 -0 -0 -0 -0 -0 -0 -0 -0 -0 -0;
#X coords 0 1 131 -1 200 140 1 0 0;
#X restore 85 453 graph;
#X obj 117 153 tabosc4~ pulse;
#X obj 410 556 tabwrite pulse;
#X obj 197 263 * 200;
#X obj 117 131 + 1;
#X obj 409 202 t b f;
#X obj 385 159 int;
#X obj 385 180 change;
#X obj 385 118 * 49;
#X obj 385 139 + 1;
#X msg 385 234 0;
#X obj 319 357 delay 300;
#X msg 329 302 1;
#X obj 402 292 spigot 1;
#X obj 405 392 until;
#X obj 421 461 f 0;
#X obj 451 461 + 1;
#X obj 425 496 t b f;
#X msg 420 533 1;
#X obj 18 66 route /switch /volume /freq /filter /width /acdc;
#X obj 591 451 s pulse;
#X obj 587 393 f;
#X msg 598 414 const \$1;
#X msg 477 405 0;
#X obj 390 357 t b f b b;
#X obj 604 210 * -1;
#X obj 403 327 f;
#X obj 552 320 t b f;
#X connect 0 0 2 0;
#X connect 2 0 37 0;
#X connect 3 0 9 0;
#X connect 4 0 3 0;
#X connect 5 0 9 1;
#X connect 6 0 5 0;
#X connect 7 0 17 0;
#X connect 8 0 12 0;
#X connect 9 0 8 0;
#X connect 10 0 6 0;
#X connect 11 0 16 0;
#X connect 11 1 15 0;
#X connect 12 0 1 0;
#X connect 12 0 1 1;
#X connect 13 0 21 0;
#X connect 14 0 13 0;
#X connect 15 0 12 2;
#X connect 16 0 14 0;
#X connect 17 0 22 0;
#X connect 19 0 8 1;
#X connect 21 0 12 1;
#X connect 22 0 19 0;
#X connect 23 0 28 0;
#X connect 23 1 31 0;
#X connect 24 0 25 0;
#X connect 25 0 23 0;
#X connect 26 0 27 0;
#X connect 27 0 24 0;
#X connect 28 0 31 1;
#X connect 29 0 30 0;
#X connect 30 0 31 1;
#X connect 31 0 44 0;
#X connect 32 0 33 0;
#X connect 33 0 34 0;
#X connect 33 0 35 0;
#X connect 34 0 33 1;
#X connect 35 0 36 0;
#X connect 35 1 20 1;
#X connect 36 0 20 0;
#X connect 37 0 4 0;
#X connect 37 1 10 0;
#X connect 37 2 7 0;
#X connect 37 3 11 0;
#X connect 37 4 26 0;
#X connect 37 5 43 0;
#X connect 39 0 40 0;
#X connect 40 0 38 0;
#X connect 41 0 33 1;
#X connect 42 0 29 0;
#X connect 42 1 32 0;
#X connect 42 2 41 0;
#X connect 42 3 39 0;
#X connect 43 0 45 0;
#X connect 44 0 42 0;
#X connect 45 0 44 0;
#X connect 45 1 39 1;
