#N canvas 530 84 473 529 10;
#X obj 24 54 receive fromGUI;
#X obj 105 394 dac~;
#X obj 24 75 list trim;
#X obj 9 8 adc~ 1 2;
#X obj 9 32 +~, f 8;
#X obj 9 396 *~;
#X obj 24 136 line~;
#X msg 24 116 \$1 100;
#X obj 9 419 delwrite~ delay 10000;
#X obj 130 160 delread~ delay 10000;
#X obj 77 158 line~;
#X msg 77 137 \$1 20;
#X obj 130 138 * 10000;
#X obj 130 117 pow 3;
#X obj 115 213 *~;
#X obj 62 180 *~;
#X obj 77 117 pow 2;
#X obj 24 96 route /switch /volume /delay /filter;
#X obj 261 161 unpack;
#X obj 115 313 bp~ 1 1, f 30;
#X obj 203 272 pow;
#X msg 203 250 1.25992 \$1;
#X obj 115 337 expr~ atan($v1);
#X obj 115 359 *~ 0.63662;
#X obj 292 229 * 4;
#X obj 203 293 * 100;
#X obj 203 229 * 18;
#X connect 0 0 2 0;
#X connect 2 0 17 0;
#X connect 3 0 4 0;
#X connect 3 1 4 1;
#X connect 4 0 5 0;
#X connect 5 0 8 0;
#X connect 6 0 5 1;
#X connect 6 0 15 0;
#X connect 7 0 6 0;
#X connect 9 0 14 1;
#X connect 10 0 15 1;
#X connect 11 0 10 0;
#X connect 12 0 9 0;
#X connect 13 0 12 0;
#X connect 14 0 19 0;
#X connect 15 0 14 0;
#X connect 16 0 11 0;
#X connect 17 0 7 0;
#X connect 17 1 16 0;
#X connect 17 2 13 0;
#X connect 17 3 18 0;
#X connect 18 0 26 0;
#X connect 18 1 24 0;
#X connect 19 0 22 0;
#X connect 20 0 25 0;
#X connect 21 0 20 0;
#X connect 22 0 23 0;
#X connect 23 0 1 1;
#X connect 23 0 1 0;
#X connect 24 0 19 2;
#X connect 25 0 19 1;
#X connect 26 0 21 0;
