#N canvas 590 284 710 600 10;
#X obj 142 342 r fromGUI;
#X obj 31 125 metro 500;
#X obj 31 146 f 0;
#X obj 60 146 + 1;
#X obj 31 105 tgl 15 0 empty empty empty 17 7 0 10 -262144 -1 -1 0
1;
#X obj 31 312 s toGUI;
#X obj 31 209 t f f, f 8;
#X obj 142 364 list trim;
#X obj 142 386 route /pattern;
#X obj 142 499 tabwrite pattern;
#X obj 142 475 swap, f 12;
#X obj 143 521 array define pattern 80;
#X obj 142 412 unpack f f f;
#X obj 142 432 * 5;
#X obj 142 453 +, f 6;
#X text 145 541 5 instruments times 16 steps;
#X obj 400 113 until;
#X msg 400 92 5;
#X obj 400 51 r counter;
#X obj 400 138 f 0;
#X obj 428 138 + 1;
#X obj 400 161 mod 5;
#X obj 455 138 * 5;
#X obj 439 203 +;
#X obj 439 224 tabread pattern;
#X obj 400 71 t b f b, f 19;
#X obj 544 272 t l;
#X obj 439 246 list prepend, f 17;
#X obj 418 269 list;
#X obj 400 183 t f f, f 7;
#X obj 400 225 sel 4;
#X obj 418 291 s activations;
#X obj 38 189 s counter;
#X obj 31 169 mod 16;
#X obj 76 248 mod 16;
#X obj 31 270 pack 0 0;
#X msg 31 291 list /counter \$1 0 1 \, list /counter \$2 0 0;
#X obj 76 229 - 1;
#X obj 384 393 r activations;
#X text 383 417 you can receive activations from different instruments
via this receive argument, f 42;
#X obj 82 104 /;
#X msg 82 83 60000 \$1;
#X floatatom 82 64 5 0 0 0 - - -;
#X msg 82 44 120;
#X obj 82 23 loadbang;
#X connect 0 0 7 0;
#X connect 1 0 2 0;
#X connect 2 0 3 0;
#X connect 2 0 33 0;
#X connect 3 0 2 1;
#X connect 4 0 1 0;
#X connect 6 0 35 0;
#X connect 6 1 37 0;
#X connect 7 0 8 0;
#X connect 8 0 12 0;
#X connect 10 0 9 0;
#X connect 10 1 9 1;
#X connect 12 0 13 0;
#X connect 12 1 14 1;
#X connect 12 2 10 1;
#X connect 13 0 14 0;
#X connect 14 0 10 0;
#X connect 16 0 19 0;
#X connect 17 0 16 0;
#X connect 18 0 25 0;
#X connect 19 0 20 0;
#X connect 19 0 21 0;
#X connect 20 0 19 1;
#X connect 21 0 29 0;
#X connect 22 0 23 1;
#X connect 23 0 24 0;
#X connect 24 0 27 0;
#X connect 25 0 17 0;
#X connect 25 1 22 0;
#X connect 25 2 27 1;
#X connect 26 0 27 1;
#X connect 27 0 26 0;
#X connect 27 0 28 1;
#X connect 28 0 31 0;
#X connect 29 0 30 0;
#X connect 29 1 23 0;
#X connect 30 0 28 0;
#X connect 33 0 6 0;
#X connect 33 0 32 0;
#X connect 34 0 35 1;
#X connect 35 0 36 0;
#X connect 36 0 5 0;
#X connect 37 0 34 0;
#X connect 40 0 1 1;
#X connect 41 0 40 0;
#X connect 42 0 41 0;
#X connect 43 0 42 0;
#X connect 44 0 43 0;
