#N canvas 863 573 324 466 10;
#X obj 27 108 receive fromGUI;
#X obj 113 364 dac~;
#X obj 27 129 list trim;
#X obj 12 12 adc~ 1 2;
#X obj 12 36 +~, f 8;
#X obj 12 370 *~;
#X obj 27 190 line~;
#X msg 27 170 \$1 100;
#X obj 82 212 line~;
#X msg 82 191 \$1 20;
#X obj 122 289 *~;
#X obj 67 234 *~;
#X obj 82 171 pow 2;
#X obj 122 311 expr~ atan($v1);
#X obj 122 333 *~ 0.63662;
#X obj 27 150 route /switch /volume /delay;
#X obj 137 171 pow 4;
#X obj 147 238 send toGUI;
#X msg 147 216 list /deltime \$1 ms.;
#X obj 137 266 delread~ delay 0;
#X obj 137 192 * 60000;
#X obj 12 393 delwrite~ delay 60000;
#X obj 13 58 hip~ 30;
#X obj 13 78 hip~ 30;
#X connect 0 0 2 0;
#X connect 2 0 15 0;
#X connect 3 0 4 0;
#X connect 3 1 4 1;
#X connect 4 0 22 0;
#X connect 5 0 21 0;
#X connect 6 0 5 1;
#X connect 6 0 11 0;
#X connect 7 0 6 0;
#X connect 8 0 11 1;
#X connect 9 0 8 0;
#X connect 10 0 13 0;
#X connect 11 0 10 0;
#X connect 12 0 9 0;
#X connect 13 0 14 0;
#X connect 14 0 1 1;
#X connect 14 0 1 0;
#X connect 15 0 7 0;
#X connect 15 1 12 0;
#X connect 15 2 16 0;
#X connect 16 0 20 0;
#X connect 18 0 17 0;
#X connect 19 0 10 1;
#X connect 20 0 18 0;
#X connect 20 0 19 0;
#X connect 22 0 23 0;
#X connect 23 0 5 0;
