#N canvas 1295 139 673 521 12;
#X obj 474 387 ctlout;
#X msg 392 26 50 0 1;
#X obj 392 55 noteout;
#X obj 24 17 r fromGUI;
#X obj 251 378 s toGUI;
#X obj 24 44 list trim;
#X obj 24 70 route /output /enable /flip /mono /target;
#X text 380 86 in case you want to control spk B in RME TOTALMIX, f 27;
#X msg 474 362 1 \$1 1;
#X obj 474 336 r mmsg;
#X msg 80 95 \; mmsg 1;
#X msg 137 95 \; mmsg 2;
#X msg 194 95 \; mmsg 3;
#X msg 24 303 list /output set 0 \$1 \$2;
#X msg 92 257 0 0 \; mmsg 5;
#X msg 24 257 1 0 \; mmsg 4;
#X msg 251 346 list /target set 0 \$1 \$2;
#X msg 251 253 1 0 \, 2 0 \, 3 0 \; mmsg 6;
#X msg 320 253 0 0 \, 2 0 \, 3 0 \; mmsg 7;
#X msg 389 253 0 0 \, 1 0 \, 3 0 \; mmsg 8;
#X msg 458 253 0 0 \, 1 0 \, 2 0 \; mmsg 9, f 7;
#X msg 251 111 \$3 \$2;
#X obj 251 228 sel 0 1 2 3, f 40;
#X obj 251 134 route 1 0;
#X msg 281 158 list /target set 0 \$1 1;
#X obj 24 135 route 1 0;
#X obj 24 229 sel 0 1, f 20;
#X msg 54 159 list /output set 0 \$1 1;
#X obj 281 200 s toGUI;
#X msg 24 110 \$3 \$2;
#X connect 1 0 2 0;
#X connect 3 0 5 0;
#X connect 5 0 6 0;
#X connect 6 0 29 0;
#X connect 6 1 10 0;
#X connect 6 2 11 0;
#X connect 6 3 12 0;
#X connect 6 4 21 0;
#X connect 8 0 0 0;
#X connect 9 0 8 0;
#X connect 13 0 4 0;
#X connect 14 0 13 0;
#X connect 15 0 13 0;
#X connect 16 0 4 0;
#X connect 17 0 16 0;
#X connect 18 0 16 0;
#X connect 19 0 16 0;
#X connect 20 0 16 0;
#X connect 21 0 23 0;
#X connect 22 0 17 0;
#X connect 22 1 18 0;
#X connect 22 2 19 0;
#X connect 22 3 20 0;
#X connect 23 0 22 0;
#X connect 23 1 24 0;
#X connect 24 0 28 0;
#X connect 25 0 26 0;
#X connect 25 1 27 0;
#X connect 26 0 15 0;
#X connect 26 1 14 0;
#X connect 27 0 28 0;
#X connect 29 0 25 0;
