#N canvas 1025 323 1237 933 10;
#X obj 43 140 receive fromGUI;
#X obj 205 769 dac~;
#X obj 43 161 list trim;
#X obj 28 355 *~;
#X obj 43 332 line~;
#X msg 43 312 \$1 100;
#X obj 228 440 line~;
#X obj 213 741 *~;
#X obj 213 462 *~;
#X obj 43 182 route /switch /volume /delay, f 64;
#X obj 337 574 send toGUI;
#X obj 228 574 delread~ delay 0;
#X obj 28 19 adc~ 1;
#X obj 297 411 sel 0 1 2 3 4 5 6 7 8 9, f 109;
#X msg 297 433 0;
#X obj 297 497 f, f 8;
#X msg 337 552 list /deltime \$1 s.;
#X obj 337 530 / 1000;
#X msg 817 430 180000;
#X msg 362 432 1000;
#X msg 492 432 5000;
#X msg 427 432 3000;
#X msg 557 432 10000;
#X msg 622 432 20000;
#X msg 888 430 600000;
#X msg 752 429 120000;
#X msg 687 432 60000;
#X msg 228 419 \$1 100;
#X obj 228 222 sel 0 1 2 3 4 5 6 7 8 9, f 109;
#X msg 228 244 0;
#X obj 228 308 f, f 8;
#X obj 228 395 dbtorms;
#X msg 813 244 100;
#X msg 748 243 97;
#X msg 683 243 94;
#X msg 618 243 90;
#X msg 553 243 88;
#X msg 488 243 80;
#X msg 423 242 70;
#X msg 358 243 60;
#X msg 293 243 40;
#X msg 109 298 clear;
#X obj 109 236 sel 1;
#X obj 238 373 send toGUI;
#X obj 238 330 - 100;
#X msg 42 277 1;
#X obj 42 257 delay 2000;
#X obj 28 40 hip~ 5;
#X msg 238 351 list /volume-vis \$1 dB.;
#X obj 228 638 hip~ 5;
#X obj 228 596 expr~ atan($v1);
#X obj 228 618 *~ 0.63662;
#X obj 28 60 lop~ 12000;
#X obj 28 80 lop~ 10000;
#X obj 28 100 lop~ 8000;
#X obj 28 120 lop~ 6000;
#X obj 228 658 lop~ 12000;
#X obj 228 678 lop~ 10000;
#X obj 228 698 lop~ 8000;
#X obj 228 718 lop~ 6000;
#X obj 28 446 delwrite~ delay 600000;
#X connect 0 0 2 0;
#X connect 2 0 9 0;
#X connect 3 0 60 0;
#X connect 4 0 3 1;
#X connect 4 0 8 0;
#X connect 5 0 4 0;
#X connect 6 0 8 1;
#X connect 7 0 1 0;
#X connect 7 0 1 1;
#X connect 8 0 7 0;
#X connect 9 0 42 0;
#X connect 9 1 28 0;
#X connect 9 2 13 0;
#X connect 11 0 50 0;
#X connect 12 0 47 0;
#X connect 13 0 14 0;
#X connect 13 1 19 0;
#X connect 13 2 21 0;
#X connect 13 3 20 0;
#X connect 13 4 22 0;
#X connect 13 5 23 0;
#X connect 13 6 26 0;
#X connect 13 7 25 0;
#X connect 13 8 18 0;
#X connect 13 9 24 0;
#X connect 14 0 15 0;
#X connect 15 0 11 0;
#X connect 15 0 17 0;
#X connect 16 0 10 0;
#X connect 17 0 16 0;
#X connect 18 0 15 0;
#X connect 19 0 15 0;
#X connect 20 0 15 0;
#X connect 21 0 15 0;
#X connect 22 0 15 0;
#X connect 23 0 15 0;
#X connect 24 0 15 0;
#X connect 25 0 15 0;
#X connect 26 0 15 0;
#X connect 27 0 6 0;
#X connect 28 0 29 0;
#X connect 28 1 40 0;
#X connect 28 2 39 0;
#X connect 28 3 38 0;
#X connect 28 4 37 0;
#X connect 28 5 36 0;
#X connect 28 6 35 0;
#X connect 28 7 34 0;
#X connect 28 8 33 0;
#X connect 28 9 32 0;
#X connect 29 0 30 0;
#X connect 30 0 31 0;
#X connect 30 0 44 0;
#X connect 31 0 27 0;
#X connect 32 0 30 0;
#X connect 33 0 30 0;
#X connect 34 0 30 0;
#X connect 35 0 30 0;
#X connect 36 0 30 0;
#X connect 37 0 30 0;
#X connect 38 0 30 0;
#X connect 39 0 30 0;
#X connect 40 0 30 0;
#X connect 41 0 60 0;
#X connect 42 0 41 0;
#X connect 42 0 46 0;
#X connect 42 1 5 0;
#X connect 44 0 48 0;
#X connect 45 0 5 0;
#X connect 46 0 45 0;
#X connect 47 0 52 0;
#X connect 48 0 43 0;
#X connect 49 0 56 0;
#X connect 50 0 51 0;
#X connect 51 0 49 0;
#X connect 52 0 53 0;
#X connect 53 0 54 0;
#X connect 54 0 55 0;
#X connect 55 0 3 0;
#X connect 56 0 57 0;
#X connect 57 0 58 0;
#X connect 58 0 59 0;
#X connect 59 0 7 1;
