#N canvas 817 155 182 374 10;
#X obj 28 22 receive fromSystem;
#X obj 28 44 list trim;
#X obj 28 66 route /tilts;
#X obj 28 88 unpack, f 9;
#X obj 28 298 *~, f 9;
#X obj 28 325 dac~, f 6;
#X obj 28 109 * 0.5;
#X obj 28 130 + 0.5;
#X obj 28 275 osc~;
#X obj 28 255 line~;
#X msg 28 235 \$1 20;
#X obj 28 193 * 900;
#X obj 28 214 + 100;
#X obj 79 109 * 0.5;
#X obj 79 131 + 0.5;
#X obj 79 239 line~;
#X msg 79 219 \$1 20;
#X obj 79 198 *;
#X obj 79 152 - 1;
#X obj 79 173 abs;
#X connect 0 0 1 0;
#X connect 1 0 2 0;
#X connect 2 0 3 0;
#X connect 3 0 6 0;
#X connect 3 1 13 0;
#X connect 4 0 5 1;
#X connect 4 0 5 0;
#X connect 6 0 7 0;
#X connect 7 0 11 0;
#X connect 8 0 4 0;
#X connect 9 0 8 0;
#X connect 10 0 9 0;
#X connect 11 0 12 0;
#X connect 12 0 10 0;
#X connect 13 0 14 0;
#X connect 14 0 18 0;
#X connect 15 0 4 1;
#X connect 16 0 15 0;
#X connect 17 0 16 0;
#X connect 18 0 19 0;
#X connect 19 0 17 1;
#X connect 19 0 17 0;
